<ttFont>
    <TTGlyph name=".notdef" xMin="66" yMin="-162" xMax="1938" yMax="1247">
      <contour>
        <pt x="1356" y="324" on="1"/>
        <pt x="1360" y="325" on="0"/>
        <pt x="1378" y="344" on="0"/>
        <pt x="1398" y="367" on="0"/>
        <pt x="1412" y="389" on="0"/>
        <pt x="1411" y="393" on="1"/>
        <pt x="1386" y="416" on="0"/>
        <pt x="1287" y="499" on="0"/>
        <pt x="1227" y="553" on="1"/>
        <pt x="1276" y="619" on="0"/>
        <pt x="1356" y="723" on="0"/>
        <pt x="1376" y="752" on="1"/>
        <pt x="1364" y="763" on="0"/>
        <pt x="1320" y="796" on="0"/>
        <pt x="1300" y="805" on="1"/>
        <pt x="1149" y="614" on="1"/>
        <pt x="1118" y="639" on="0"/>
        <pt x="1059" y="684" on="0"/>
        <pt x="1007" y="723" on="0"/>
        <pt x="965" y="754" on="0"/>
        <pt x="950" y="764" on="1"/>
        <pt x="939" y="752" on="0"/>
        <pt x="906" y="709" on="0"/>
        <pt x="897" y="684" on="1"/>
        <pt x="1083" y="537" on="1"/>
        <pt x="936" y="346" on="1"/>
        <pt x="937" y="341" on="0"/>
        <pt x="956" y="323" on="0"/>
        <pt x="980" y="304" on="0"/>
        <pt x="1002" y="290" on="0"/>
        <pt x="1006" y="291" on="1"/>
        <pt x="1165" y="471" on="1"/>
      </contour>
      <contour>
        <pt x="1804" y="965" on="1"/>
        <pt x="1802" y="967" on="1"/>
        <pt x="1801" y="916" on="0"/>
        <pt x="1788" y="796" on="0"/>
        <pt x="1750" y="663" on="0"/>
        <pt x="1682" y="520" on="0"/>
        <pt x="1573" y="373" on="0"/>
        <pt x="1416" y="223" on="0"/>
        <pt x="1309" y="150" on="1"/>
        <pt x="1309" y="144" on="0"/>
        <pt x="1306" y="127" on="0"/>
        <pt x="1298" y="111" on="0"/>
        <pt x="1284" y="100" on="0"/>
        <pt x="1272" y="100" on="1"/>
        <pt x="1247" y="76" on="1"/>
        <pt x="1295" y="59" on="0"/>
        <pt x="1394" y="21" on="0"/>
        <pt x="1442" y="-2" on="1"/>
        <pt x="1452" y="-2" on="0"/>
        <pt x="1473" y="-1" on="0"/>
        <pt x="1485" y="-1" on="1"/>
        <pt x="1513" y="-1" on="0"/>
        <pt x="1578" y="-14" on="0"/>
        <pt x="1612" y="-39" on="1"/>
        <pt x="1612" y="-47" on="0"/>
        <pt x="1609" y="-48" on="0"/>
        <pt x="1604" y="-53" on="1"/>
        <pt x="1575" y="-39" on="0"/>
        <pt x="1523" y="-22" on="0"/>
        <pt x="1485" y="-27" on="1"/>
        <pt x="1505" y="-38" on="0"/>
        <pt x="1544" y="-63" on="0"/>
        <pt x="1561" y="-88" on="1"/>
        <pt x="1558" y="-97" on="0"/>
        <pt x="1542" y="-100" on="1"/>
        <pt x="1513" y="-71" on="0"/>
        <pt x="1449" y="-33" on="0"/>
        <pt x="1411" y="-35" on="1"/>
        <pt x="1394" y="-35" on="0"/>
        <pt x="1371" y="-38" on="0"/>
        <pt x="1349" y="-45" on="0"/>
        <pt x="1325" y="-56" on="0"/>
        <pt x="1307" y="-63" on="1"/>
        <pt x="1302" y="-59" on="0"/>
        <pt x="1295" y="-62" on="0"/>
        <pt x="1294" y="-51" on="1"/>
        <pt x="1304" y="-39" on="0"/>
        <pt x="1323" y="-27" on="0"/>
        <pt x="1343" y="-20" on="0"/>
        <pt x="1367" y="-14" on="0"/>
        <pt x="1382" y="-8" on="1"/>
        <pt x="1349" y="10" on="0"/>
        <pt x="1285" y="35" on="0"/>
        <pt x="1235" y="51" on="0"/>
        <pt x="1204" y="64" on="0"/>
        <pt x="1204" y="70" on="1"/>
        <pt x="1204" y="82" on="0"/>
        <pt x="1227" y="100" on="1"/>
        <pt x="1218" y="100" on="0"/>
        <pt x="1205" y="110" on="0"/>
        <pt x="1195" y="123" on="0"/>
        <pt x="1189" y="136" on="0"/>
        <pt x="1188" y="139" on="1"/>
        <pt x="1133" y="139" on="1"/>
        <pt x="1104" y="139" on="0"/>
        <pt x="1049" y="142" on="0"/>
        <pt x="1020" y="147" on="1"/>
        <pt x="1018" y="141" on="0"/>
        <pt x="1009" y="123" on="0"/>
        <pt x="995" y="107" on="0"/>
        <pt x="977" y="98" on="0"/>
        <pt x="965" y="100" on="1"/>
        <pt x="954" y="94" on="0"/>
        <pt x="939" y="85" on="0"/>
        <pt x="934" y="80" on="1"/>
        <pt x="976" y="54" on="0"/>
        <pt x="1063" y="-2" on="0"/>
        <pt x="1106" y="-37" on="1"/>
        <pt x="1123" y="-41" on="0"/>
        <pt x="1160" y="-45" on="0"/>
        <pt x="1198" y="-56" on="0"/>
        <pt x="1235" y="-80" on="0"/>
        <pt x="1253" y="-104" on="1"/>
        <pt x="1253" y="-112" on="0"/>
        <pt x="1248" y="-114" on="0"/>
        <pt x="1243" y="-119" on="1"/>
        <pt x="1231" y="-107" on="0"/>
        <pt x="1212" y="-92" on="0"/>
        <pt x="1191" y="-82" on="0"/>
        <pt x="1164" y="-75" on="0"/>
        <pt x="1143" y="-72" on="1"/>
        <pt x="1183" y="-97" on="0"/>
        <pt x="1198" y="-152" on="1"/>
        <pt x="1196" y="-157" on="0"/>
        <pt x="1190" y="-162" on="0"/>
        <pt x="1182" y="-160" on="1"/>
        <pt x="1162" y="-128" on="0"/>
        <pt x="1110" y="-71" on="0"/>
        <pt x="1073" y="-63" on="1"/>
        <pt x="1053" y="-60" on="0"/>
        <pt x="1032" y="-60" on="1"/>
        <pt x="984" y="-60" on="0"/>
        <pt x="930" y="-74" on="1"/>
        <pt x="924" y="-65" on="0"/>
        <pt x="924" y="-57" on="1"/>
        <pt x="948" y="-40" on="0"/>
        <pt x="1008" y="-35" on="0"/>
        <pt x="1040" y="-33" on="1"/>
        <pt x="1014" y="-11" on="0"/>
        <pt x="960" y="24" on="0"/>
        <pt x="915" y="53" on="0"/>
        <pt x="887" y="75" on="0"/>
        <pt x="887" y="84" on="1"/>
        <pt x="887" y="95" on="0"/>
        <pt x="901" y="102" on="0"/>
        <pt x="913" y="113" on="1"/>
        <pt x="899" y="127" on="0"/>
        <pt x="897" y="166" on="0"/>
        <pt x="899" y="178" on="1"/>
        <pt x="809" y="227" on="0"/>
        <pt x="671" y="350" on="0"/>
        <pt x="566" y="477" on="0"/>
        <pt x="489" y="598" on="0"/>
        <pt x="461" y="645" on="1"/>
        <pt x="406" y="663" on="0"/>
        <pt x="298" y="700" on="0"/>
        <pt x="199" y="739" on="0"/>
        <pt x="113" y="784" on="0"/>
        <pt x="80" y="811" on="1"/>
        <pt x="66" y="823" on="0"/>
        <pt x="72" y="856" on="0"/>
        <pt x="92" y="856" on="1"/>
        <pt x="616" y="811" on="1"/>
        <pt x="791" y="846" on="0"/>
        <pt x="1034" y="891" on="0"/>
        <pt x="1194" y="930" on="0"/>
        <pt x="1284" y="973" on="0"/>
        <pt x="1307" y="1006" on="1"/>
        <pt x="1338" y="1060" on="0"/>
        <pt x="1399" y="1136" on="0"/>
        <pt x="1466" y="1184" on="0"/>
        <pt x="1541" y="1206" on="0"/>
        <pt x="1585" y="1206" on="1"/>
        <pt x="1613" y="1206" on="0"/>
        <pt x="1661" y="1198" on="0"/>
        <pt x="1681" y="1192" on="1"/>
        <pt x="1681" y="1194" on="1"/>
        <pt x="1833" y="1247" on="1"/>
        <pt x="1835" y="1247" on="0"/>
        <pt x="1839" y="1246" on="0"/>
        <pt x="1839" y="1243" on="1"/>
        <pt x="1839" y="1241" on="1"/>
        <pt x="1788" y="1100" on="1"/>
        <pt x="1931" y="1106" on="1"/>
        <pt x="1938" y="1106" on="0"/>
        <pt x="1935" y="1100" on="1"/>
      </contour>
    </TTGlyph>
    <TTGlyph name="A" xMin="2" yMin="-10" xMax="1047" yMax="1434">
      <contour>
        <pt x="285" y="308" on="1"/>
        <pt x="229" y="139" on="1"/>
        <pt x="208" y="75" on="0"/>
        <pt x="104" y="-10" on="0"/>
        <pt x="39" y="-10" on="1"/>
        <pt x="23" y="-10" on="0"/>
        <pt x="2" y="7" on="0"/>
        <pt x="2" y="23" on="1"/>
        <pt x="2" y="29" on="0"/>
        <pt x="6" y="41" on="1"/>
        <pt x="102" y="316" on="1"/>
        <pt x="109" y="337" on="0"/>
        <pt x="125" y="360" on="0"/>
        <pt x="154" y="370" on="0"/>
        <pt x="177" y="372" on="0"/>
        <pt x="205" y="372" on="1"/>
        <pt x="228" y="372" on="0"/>
        <pt x="250" y="371" on="0"/>
        <pt x="279" y="365" on="0"/>
        <pt x="291" y="350" on="0"/>
        <pt x="291" y="337" on="1"/>
        <pt x="291" y="328" on="0"/>
      </contour>
      <contour>
        <pt x="614" y="1391" on="1"/>
        <pt x="1040" y="152" on="1"/>
        <pt x="1047" y="120" on="0"/>
        <pt x="1047" y="116" on="1"/>
        <pt x="1047" y="73" on="0"/>
        <pt x="947" y="-10" on="0"/>
        <pt x="909" y="-10" on="1"/>
        <pt x="876" y="-10" on="0"/>
        <pt x="858" y="41" on="1"/>
        <pt x="442" y="1255" on="1"/>
        <pt x="432" y="1300" on="0"/>
        <pt x="432" y="1303" on="1"/>
        <pt x="432" y="1347" on="0"/>
        <pt x="543" y="1434" on="0"/>
        <pt x="573" y="1434" on="1"/>
        <pt x="590" y="1434" on="0"/>
        <pt x="605" y="1417" on="0"/>
      </contour>
      <contour>
        <pt x="596" y="432" on="1"/>
        <pt x="190" y="432" on="1"/>
        <pt x="152" y="432" on="0"/>
        <pt x="152" y="465" on="1"/>
        <pt x="152" y="474" on="0"/>
        <pt x="156" y="485" on="1"/>
        <pt x="361" y="1098" on="1"/>
        <pt x="375" y="1137" on="0"/>
        <pt x="393" y="1137" on="1"/>
        <pt x="409" y="1137" on="0"/>
        <pt x="433" y="1098" on="0"/>
        <pt x="447" y="1055" on="1"/>
        <pt x="473" y="974" on="0"/>
        <pt x="473" y="934" on="1"/>
        <pt x="473" y="906" on="0"/>
        <pt x="463" y="875" on="1"/>
        <pt x="385" y="637" on="1"/>
        <pt x="383" y="632" on="0"/>
        <pt x="383" y="623" on="1"/>
        <pt x="383" y="596" on="0"/>
        <pt x="414" y="596" on="1"/>
        <pt x="518" y="596" on="1"/>
        <pt x="569" y="596" on="0"/>
        <pt x="605" y="586" on="0"/>
        <pt x="616" y="563" on="1"/>
        <pt x="626" y="543" on="0"/>
        <pt x="639" y="480" on="0"/>
        <pt x="639" y="465" on="1"/>
        <pt x="639" y="432" on="0"/>
      </contour>
    </TTGlyph>
    <TTGlyph name="AE" xMin="2" yMin="-10" xMax="1598" yMax="1403">
      <contour>
        <pt x="383" y="406" on="1"/>
        <pt x="250" y="139" on="1"/>
        <pt x="235" y="109" on="0"/>
        <pt x="187" y="54" on="0"/>
        <pt x="129" y="14" on="0"/>
        <pt x="65" y="-10" on="0"/>
        <pt x="33" y="-10" on="1"/>
        <pt x="2" y="-10" on="0"/>
        <pt x="2" y="18" on="1"/>
        <pt x="2" y="34" on="0"/>
        <pt x="15" y="59" on="1"/>
        <pt x="200" y="422" on="1"/>
        <pt x="209" y="439" on="0"/>
        <pt x="226" y="461" on="0"/>
        <pt x="250" y="473" on="0"/>
        <pt x="281" y="478" on="0"/>
        <pt x="303" y="478" on="1"/>
        <pt x="347" y="478" on="0"/>
        <pt x="393" y="467" on="0"/>
        <pt x="393" y="443" on="1"/>
        <pt x="393" y="425" on="0"/>
      </contour>
      <contour>
        <pt x="648" y="538" on="1"/>
        <pt x="288" y="538" on="1"/>
        <pt x="251" y="538" on="0"/>
        <pt x="251" y="568" on="1"/>
        <pt x="251" y="590" on="0"/>
        <pt x="266" y="618" on="1"/>
        <pt x="519" y="1137" on="1"/>
        <pt x="534" y="1171" on="0"/>
        <pt x="559" y="1171" on="1"/>
        <pt x="594" y="1171" on="0"/>
        <pt x="610" y="1090" on="1"/>
        <pt x="621" y="1033" on="0"/>
        <pt x="621" y="985" on="1"/>
        <pt x="621" y="953" on="0"/>
        <pt x="604" y="919" on="1"/>
        <pt x="515" y="743" on="1"/>
        <pt x="511" y="733" on="0"/>
        <pt x="511" y="728" on="1"/>
        <pt x="511" y="702" on="0"/>
        <pt x="544" y="702" on="1"/>
        <pt x="617" y="702" on="1"/>
        <pt x="644" y="702" on="0"/>
        <pt x="671" y="690" on="0"/>
        <pt x="677" y="669" on="1"/>
        <pt x="681" y="656" on="0"/>
        <pt x="691" y="583" on="0"/>
        <pt x="691" y="571" on="1"/>
        <pt x="691" y="538" on="0"/>
      </contour>
      <contour>
        <pt x="837" y="1403" on="1"/>
        <pt x="1376" y="1403" on="1"/>
        <pt x="1419" y="1403" on="0"/>
        <pt x="1419" y="1372" on="1"/>
        <pt x="1419" y="1358" on="0"/>
        <pt x="1379" y="1285" on="0"/>
        <pt x="1351" y="1260" on="1"/>
        <pt x="1328" y="1239" on="0"/>
        <pt x="1278" y="1239" on="1"/>
        <pt x="704" y="1239" on="1"/>
        <pt x="689" y="1239" on="0"/>
        <pt x="675" y="1242" on="0"/>
        <pt x="664" y="1256" on="0"/>
        <pt x="664" y="1269" on="1"/>
        <pt x="664" y="1306" on="0"/>
        <pt x="781" y="1403" on="0"/>
      </contour>
      <contour>
        <pt x="773" y="430" on="1"/>
        <pt x="773" y="459" on="0"/>
        <pt x="821" y="478" on="0"/>
        <pt x="869" y="478" on="1"/>
        <pt x="924" y="478" on="0"/>
        <pt x="972" y="455" on="0"/>
        <pt x="978" y="419" on="1"/>
        <pt x="1016" y="205" on="1"/>
        <pt x="1023" y="164" on="0"/>
        <pt x="1062" y="164" on="1"/>
        <pt x="1555" y="164" on="1"/>
        <pt x="1598" y="164" on="0"/>
        <pt x="1598" y="133" on="1"/>
        <pt x="1598" y="119" on="0"/>
        <pt x="1558" y="44" on="0"/>
        <pt x="1531" y="20" on="1"/>
        <pt x="1508" y="0" on="0"/>
        <pt x="1457" y="0" on="1"/>
        <pt x="886" y="0" on="1"/>
        <pt x="839" y="0" on="0"/>
        <pt x="830" y="59" on="1"/>
        <pt x="777" y="395" on="1"/>
        <pt x="773" y="419" on="0"/>
      </contour>
      <contour>
        <pt x="664" y="1130" on="1"/>
        <pt x="664" y="1159" on="0"/>
        <pt x="717" y="1179" on="0"/>
        <pt x="766" y="1179" on="1"/>
        <pt x="819" y="1179" on="0"/>
        <pt x="857" y="1156" on="0"/>
        <pt x="864" y="1119" on="1"/>
        <pt x="927" y="743" on="1"/>
        <pt x="934" y="702" on="0"/>
        <pt x="968" y="702" on="1"/>
        <pt x="1385" y="702" on="1"/>
        <pt x="1428" y="702" on="0"/>
        <pt x="1428" y="671" on="1"/>
        <pt x="1428" y="657" on="0"/>
        <pt x="1388" y="584" on="0"/>
        <pt x="1361" y="559" on="1"/>
        <pt x="1338" y="538" on="0"/>
        <pt x="1287" y="538" on="1"/>
        <pt x="816" y="538" on="1"/>
        <pt x="781" y="538" on="0"/>
        <pt x="756" y="566" on="0"/>
        <pt x="750" y="602" on="1"/>
        <pt x="670" y="1085" on="1"/>
        <pt x="669" y="1090" on="0"/>
        <pt x="666" y="1108" on="0"/>
        <pt x="664" y="1123" on="0"/>
      </contour>
    </TTGlyph>
    <TTGlyph name="Aacute" xMin="2" yMin="-10" xMax="1047" yMax="2019">
      <component glyphName="A" x="0" y="0" flags="0x204"/>
      <component glyphName="acute.case" x="240" y="0" flags="0x4"/>
    </TTGlyph>
    <TTGlyph name="Acircumflex" xMin="2" yMin="-10" xMax="1047" yMax="2016">
      <component glyphName="A" x="0" y="0" flags="0x204"/>
      <component glyphName="circumflex.case" x="81" y="0" flags="0x4"/>
    </TTGlyph>
    <TTGlyph name="Adieresis" xMin="2" yMin="-10" xMax="1047" yMax="2017">
      <component glyphName="A" x="0" y="0" flags="0x204"/>
      <component glyphName="dieresis.case" x="170" y="0" flags="0x4"/>
    </TTGlyph>
    <TTGlyph name="Agrave" xMin="2" yMin="-10" xMax="1047" yMax="2019">
      <component glyphName="A" x="0" y="0" flags="0x204"/>
      <component glyphName="grave.case" x="240" y="0" flags="0x4"/>
    </TTGlyph>
    <TTGlyph name="Aring" xMin="2" yMin="-10" xMax="1047" yMax="2060">
      <component glyphName="A" x="0" y="0" flags="0x204"/>
      <component glyphName="ring" x="217" y="410" flags="0x4"/>
    </TTGlyph>
    <TTGlyph name="Atilde" xMin="2" yMin="-10" xMax="1047" yMax="1965">
      <component glyphName="A" x="0" y="0" flags="0x204"/>
      <component glyphName="tilde.case" x="83" y="0" flags="0x4"/>
    </TTGlyph>
    <TTGlyph name="B" xMin="133" yMin="0" xMax="1063" yMax="1406">
      <contour>
        <pt x="379" y="1241" on="1"/>
        <pt x="172" y="1241" on="1"/>
        <pt x="159" y="1241" on="0"/>
        <pt x="144" y="1243" on="0"/>
        <pt x="133" y="1254" on="0"/>
        <pt x="133" y="1264" on="1"/>
        <pt x="133" y="1306" on="0"/>
        <pt x="247" y="1400" on="0"/>
        <pt x="305" y="1403" on="1"/>
        <pt x="370" y="1406" on="0"/>
        <pt x="473" y="1406" on="1"/>
        <pt x="515" y="1406" on="0"/>
        <pt x="584" y="1402" on="0"/>
        <pt x="681" y="1386" on="0"/>
        <pt x="755" y="1358" on="0"/>
        <pt x="834" y="1304" on="0"/>
        <pt x="886" y="1231" on="0"/>
        <pt x="920" y="1120" on="0"/>
        <pt x="920" y="1051" on="1"/>
        <pt x="920" y="903" on="0"/>
        <pt x="799" y="807" on="1"/>
        <pt x="782" y="794" on="0"/>
        <pt x="782" y="784" on="1"/>
        <pt x="782" y="771" on="0"/>
        <pt x="797" y="766" on="1"/>
        <pt x="931" y="722" on="0"/>
        <pt x="1063" y="548" on="0"/>
        <pt x="1063" y="399" on="1"/>
        <pt x="1063" y="344" on="0"/>
        <pt x="1032" y="235" on="0"/>
        <pt x="963" y="130" on="0"/>
        <pt x="864" y="49" on="0"/>
        <pt x="716" y="0" on="0"/>
        <pt x="627" y="0" on="1"/>
        <pt x="592" y="0" on="0"/>
        <pt x="592" y="19" on="1"/>
        <pt x="592" y="32" on="0"/>
        <pt x="608" y="40" on="1"/>
        <pt x="732" y="95" on="0"/>
        <pt x="850" y="267" on="0"/>
        <pt x="850" y="395" on="1"/>
        <pt x="850" y="650" on="0"/>
        <pt x="600" y="690" on="1"/>
        <pt x="584" y="693" on="0"/>
        <pt x="584" y="707" on="1"/>
        <pt x="584" y="720" on="0"/>
        <pt x="608" y="737" on="1"/>
        <pt x="661" y="776" on="0"/>
        <pt x="727" y="901" on="0"/>
        <pt x="727" y="977" on="1"/>
        <pt x="727" y="1045" on="0"/>
        <pt x="688" y="1144" on="0"/>
        <pt x="627" y="1199" on="0"/>
        <pt x="530" y="1232" on="0"/>
        <pt x="440" y="1241" on="0"/>
      </contour>
      <contour>
        <pt x="133" y="43" on="1"/>
        <pt x="133" y="1121" on="1"/>
        <pt x="133" y="1157" on="0"/>
        <pt x="182" y="1181" on="0"/>
        <pt x="233" y="1181" on="1"/>
        <pt x="289" y="1181" on="0"/>
        <pt x="334" y="1158" on="0"/>
        <pt x="334" y="1121" on="1"/>
        <pt x="334" y="885" on="1"/>
        <pt x="334" y="844" on="0"/>
        <pt x="375" y="844" on="1"/>
        <pt x="551" y="844" on="1"/>
        <pt x="594" y="844" on="0"/>
        <pt x="594" y="817" on="1"/>
        <pt x="594" y="805" on="0"/>
        <pt x="550" y="751" on="0"/>
        <pt x="518" y="733" on="1"/>
        <pt x="483" y="713" on="0"/>
        <pt x="375" y="694" on="1"/>
        <pt x="334" y="686" on="0"/>
        <pt x="334" y="641" on="1"/>
        <pt x="334" y="205" on="1"/>
        <pt x="334" y="164" on="0"/>
        <pt x="375" y="164" on="1"/>
        <pt x="590" y="164" on="1"/>
        <pt x="633" y="164" on="0"/>
        <pt x="633" y="139" on="1"/>
        <pt x="633" y="118" on="0"/>
        <pt x="537" y="52" on="0"/>
        <pt x="390" y="0" on="0"/>
        <pt x="329" y="0" on="1"/>
        <pt x="174" y="0" on="1"/>
        <pt x="133" y="0" on="0"/>
      </contour>
    </TTGlyph>
    <TTGlyph name="C" xMin="102" yMin="-31" xMax="1034" yMax="1434">
      <contour>
        <pt x="356" y="1051" on="1"/>
        <pt x="356" y="1036" on="0"/>
        <pt x="334" y="934" on="0"/>
        <pt x="311" y="766" on="0"/>
        <pt x="311" y="672" on="1"/>
        <pt x="311" y="599" on="0"/>
        <pt x="323" y="478" on="0"/>
        <pt x="352" y="351" on="0"/>
        <pt x="407" y="255" on="0"/>
        <pt x="487" y="178" on="0"/>
        <pt x="607" y="137" on="0"/>
        <pt x="684" y="137" on="1"/>
        <pt x="755" y="137" on="0"/>
        <pt x="879" y="169" on="0"/>
        <pt x="944" y="208" on="0"/>
        <pt x="999" y="240" on="0"/>
        <pt x="1010" y="240" on="1"/>
        <pt x="1034" y="240" on="0"/>
        <pt x="1034" y="215" on="1"/>
        <pt x="1034" y="200" on="0"/>
        <pt x="1009" y="146" on="0"/>
        <pt x="945" y="74" on="0"/>
        <pt x="854" y="12" on="0"/>
        <pt x="700" y="-31" on="0"/>
        <pt x="608" y="-31" on="1"/>
        <pt x="462" y="-31" on="0"/>
        <pt x="262" y="57" on="0"/>
        <pt x="149" y="233" on="0"/>
        <pt x="102" y="463" on="0"/>
        <pt x="102" y="623" on="1"/>
        <pt x="102" y="736" on="0"/>
        <pt x="130" y="918" on="0"/>
        <pt x="150" y="957" on="1"/>
        <pt x="175" y="1007" on="0"/>
        <pt x="282" y="1082" on="0"/>
        <pt x="326" y="1082" on="1"/>
        <pt x="356" y="1082" on="0"/>
      </contour>
      <contour>
        <pt x="1014" y="1315" on="1"/>
        <pt x="1014" y="1274" on="0"/>
        <pt x="940" y="1221" on="1"/>
        <pt x="910" y="1196" on="0"/>
        <pt x="872" y="1196" on="1"/>
        <pt x="863" y="1196" on="0"/>
        <pt x="847" y="1199" on="0"/>
        <pt x="827" y="1206" on="0"/>
        <pt x="815" y="1210" on="0"/>
        <pt x="788" y="1222" on="0"/>
        <pt x="782" y="1225" on="1"/>
        <pt x="676" y="1270" on="0"/>
        <pt x="586" y="1270" on="1"/>
        <pt x="406" y="1270" on="0"/>
        <pt x="236" y="1120" on="1"/>
        <pt x="231" y="1116" on="0"/>
        <pt x="211" y="1100" on="0"/>
        <pt x="200" y="1091" on="0"/>
        <pt x="185" y="1080" on="0"/>
        <pt x="174" y="1075" on="0"/>
        <pt x="170" y="1075" on="1"/>
        <pt x="147" y="1075" on="0"/>
        <pt x="147" y="1100" on="1"/>
        <pt x="147" y="1132" on="0"/>
        <pt x="201" y="1200" on="1"/>
        <pt x="293" y="1314" on="0"/>
        <pt x="534" y="1434" on="0"/>
        <pt x="707" y="1434" on="1"/>
        <pt x="840" y="1434" on="0"/>
        <pt x="950" y="1380" on="1"/>
        <pt x="969" y="1371" on="0"/>
        <pt x="986" y="1362" on="0"/>
        <pt x="1014" y="1332" on="0"/>
      </contour>
    </TTGlyph>
    <TTGlyph name="Ccedilla" xMin="102" yMin="-555" xMax="1034" yMax="1434">
      <contour>
        <pt x="612" y="-117" on="1"/>
        <pt x="679" y="-117" on="0"/>
        <pt x="762" y="-189" on="0"/>
        <pt x="762" y="-261" on="1"/>
        <pt x="762" y="-297" on="0"/>
        <pt x="738" y="-359" on="0"/>
        <pt x="696" y="-412" on="0"/>
        <pt x="639" y="-457" on="0"/>
        <pt x="607" y="-475" on="1"/>
        <pt x="589" y="-485" on="0"/>
        <pt x="533" y="-513" on="0"/>
        <pt x="470" y="-538" on="0"/>
        <pt x="409" y="-555" on="0"/>
        <pt x="388" y="-555" on="1"/>
        <pt x="374" y="-555" on="0"/>
        <pt x="344" y="-533" on="0"/>
        <pt x="344" y="-501" on="1"/>
        <pt x="344" y="-489" on="0"/>
        <pt x="352" y="-472" on="0"/>
        <pt x="364" y="-462" on="0"/>
        <pt x="377" y="-457" on="0"/>
        <pt x="382" y="-455" on="1"/>
        <pt x="425" y="-443" on="0"/>
        <pt x="499" y="-407" on="0"/>
        <pt x="554" y="-364" on="0"/>
        <pt x="586" y="-315" on="0"/>
        <pt x="586" y="-289" on="1"/>
        <pt x="586" y="-267" on="0"/>
        <pt x="571" y="-239" on="0"/>
        <pt x="548" y="-223" on="0"/>
        <pt x="519" y="-218" on="0"/>
        <pt x="506" y="-218" on="1"/>
        <pt x="470" y="-218" on="0"/>
        <pt x="417" y="-234" on="0"/>
        <pt x="391" y="-234" on="1"/>
        <pt x="351" y="-234" on="0"/>
        <pt x="351" y="-196" on="1"/>
        <pt x="351" y="-188" on="0"/>
        <pt x="358" y="-154" on="0"/>
        <pt x="360" y="-146" on="1"/>
        <pt x="386" y="-51" on="1"/>
        <pt x="388" y="-42" on="0"/>
        <pt x="391" y="-28" on="0"/>
        <pt x="391" y="-22" on="1"/>
        <pt x="391" y="0" on="0"/>
        <pt x="365" y="12" on="1"/>
        <pt x="290" y="45" on="0"/>
        <pt x="190" y="158" on="0"/>
        <pt x="128" y="313" on="0"/>
        <pt x="102" y="508" on="0"/>
        <pt x="102" y="623" on="1"/>
        <pt x="102" y="683" on="0"/>
        <pt x="110" y="788" on="0"/>
        <pt x="123" y="874" on="0"/>
        <pt x="141" y="939" on="0"/>
        <pt x="150" y="957" on="1"/>
        <pt x="163" y="982" on="0"/>
        <pt x="205" y="1028" on="0"/>
        <pt x="253" y="1062" on="0"/>
        <pt x="304" y="1082" on="0"/>
        <pt x="326" y="1082" on="1"/>
        <pt x="330" y="1082" on="0"/>
        <pt x="340" y="1080" on="0"/>
        <pt x="349" y="1074" on="0"/>
        <pt x="356" y="1062" on="0"/>
        <pt x="356" y="1051" on="1"/>
        <pt x="356" y="1033" on="0"/>
        <pt x="342" y="971" on="0"/>
        <pt x="325" y="878" on="0"/>
        <pt x="311" y="753" on="0"/>
        <pt x="311" y="672" on="1"/>
        <pt x="311" y="605" on="0"/>
        <pt x="323" y="473" on="0"/>
        <pt x="353" y="354" on="0"/>
        <pt x="406" y="253" on="0"/>
        <pt x="489" y="179" on="0"/>
        <pt x="605" y="137" on="0"/>
        <pt x="684" y="137" on="1"/>
        <pt x="762" y="137" on="0"/>
        <pt x="873" y="169" on="0"/>
        <pt x="949" y="208" on="0"/>
        <pt x="995" y="240" on="0"/>
        <pt x="1010" y="240" on="1"/>
        <pt x="1034" y="240" on="0"/>
        <pt x="1034" y="215" on="1"/>
        <pt x="1034" y="204" on="0"/>
        <pt x="1016" y="159" on="0"/>
        <pt x="976" y="105" on="0"/>
        <pt x="911" y="47" on="0"/>
        <pt x="816" y="-1" on="0"/>
        <pt x="689" y="-31" on="0"/>
        <pt x="608" y="-31" on="1"/>
        <pt x="588" y="-31" on="0"/>
        <pt x="555" y="-28" on="0"/>
        <pt x="537" y="-28" on="1"/>
        <pt x="526" y="-28" on="0"/>
        <pt x="507" y="-37" on="0"/>
        <pt x="499" y="-55" on="1"/>
        <pt x="493" y="-68" on="0"/>
        <pt x="484" y="-94" on="0"/>
        <pt x="484" y="-99" on="1"/>
        <pt x="484" y="-111" on="0"/>
        <pt x="498" y="-125" on="0"/>
        <pt x="516" y="-125" on="1"/>
        <pt x="539" y="-125" on="0"/>
        <pt x="586" y="-117" on="0"/>
      </contour>
      <contour>
        <pt x="1014" y="1315" on="1"/>
        <pt x="1014" y="1303" on="0"/>
        <pt x="1000" y="1276" on="0"/>
        <pt x="978" y="1251" on="0"/>
        <pt x="952" y="1229" on="0"/>
        <pt x="940" y="1221" on="1"/>
        <pt x="926" y="1210" on="0"/>
        <pt x="892" y="1196" on="0"/>
        <pt x="872" y="1196" on="1"/>
        <pt x="849" y="1196" on="0"/>
        <pt x="808" y="1214" on="0"/>
        <pt x="782" y="1225" on="1"/>
        <pt x="747" y="1240" on="0"/>
        <pt x="654" y="1270" on="0"/>
        <pt x="586" y="1270" on="1"/>
        <pt x="481" y="1270" on="0"/>
        <pt x="311" y="1186" on="0"/>
        <pt x="236" y="1120" on="1"/>
        <pt x="217" y="1105" on="0"/>
        <pt x="181" y="1075" on="0"/>
        <pt x="170" y="1075" on="1"/>
        <pt x="161" y="1075" on="0"/>
        <pt x="147" y="1084" on="0"/>
        <pt x="147" y="1100" on="1"/>
        <pt x="147" y="1109" on="0"/>
        <pt x="159" y="1136" on="0"/>
        <pt x="175" y="1164" on="0"/>
        <pt x="194" y="1191" on="0"/>
        <pt x="201" y="1200" on="1"/>
        <pt x="244" y="1253" on="0"/>
        <pt x="344" y="1339" on="0"/>
        <pt x="467" y="1401" on="0"/>
        <pt x="615" y="1434" on="0"/>
        <pt x="707" y="1434" on="1"/>
        <pt x="740" y="1434" on="0"/>
        <pt x="808" y="1425" on="0"/>
        <pt x="871" y="1410" on="0"/>
        <pt x="928" y="1391" on="0"/>
        <pt x="950" y="1380" on="1"/>
        <pt x="958" y="1376" on="0"/>
        <pt x="980" y="1365" on="0"/>
        <pt x="1000" y="1350" on="0"/>
        <pt x="1014" y="1329" on="0"/>
      </contour>
    </TTGlyph>
    <TTGlyph name="D" xMin="133" yMin="0" xMax="1139" yMax="1405">
      <contour>
        <pt x="334" y="1240" on="1"/>
        <pt x="172" y="1240" on="1"/>
        <pt x="133" y="1240" on="0"/>
        <pt x="133" y="1264" on="1"/>
        <pt x="133" y="1286" on="0"/>
        <pt x="165" y="1333" on="0"/>
        <pt x="216" y="1373" on="0"/>
        <pt x="279" y="1401" on="0"/>
        <pt x="309" y="1403" on="1"/>
        <pt x="389" y="1405" on="1"/>
        <pt x="548" y="1405" on="0"/>
        <pt x="822" y="1326" on="0"/>
        <pt x="1024" y="1154" on="0"/>
        <pt x="1139" y="884" on="0"/>
        <pt x="1139" y="692" on="1"/>
        <pt x="1139" y="601" on="0"/>
        <pt x="1102" y="427" on="0"/>
        <pt x="1032" y="273" on="0"/>
        <pt x="933" y="145" on="0"/>
        <pt x="811" y="52" on="0"/>
        <pt x="667" y="0" on="0"/>
        <pt x="588" y="0" on="1"/>
        <pt x="553" y="0" on="0"/>
        <pt x="553" y="23" on="1"/>
        <pt x="553" y="41" on="0"/>
        <pt x="575" y="51" on="1"/>
        <pt x="660" y="90" on="0"/>
        <pt x="792" y="194" on="0"/>
        <pt x="883" y="339" on="0"/>
        <pt x="930" y="533" on="0"/>
        <pt x="930" y="662" on="1"/>
        <pt x="930" y="790" on="0"/>
        <pt x="869" y="1000" on="0"/>
        <pt x="729" y="1152" on="0"/>
        <pt x="501" y="1237" on="0"/>
      </contour>
      <contour>
        <pt x="133" y="43" on="1"/>
        <pt x="133" y="1120" on="1"/>
        <pt x="133" y="1156" on="0"/>
        <pt x="182" y="1180" on="0"/>
        <pt x="233" y="1180" on="1"/>
        <pt x="289" y="1180" on="0"/>
        <pt x="334" y="1157" on="0"/>
        <pt x="334" y="1120" on="1"/>
        <pt x="334" y="205" on="1"/>
        <pt x="334" y="164" on="0"/>
        <pt x="375" y="164" on="1"/>
        <pt x="541" y="164" on="1"/>
        <pt x="584" y="164" on="0"/>
        <pt x="584" y="139" on="1"/>
        <pt x="584" y="124" on="0"/>
        <pt x="523" y="76" on="0"/>
        <pt x="433" y="32" on="0"/>
        <pt x="319" y="0" on="0"/>
        <pt x="272" y="0" on="1"/>
        <pt x="174" y="0" on="1"/>
        <pt x="133" y="0" on="0"/>
      </contour>
    </TTGlyph>
    <TTGlyph name="E" xMin="133" yMin="0" xMax="908" yMax="1403">
      <contour>
        <pt x="306" y="1403" on="1"/>
        <pt x="845" y="1403" on="1"/>
        <pt x="888" y="1403" on="0"/>
        <pt x="888" y="1372" on="1"/>
        <pt x="888" y="1358" on="0"/>
        <pt x="848" y="1285" on="0"/>
        <pt x="820" y="1260" on="1"/>
        <pt x="797" y="1239" on="0"/>
        <pt x="747" y="1239" on="1"/>
        <pt x="173" y="1239" on="1"/>
        <pt x="158" y="1239" on="0"/>
        <pt x="144" y="1242" on="0"/>
        <pt x="133" y="1256" on="0"/>
        <pt x="133" y="1269" on="1"/>
        <pt x="133" y="1306" on="0"/>
        <pt x="250" y="1403" on="0"/>
      </contour>
      <contour>
        <pt x="134" y="43" on="1"/>
        <pt x="134" y="536" on="1"/>
        <pt x="134" y="572" on="0"/>
        <pt x="183" y="595" on="0"/>
        <pt x="235" y="595" on="1"/>
        <pt x="291" y="595" on="0"/>
        <pt x="335" y="572" on="0"/>
        <pt x="335" y="536" on="1"/>
        <pt x="335" y="205" on="1"/>
        <pt x="335" y="164" on="0"/>
        <pt x="376" y="164" on="1"/>
        <pt x="865" y="164" on="1"/>
        <pt x="908" y="164" on="0"/>
        <pt x="908" y="133" on="1"/>
        <pt x="908" y="119" on="0"/>
        <pt x="868" y="44" on="0"/>
        <pt x="841" y="20" on="1"/>
        <pt x="818" y="0" on="0"/>
        <pt x="767" y="0" on="1"/>
        <pt x="169" y="0" on="1"/>
        <pt x="134" y="0" on="0"/>
      </contour>
      <contour>
        <pt x="134" y="696" on="1"/>
        <pt x="134" y="1119" on="1"/>
        <pt x="134" y="1155" on="0"/>
        <pt x="183" y="1179" on="0"/>
        <pt x="235" y="1179" on="1"/>
        <pt x="291" y="1179" on="0"/>
        <pt x="335" y="1156" on="0"/>
        <pt x="335" y="1119" on="1"/>
        <pt x="335" y="860" on="1"/>
        <pt x="335" y="819" on="0"/>
        <pt x="376" y="819" on="1"/>
        <pt x="783" y="819" on="1"/>
        <pt x="826" y="819" on="0"/>
        <pt x="826" y="788" on="1"/>
        <pt x="826" y="774" on="0"/>
        <pt x="786" y="701" on="0"/>
        <pt x="759" y="676" on="1"/>
        <pt x="736" y="655" on="0"/>
        <pt x="685" y="655" on="1"/>
        <pt x="175" y="655" on="1"/>
        <pt x="134" y="655" on="0"/>
      </contour>
    </TTGlyph>
    <TTGlyph name="Eacute" xMin="133" yMin="0" xMax="908" yMax="2019">
      <component glyphName="E" x="0" y="0" flags="0x204"/>
      <component glyphName="acute.case" x="206" y="0" flags="0x4"/>
    </TTGlyph>
    <TTGlyph name="Ecircumflex" xMin="133" yMin="0" xMax="914" yMax="2016">
      <component glyphName="E" x="6" y="0" flags="0x4"/>
      <component glyphName="circumflex.case" x="53" y="0" flags="0x4"/>
    </TTGlyph>
    <TTGlyph name="Edieresis" xMin="133" yMin="0" xMax="908" yMax="2017">
      <component glyphName="E" x="0" y="0" flags="0x204"/>
      <component glyphName="dieresis.case" x="136" y="0" flags="0x4"/>
    </TTGlyph>
    <TTGlyph name="Egrave" xMin="133" yMin="0" xMax="908" yMax="2019">
      <component glyphName="E" x="0" y="0" flags="0x204"/>
      <component glyphName="grave.case" x="206" y="0" flags="0x4"/>
    </TTGlyph>
    <TTGlyph name="Eth" xMin="133" yMin="0" xMax="1383" yMax="1405">
      <contour>
        <pt x="578" y="1240" on="1"/>
        <pt x="416" y="1240" on="1"/>
        <pt x="377" y="1240" on="0"/>
        <pt x="377" y="1264" on="1"/>
        <pt x="377" y="1285" on="0"/>
        <pt x="409" y="1333" on="0"/>
        <pt x="460" y="1373" on="0"/>
        <pt x="523" y="1401" on="0"/>
        <pt x="567" y="1404" on="0"/>
        <pt x="607" y="1405" on="0"/>
        <pt x="633" y="1405" on="1"/>
        <pt x="792" y="1405" on="0"/>
        <pt x="1066" y="1326" on="0"/>
        <pt x="1268" y="1154" on="0"/>
        <pt x="1383" y="884" on="0"/>
        <pt x="1383" y="692" on="1"/>
        <pt x="1383" y="600" on="0"/>
        <pt x="1346" y="427" on="0"/>
        <pt x="1278" y="273" on="0"/>
        <pt x="1180" y="144" on="0"/>
        <pt x="1059" y="52" on="0"/>
        <pt x="917" y="0" on="0"/>
        <pt x="838" y="0" on="1"/>
        <pt x="803" y="0" on="0"/>
        <pt x="803" y="23" on="1"/>
        <pt x="803" y="41" on="0"/>
        <pt x="825" y="51" on="1"/>
        <pt x="910" y="90" on="0"/>
        <pt x="1040" y="194" on="0"/>
        <pt x="1128" y="339" on="0"/>
        <pt x="1174" y="533" on="0"/>
        <pt x="1174" y="662" on="1"/>
        <pt x="1174" y="790" on="0"/>
        <pt x="1113" y="1000" on="0"/>
        <pt x="973" y="1152" on="0"/>
        <pt x="745" y="1237" on="0"/>
      </contour>
      <contour>
        <pt x="377" y="43" on="1"/>
        <pt x="377" y="497" on="1"/>
        <pt x="377" y="533" on="0"/>
        <pt x="427" y="559" on="0"/>
        <pt x="477" y="559" on="1"/>
        <pt x="532" y="559" on="0"/>
        <pt x="578" y="534" on="0"/>
        <pt x="578" y="497" on="1"/>
        <pt x="578" y="205" on="1"/>
        <pt x="578" y="164" on="0"/>
        <pt x="619" y="164" on="1"/>
        <pt x="785" y="164" on="1"/>
        <pt x="828" y="164" on="0"/>
        <pt x="828" y="139" on="1"/>
        <pt x="828" y="123" on="0"/>
        <pt x="778" y="77" on="0"/>
        <pt x="698" y="32" on="0"/>
        <pt x="577" y="0" on="0"/>
        <pt x="516" y="0" on="1"/>
        <pt x="412" y="0" on="1"/>
        <pt x="377" y="0" on="0"/>
      </contour>
      <contour>
        <pt x="377" y="804" on="1"/>
        <pt x="377" y="1120" on="1"/>
        <pt x="377" y="1156" on="0"/>
        <pt x="426" y="1180" on="0"/>
        <pt x="477" y="1180" on="1"/>
        <pt x="533" y="1180" on="0"/>
        <pt x="578" y="1157" on="0"/>
        <pt x="578" y="1120" on="1"/>
        <pt x="578" y="804" on="1"/>
        <pt x="578" y="763" on="0"/>
        <pt x="619" y="763" on="1"/>
        <pt x="807" y="763" on="1"/>
        <pt x="850" y="763" on="0"/>
        <pt x="850" y="732" on="1"/>
        <pt x="850" y="721" on="0"/>
        <pt x="811" y="666" on="0"/>
        <pt x="782" y="640" on="1"/>
        <pt x="759" y="619" on="0"/>
        <pt x="708" y="619" on="1"/>
        <pt x="176" y="619" on="1"/>
        <pt x="133" y="619" on="0"/>
        <pt x="133" y="650" on="1"/>
        <pt x="133" y="662" on="0"/>
        <pt x="171" y="717" on="0"/>
        <pt x="200" y="743" on="1"/>
        <pt x="223" y="763" on="0"/>
        <pt x="274" y="763" on="1"/>
        <pt x="336" y="763" on="1"/>
        <pt x="377" y="763" on="0"/>
      </contour>
    </TTGlyph>
    <TTGlyph name="Euro" xMin="45" yMin="-31" xMax="1246" yMax="1434">
      <contour>
        <pt x="299" y="309" on="1"/>
        <pt x="299" y="372" on="0"/>
        <pt x="415" y="372" on="1"/>
        <pt x="463" y="369" on="0"/>
        <pt x="509" y="354" on="0"/>
        <pt x="523" y="335" on="1"/>
        <pt x="626" y="137" on="0"/>
        <pt x="846" y="137" on="1"/>
        <pt x="925" y="137" on="0"/>
        <pt x="1050" y="169" on="0"/>
        <pt x="1144" y="208" on="0"/>
        <pt x="1207" y="240" on="0"/>
        <pt x="1222" y="240" on="1"/>
        <pt x="1246" y="240" on="0"/>
        <pt x="1246" y="215" on="1"/>
        <pt x="1246" y="206" on="0"/>
        <pt x="1222" y="163" on="0"/>
        <pt x="1173" y="109" on="0"/>
        <pt x="1096" y="50" on="0"/>
        <pt x="990" y="1" on="0"/>
        <pt x="854" y="-31" on="0"/>
        <pt x="770" y="-31" on="1"/>
        <pt x="575" y="-31" on="0"/>
        <pt x="348" y="125" on="0"/>
        <pt x="303" y="280" on="1"/>
        <pt x="299" y="295" on="0"/>
      </contour>
      <contour>
        <pt x="1226" y="1315" on="1"/>
        <pt x="1226" y="1296" on="0"/>
        <pt x="1199" y="1254" on="0"/>
        <pt x="1158" y="1218" on="0"/>
        <pt x="1115" y="1196" on="0"/>
        <pt x="1092" y="1196" on="1"/>
        <pt x="1058" y="1196" on="0"/>
        <pt x="941" y="1246" on="0"/>
        <pt x="817" y="1270" on="0"/>
        <pt x="758" y="1270" on="1"/>
        <pt x="576" y="1270" on="0"/>
        <pt x="398" y="1120" on="1"/>
        <pt x="344" y="1075" on="0"/>
        <pt x="332" y="1075" on="1"/>
        <pt x="309" y="1075" on="0"/>
        <pt x="309" y="1100" on="1"/>
        <pt x="309" y="1132" on="0"/>
        <pt x="363" y="1200" on="1"/>
        <pt x="552" y="1434" on="0"/>
        <pt x="879" y="1434" on="1"/>
        <pt x="910" y="1434" on="0"/>
        <pt x="992" y="1424" on="0"/>
        <pt x="1072" y="1409" on="0"/>
        <pt x="1142" y="1389" on="0"/>
        <pt x="1162" y="1380" on="1"/>
        <pt x="1168" y="1377" on="0"/>
        <pt x="1190" y="1367" on="0"/>
        <pt x="1211" y="1352" on="0"/>
        <pt x="1226" y="1330" on="0"/>
      </contour>
      <contour>
        <pt x="899" y="770" on="1"/>
        <pt x="335" y="770" on="1"/>
        <pt x="278" y="770" on="0"/>
        <pt x="278" y="816" on="1"/>
        <pt x="278" y="839" on="0"/>
        <pt x="286" y="883" on="0"/>
        <pt x="296" y="921" on="0"/>
        <pt x="308" y="949" on="0"/>
        <pt x="312" y="957" on="1"/>
        <pt x="324" y="981" on="0"/>
        <pt x="366" y="1027" on="0"/>
        <pt x="416" y="1061" on="0"/>
        <pt x="467" y="1082" on="0"/>
        <pt x="488" y="1082" on="1"/>
        <pt x="518" y="1082" on="0"/>
        <pt x="518" y="1051" on="1"/>
        <pt x="518" y="1045" on="0"/>
        <pt x="513" y="1017" on="0"/>
        <pt x="506" y="984" on="0"/>
        <pt x="501" y="953" on="0"/>
        <pt x="501" y="943" on="1"/>
        <pt x="501" y="921" on="0"/>
        <pt x="523" y="901" on="0"/>
        <pt x="555" y="901" on="1"/>
        <pt x="998" y="901" on="1"/>
        <pt x="1041" y="901" on="0"/>
        <pt x="1041" y="870" on="1"/>
        <pt x="1041" y="868" on="0"/>
        <pt x="1026" y="836" on="0"/>
        <pt x="993" y="800" on="0"/>
        <pt x="939" y="770" on="0"/>
      </contour>
      <contour>
        <pt x="341" y="430" on="1"/>
        <pt x="308" y="430" on="0"/>
        <pt x="276" y="458" on="0"/>
        <pt x="264" y="511" on="0"/>
        <pt x="264" y="585" on="0"/>
        <pt x="264" y="631" on="1"/>
        <pt x="264" y="646" on="0"/>
        <pt x="275" y="673" on="0"/>
        <pt x="299" y="694" on="0"/>
        <pt x="340" y="706" on="0"/>
        <pt x="370" y="706" on="1"/>
        <pt x="474" y="706" on="0"/>
        <pt x="474" y="634" on="1"/>
        <pt x="474" y="615" on="0"/>
        <pt x="478" y="588" on="0"/>
        <pt x="492" y="570" on="0"/>
        <pt x="520" y="561" on="0"/>
        <pt x="544" y="561" on="1"/>
        <pt x="798" y="561" on="1"/>
        <pt x="841" y="561" on="0"/>
        <pt x="841" y="530" on="1"/>
        <pt x="841" y="528" on="0"/>
        <pt x="826" y="496" on="0"/>
        <pt x="793" y="460" on="0"/>
        <pt x="739" y="430" on="0"/>
        <pt x="699" y="430" on="1"/>
      </contour>
      <contour>
        <pt x="183" y="901" on="1"/>
        <pt x="222" y="901" on="0"/>
        <pt x="222" y="858" on="1"/>
        <pt x="222" y="770" on="0"/>
        <pt x="146" y="770" on="1"/>
        <pt x="88" y="770" on="1"/>
        <pt x="45" y="770" on="0"/>
        <pt x="45" y="800" on="1"/>
        <pt x="45" y="806" on="0"/>
        <pt x="60" y="834" on="0"/>
        <pt x="93" y="871" on="0"/>
        <pt x="145" y="901" on="0"/>
      </contour>
      <contour>
        <pt x="208" y="506" on="1"/>
        <pt x="208" y="466" on="0"/>
        <pt x="182" y="430" on="0"/>
        <pt x="151" y="430" on="1"/>
        <pt x="88" y="430" on="1"/>
        <pt x="45" y="430" on="0"/>
        <pt x="45" y="461" on="1"/>
        <pt x="45" y="461" on="0"/>
        <pt x="61" y="492" on="0"/>
        <pt x="90" y="529" on="0"/>
        <pt x="132" y="560" on="0"/>
        <pt x="158" y="560" on="1"/>
        <pt x="187" y="560" on="0"/>
        <pt x="208" y="540" on="0"/>
      </contour>
    </TTGlyph>
    <TTGlyph name="F" xMin="133" yMin="-10" xMax="908" yMax="1403">
      <contour>
        <pt x="306" y="1403" on="1"/>
        <pt x="865" y="1403" on="1"/>
        <pt x="908" y="1403" on="0"/>
        <pt x="908" y="1372" on="1"/>
        <pt x="908" y="1358" on="0"/>
        <pt x="868" y="1284" on="0"/>
        <pt x="841" y="1260" on="1"/>
        <pt x="818" y="1239" on="0"/>
        <pt x="767" y="1239" on="1"/>
        <pt x="173" y="1239" on="1"/>
        <pt x="158" y="1239" on="0"/>
        <pt x="144" y="1242" on="0"/>
        <pt x="133" y="1256" on="0"/>
        <pt x="133" y="1269" on="1"/>
        <pt x="133" y="1306" on="0"/>
        <pt x="250" y="1403" on="0"/>
      </contour>
      <contour>
        <pt x="134" y="33" on="1"/>
        <pt x="134" y="515" on="1"/>
        <pt x="134" y="551" on="0"/>
        <pt x="183" y="575" on="0"/>
        <pt x="235" y="575" on="1"/>
        <pt x="290" y="575" on="0"/>
        <pt x="335" y="551" on="0"/>
        <pt x="335" y="515" on="1"/>
        <pt x="335" y="139" on="1"/>
        <pt x="335" y="90" on="0"/>
        <pt x="314" y="66" on="1"/>
        <pt x="289" y="36" on="0"/>
        <pt x="198" y="-10" on="0"/>
        <pt x="169" y="-10" on="1"/>
        <pt x="134" y="-10" on="0"/>
      </contour>
      <contour>
        <pt x="134" y="676" on="1"/>
        <pt x="134" y="1119" on="1"/>
        <pt x="134" y="1155" on="0"/>
        <pt x="183" y="1179" on="0"/>
        <pt x="235" y="1179" on="1"/>
        <pt x="291" y="1179" on="0"/>
        <pt x="335" y="1156" on="0"/>
        <pt x="335" y="1119" on="1"/>
        <pt x="335" y="840" on="1"/>
        <pt x="335" y="799" on="0"/>
        <pt x="376" y="799" on="1"/>
        <pt x="783" y="799" on="1"/>
        <pt x="826" y="799" on="0"/>
        <pt x="826" y="768" on="1"/>
        <pt x="826" y="754" on="0"/>
        <pt x="786" y="679" on="0"/>
        <pt x="759" y="655" on="1"/>
        <pt x="736" y="635" on="0"/>
        <pt x="685" y="635" on="1"/>
        <pt x="175" y="635" on="1"/>
        <pt x="134" y="635" on="0"/>
      </contour>
    </TTGlyph>
    <TTGlyph name="G" xMin="102" yMin="-31" xMax="1182" yMax="1434">
      <contour>
        <pt x="350" y="1042" on="1"/>
        <pt x="350" y="1032" on="0"/>
        <pt x="330" y="921" on="0"/>
        <pt x="310" y="734" on="0"/>
        <pt x="310" y="633" on="1"/>
        <pt x="310" y="546" on="0"/>
        <pt x="333" y="401" on="0"/>
        <pt x="387" y="273" on="0"/>
        <pt x="469" y="184" on="0"/>
        <pt x="594" y="133" on="0"/>
        <pt x="674" y="133" on="1"/>
        <pt x="728" y="133" on="0"/>
        <pt x="815" y="158" on="0"/>
        <pt x="867" y="184" on="0"/>
        <pt x="877" y="184" on="1"/>
        <pt x="901" y="184" on="0"/>
        <pt x="901" y="158" on="1"/>
        <pt x="901" y="147" on="0"/>
        <pt x="883" y="106" on="0"/>
        <pt x="836" y="51" on="0"/>
        <pt x="771" y="3" on="0"/>
        <pt x="664" y="-31" on="0"/>
        <pt x="600" y="-31" on="1"/>
        <pt x="102" y="-31" on="0"/>
        <pt x="102" y="612" on="1"/>
        <pt x="102" y="873" on="0"/>
        <pt x="152" y="963" on="1"/>
        <pt x="178" y="1009" on="0"/>
        <pt x="282" y="1079" on="0"/>
        <pt x="315" y="1079" on="1"/>
        <pt x="350" y="1079" on="0"/>
      </contour>
      <contour>
        <pt x="950" y="557" on="1"/>
        <pt x="567" y="557" on="1"/>
        <pt x="524" y="557" on="0"/>
        <pt x="524" y="588" on="1"/>
        <pt x="524" y="602" on="0"/>
        <pt x="564" y="675" on="0"/>
        <pt x="592" y="700" on="1"/>
        <pt x="615" y="721" on="0"/>
        <pt x="666" y="721" on="1"/>
        <pt x="1104" y="721" on="1"/>
        <pt x="1141" y="721" on="0"/>
        <pt x="1168" y="698" on="0"/>
        <pt x="1174" y="666" on="1"/>
        <pt x="1182" y="626" on="0"/>
        <pt x="1182" y="547" on="1"/>
        <pt x="1182" y="376" on="0"/>
        <pt x="1130" y="231" on="1"/>
        <pt x="1095" y="136" on="0"/>
        <pt x="977" y="25" on="0"/>
        <pt x="932" y="25" on="1"/>
        <pt x="913" y="25" on="0"/>
        <pt x="913" y="41" on="1"/>
        <pt x="913" y="49" on="0"/>
        <pt x="919" y="61" on="0"/>
        <pt x="938" y="85" on="0"/>
        <pt x="946" y="98" on="1"/>
        <pt x="1010" y="205" on="0"/>
        <pt x="1010" y="414" on="1"/>
        <pt x="1010" y="445" on="0"/>
        <pt x="1009" y="480" on="0"/>
        <pt x="1002" y="521" on="0"/>
        <pt x="990" y="543" on="0"/>
        <pt x="967" y="557" on="0"/>
      </contour>
      <contour>
        <pt x="1083" y="1315" on="1"/>
        <pt x="1083" y="1276" on="0"/>
        <pt x="980" y="1196" on="0"/>
        <pt x="942" y="1196" on="1"/>
        <pt x="914" y="1196" on="0"/>
        <pt x="822" y="1233" on="0"/>
        <pt x="694" y="1270" on="0"/>
        <pt x="623" y="1270" on="1"/>
        <pt x="520" y="1270" on="0"/>
        <pt x="314" y="1188" on="0"/>
        <pt x="236" y="1120" on="1"/>
        <pt x="185" y="1075" on="0"/>
        <pt x="170" y="1075" on="1"/>
        <pt x="147" y="1075" on="0"/>
        <pt x="147" y="1100" on="1"/>
        <pt x="147" y="1117" on="0"/>
        <pt x="183" y="1180" on="0"/>
        <pt x="201" y="1200" on="1"/>
        <pt x="307" y="1317" on="0"/>
        <pt x="566" y="1434" on="0"/>
        <pt x="743" y="1434" on="1"/>
        <pt x="864" y="1434" on="0"/>
        <pt x="1083" y="1365" on="0"/>
      </contour>
    </TTGlyph>
    <TTGlyph name="H" xMin="133" yMin="-10" xMax="1118" yMax="1423">
      <contour>
        <pt x="1118" y="1380" on="1"/>
        <pt x="1118" y="139" on="1"/>
        <pt x="1118" y="89" on="0"/>
        <pt x="1098" y="66" on="1"/>
        <pt x="1073" y="36" on="0"/>
        <pt x="980" y="-10" on="0"/>
        <pt x="951" y="-10" on="1"/>
        <pt x="917" y="-10" on="0"/>
        <pt x="917" y="33" on="1"/>
        <pt x="917" y="1274" on="1"/>
        <pt x="917" y="1316" on="0"/>
        <pt x="937" y="1341" on="1"/>
        <pt x="962" y="1372" on="0"/>
        <pt x="1054" y="1423" on="0"/>
        <pt x="1083" y="1423" on="1"/>
        <pt x="1118" y="1423" on="0"/>
      </contour>
      <contour>
        <pt x="802" y="664" on="1"/>
        <pt x="174" y="664" on="1"/>
        <pt x="133" y="664" on="0"/>
        <pt x="133" y="705" on="1"/>
        <pt x="133" y="1274" on="1"/>
        <pt x="133" y="1316" on="0"/>
        <pt x="154" y="1341" on="1"/>
        <pt x="180" y="1372" on="0"/>
        <pt x="270" y="1423" on="0"/>
        <pt x="299" y="1423" on="1"/>
        <pt x="334" y="1423" on="0"/>
        <pt x="334" y="1380" on="1"/>
        <pt x="334" y="869" on="1"/>
        <pt x="334" y="828" on="0"/>
        <pt x="375" y="828" on="1"/>
        <pt x="802" y="828" on="1"/>
        <pt x="835" y="828" on="0"/>
        <pt x="857" y="793" on="0"/>
        <pt x="857" y="748" on="1"/>
        <pt x="857" y="701" on="0"/>
        <pt x="835" y="664" on="0"/>
      </contour>
      <contour>
        <pt x="133" y="33" on="1"/>
        <pt x="133" y="545" on="1"/>
        <pt x="133" y="581" on="0"/>
        <pt x="182" y="604" on="0"/>
        <pt x="233" y="604" on="1"/>
        <pt x="289" y="604" on="0"/>
        <pt x="334" y="581" on="0"/>
        <pt x="334" y="545" on="1"/>
        <pt x="334" y="139" on="1"/>
        <pt x="334" y="90" on="0"/>
        <pt x="313" y="66" on="1"/>
        <pt x="288" y="36" on="0"/>
        <pt x="197" y="-10" on="0"/>
        <pt x="168" y="-10" on="1"/>
        <pt x="133" y="-10" on="0"/>
      </contour>
    </TTGlyph>
    <TTGlyph name="I" xMin="133" yMin="-10" xMax="334" yMax="1423">
      <contour>
        <pt x="334" y="1380" on="1"/>
        <pt x="334" y="139" on="1"/>
        <pt x="334" y="90" on="0"/>
        <pt x="313" y="66" on="1"/>
        <pt x="288" y="36" on="0"/>
        <pt x="197" y="-10" on="0"/>
        <pt x="168" y="-10" on="1"/>
        <pt x="133" y="-10" on="0"/>
        <pt x="133" y="33" on="1"/>
        <pt x="133" y="1274" on="1"/>
        <pt x="133" y="1316" on="0"/>
        <pt x="154" y="1341" on="1"/>
        <pt x="180" y="1372" on="0"/>
        <pt x="270" y="1423" on="0"/>
        <pt x="299" y="1423" on="1"/>
        <pt x="334" y="1423" on="0"/>
      </contour>
    </TTGlyph>
    <TTGlyph name="Iacute" xMin="133" yMin="-10" xMax="539" yMax="2019">
      <component glyphName="I" x="102" y="0" flags="0x4"/>
      <component glyphName="acute.case" x="53" y="0" flags="0x4"/>
    </TTGlyph>
    <TTGlyph name="Icircumflex" xMin="133" yMin="-10" xMax="858" yMax="2016">
      <component glyphName="I" x="262" y="0" flags="0x4"/>
      <component glyphName="circumflex.case" x="53" y="0" flags="0x4"/>
    </TTGlyph>
    <TTGlyph name="Idieresis" xMin="133" yMin="-10" xMax="679" yMax="2017">
      <component glyphName="I" x="172" y="0" flags="0x4"/>
      <component glyphName="dieresis.case" x="53" y="0" flags="0x4"/>
    </TTGlyph>
    <TTGlyph name="Igrave" xMin="133" yMin="-10" xMax="539" yMax="2019">
      <component glyphName="I" x="102" y="0" flags="0x4"/>
      <component glyphName="grave.case" x="53" y="0" flags="0x4"/>
    </TTGlyph>
    <TTGlyph name="J" xMin="-80" yMin="-140" xMax="525" yMax="1423">
      <contour>
        <pt x="525" y="1380" on="1"/>
        <pt x="525" y="256" on="1"/>
        <pt x="525" y="95" on="0"/>
        <pt x="380" y="-111" on="0"/>
        <pt x="290" y="-111" on="1"/>
        <pt x="282" y="-111" on="0"/>
        <pt x="269" y="-99" on="0"/>
        <pt x="269" y="-89" on="1"/>
        <pt x="269" y="-83" on="0"/>
        <pt x="286" y="-54" on="1"/>
        <pt x="324" y="11" on="0"/>
        <pt x="324" y="120" on="1"/>
        <pt x="324" y="1274" on="1"/>
        <pt x="324" y="1316" on="0"/>
        <pt x="344" y="1341" on="1"/>
        <pt x="370" y="1372" on="0"/>
        <pt x="461" y="1423" on="0"/>
        <pt x="490" y="1423" on="1"/>
        <pt x="525" y="1423" on="0"/>
      </contour>
      <contour>
        <pt x="74" y="-140" on="1"/>
        <pt x="-7" y="-140" on="0"/>
        <pt x="-63" y="-77" on="1"/>
        <pt x="-80" y="-57" on="0"/>
        <pt x="-80" y="-28" on="1"/>
        <pt x="-80" y="5" on="0"/>
        <pt x="-10" y="89" on="0"/>
        <pt x="24" y="89" on="1"/>
        <pt x="40" y="89" on="0"/>
        <pt x="58" y="75" on="0"/>
        <pt x="81" y="50" on="1"/>
        <pt x="104" y="24" on="0"/>
        <pt x="132" y="24" on="1"/>
        <pt x="154" y="24" on="0"/>
        <pt x="212" y="50" on="0"/>
        <pt x="223" y="50" on="1"/>
        <pt x="248" y="50" on="0"/>
        <pt x="248" y="21" on="1"/>
        <pt x="248" y="6" on="0"/>
        <pt x="227" y="-44" on="0"/>
        <pt x="187" y="-100" on="0"/>
        <pt x="116" y="-140" on="0"/>
      </contour>
    </TTGlyph>
    <TTGlyph name="K" xMin="133" yMin="-10" xMax="1057" yMax="1423">
      <contour>
        <pt x="334" y="1380" on="1"/>
        <pt x="334" y="139" on="1"/>
        <pt x="334" y="90" on="0"/>
        <pt x="313" y="66" on="1"/>
        <pt x="288" y="36" on="0"/>
        <pt x="197" y="-10" on="0"/>
        <pt x="168" y="-10" on="1"/>
        <pt x="133" y="-10" on="0"/>
        <pt x="133" y="33" on="1"/>
        <pt x="133" y="1274" on="1"/>
        <pt x="133" y="1316" on="0"/>
        <pt x="154" y="1341" on="1"/>
        <pt x="180" y="1372" on="0"/>
        <pt x="270" y="1423" on="0"/>
        <pt x="299" y="1423" on="1"/>
        <pt x="334" y="1423" on="0"/>
      </contour>
      <contour>
        <pt x="872" y="31" on="1"/>
        <pt x="412" y="688" on="1"/>
        <pt x="391" y="717" on="0"/>
        <pt x="391" y="741" on="1"/>
        <pt x="391" y="776" on="0"/>
        <pt x="426" y="821" on="1"/>
        <pt x="803" y="1321" on="1"/>
        <pt x="850" y="1384" on="0"/>
        <pt x="927" y="1423" on="0"/>
        <pt x="1002" y="1423" on="1"/>
        <pt x="1057" y="1423" on="0"/>
        <pt x="1057" y="1393" on="1"/>
        <pt x="1057" y="1371" on="0"/>
        <pt x="1028" y="1335" on="1"/>
        <pt x="629" y="831" on="1"/>
        <pt x="600" y="794" on="0"/>
        <pt x="600" y="772" on="1"/>
        <pt x="600" y="751" on="0"/>
        <pt x="630" y="711" on="1"/>
        <pt x="1028" y="180" on="1"/>
        <pt x="1049" y="151" on="0"/>
        <pt x="1049" y="127" on="1"/>
        <pt x="1049" y="99" on="0"/>
        <pt x="1032" y="70" on="1"/>
        <pt x="982" y="-10" on="0"/>
        <pt x="926" y="-10" on="1"/>
        <pt x="901" y="-10" on="0"/>
      </contour>
    </TTGlyph>
    <TTGlyph name="L" xMin="133" yMin="0" xMax="895" yMax="1423">
      <contour>
        <pt x="133" y="273" on="1"/>
        <pt x="133" y="1274" on="1"/>
        <pt x="133" y="1316" on="0"/>
        <pt x="154" y="1341" on="1"/>
        <pt x="180" y="1372" on="0"/>
        <pt x="270" y="1423" on="0"/>
        <pt x="299" y="1423" on="1"/>
        <pt x="334" y="1423" on="0"/>
        <pt x="334" y="1380" on="1"/>
        <pt x="334" y="273" on="1"/>
        <pt x="334" y="237" on="0"/>
        <pt x="285" y="214" on="0"/>
        <pt x="234" y="214" on="1"/>
        <pt x="178" y="214" on="0"/>
        <pt x="133" y="237" on="0"/>
      </contour>
      <contour>
        <pt x="174" y="164" on="1"/>
        <pt x="852" y="164" on="1"/>
        <pt x="895" y="164" on="0"/>
        <pt x="895" y="133" on="1"/>
        <pt x="895" y="119" on="0"/>
        <pt x="854" y="45" on="0"/>
        <pt x="827" y="20" on="1"/>
        <pt x="805" y="0" on="0"/>
        <pt x="754" y="0" on="1"/>
        <pt x="174" y="0" on="1"/>
        <pt x="133" y="0" on="0"/>
        <pt x="133" y="43" on="1"/>
        <pt x="133" y="121" on="1"/>
        <pt x="133" y="164" on="0"/>
      </contour>
    </TTGlyph>
    <TTGlyph name="M" xMin="133" yMin="-10" xMax="1379" yMax="1423">
      <contour>
        <pt x="293" y="700" on="1"/>
        <pt x="303" y="658" on="0"/>
        <pt x="303" y="593" on="1"/>
        <pt x="303" y="133" on="1"/>
        <pt x="303" y="85" on="0"/>
        <pt x="283" y="59" on="1"/>
        <pt x="259" y="31" on="0"/>
        <pt x="185" y="-10" on="0"/>
        <pt x="170" y="-10" on="1"/>
        <pt x="135" y="-10" on="0"/>
        <pt x="135" y="33" on="1"/>
        <pt x="135" y="980" on="1"/>
        <pt x="135" y="992" on="0"/>
        <pt x="147" y="1007" on="0"/>
        <pt x="156" y="1007" on="1"/>
        <pt x="171" y="1007" on="0"/>
        <pt x="202" y="947" on="0"/>
        <pt x="242" y="849" on="1"/>
        <pt x="284" y="744" on="0"/>
      </contour>
      <contour>
        <pt x="539" y="245" on="1"/>
        <pt x="141" y="1280" on="1"/>
        <pt x="133" y="1299" on="0"/>
        <pt x="133" y="1317" on="1"/>
        <pt x="133" y="1341" on="0"/>
        <pt x="152" y="1362" on="1"/>
        <pt x="175" y="1390" on="0"/>
        <pt x="251" y="1423" on="0"/>
        <pt x="272" y="1423" on="1"/>
        <pt x="294" y="1423" on="0"/>
        <pt x="319" y="1403" on="0"/>
        <pt x="330" y="1376" on="1"/>
        <pt x="668" y="467" on="1"/>
        <pt x="686" y="418" on="0"/>
        <pt x="686" y="387" on="1"/>
        <pt x="686" y="362" on="0"/>
        <pt x="674" y="327" on="1"/>
        <pt x="650" y="266" on="0"/>
        <pt x="627" y="231" on="1"/>
        <pt x="606" y="198" on="0"/>
        <pt x="582" y="198" on="1"/>
        <pt x="570" y="198" on="0"/>
        <pt x="550" y="218" on="0"/>
      </contour>
      <contour>
        <pt x="1073" y="713" on="1"/>
        <pt x="864" y="170" on="1"/>
        <pt x="831" y="88" on="0"/>
        <pt x="760" y="39" on="1"/>
        <pt x="691" y="-10" on="0"/>
        <pt x="653" y="-10" on="1"/>
        <pt x="623" y="-10" on="0"/>
        <pt x="623" y="18" on="1"/>
        <pt x="623" y="30" on="0"/>
        <pt x="633" y="53" on="1"/>
        <pt x="1042" y="1137" on="1"/>
        <pt x="1060" y="1174" on="0"/>
        <pt x="1071" y="1179" on="1"/>
        <pt x="1077" y="1182" on="0"/>
        <pt x="1083" y="1182" on="1"/>
        <pt x="1106" y="1182" on="0"/>
        <pt x="1112" y="1143" on="1"/>
        <pt x="1118" y="1108" on="0"/>
        <pt x="1118" y="981" on="1"/>
        <pt x="1118" y="902" on="0"/>
        <pt x="1101" y="783" on="0"/>
      </contour>
      <contour>
        <pt x="1379" y="1380" on="1"/>
        <pt x="1379" y="139" on="1"/>
        <pt x="1379" y="90" on="0"/>
        <pt x="1359" y="66" on="1"/>
        <pt x="1334" y="36" on="0"/>
        <pt x="1241" y="-10" on="0"/>
        <pt x="1212" y="-10" on="1"/>
        <pt x="1178" y="-10" on="0"/>
        <pt x="1178" y="33" on="1"/>
        <pt x="1178" y="1274" on="1"/>
        <pt x="1178" y="1316" on="0"/>
        <pt x="1198" y="1341" on="1"/>
        <pt x="1224" y="1372" on="0"/>
        <pt x="1316" y="1423" on="0"/>
        <pt x="1344" y="1423" on="1"/>
        <pt x="1379" y="1423" on="0"/>
      </contour>
    </TTGlyph>
    <TTGlyph name="N" xMin="133" yMin="-10" xMax="1128" yMax="1423">
      <contour>
        <pt x="954" y="43" on="1"/>
        <pt x="954" y="1294" on="1"/>
        <pt x="954" y="1353" on="0"/>
        <pt x="1055" y="1423" on="0"/>
        <pt x="1094" y="1423" on="1"/>
        <pt x="1128" y="1423" on="0"/>
        <pt x="1128" y="1380" on="1"/>
        <pt x="1128" y="139" on="1"/>
        <pt x="1128" y="89" on="0"/>
        <pt x="1108" y="66" on="1"/>
        <pt x="1082" y="36" on="0"/>
        <pt x="1007" y="-10" on="0"/>
        <pt x="985" y="-10" on="1"/>
        <pt x="976" y="-10" on="0"/>
        <pt x="965" y="-6" on="0"/>
        <pt x="954" y="19" on="0"/>
      </contour>
      <contour>
        <pt x="822" y="199" on="1"/>
        <pt x="145" y="1278" on="1"/>
        <pt x="133" y="1297" on="0"/>
        <pt x="133" y="1313" on="1"/>
        <pt x="133" y="1335" on="0"/>
        <pt x="156" y="1360" on="1"/>
        <pt x="216" y="1423" on="0"/>
        <pt x="268" y="1423" on="1"/>
        <pt x="293" y="1423" on="0"/>
        <pt x="313" y="1391" on="1"/>
        <pt x="855" y="534" on="1"/>
        <pt x="882" y="492" on="0"/>
        <pt x="894" y="421" on="0"/>
        <pt x="894" y="342" on="1"/>
        <pt x="894" y="166" on="0"/>
        <pt x="857" y="166" on="1"/>
        <pt x="844" y="166" on="0"/>
        <pt x="826" y="194" on="1"/>
        <pt x="823" y="197" on="0"/>
      </contour>
      <contour>
        <pt x="293" y="920" on="1"/>
        <pt x="309" y="883" on="0"/>
        <pt x="309" y="829" on="1"/>
        <pt x="309" y="139" on="1"/>
        <pt x="309" y="89" on="0"/>
        <pt x="289" y="66" on="1"/>
        <pt x="264" y="36" on="0"/>
        <pt x="187" y="-10" on="0"/>
        <pt x="167" y="-10" on="1"/>
        <pt x="135" y="-10" on="0"/>
        <pt x="135" y="33" on="1"/>
        <pt x="135" y="1088" on="1"/>
        <pt x="135" y="1112" on="0"/>
        <pt x="154" y="1112" on="1"/>
        <pt x="167" y="1112" on="0"/>
        <pt x="198" y="1076" on="0"/>
        <pt x="233" y="1024" on="1"/>
        <pt x="273" y="964" on="0"/>
      </contour>
    </TTGlyph>
    <TTGlyph name="Ntilde" xMin="133" yMin="-10" xMax="1128" yMax="1965">
      <component glyphName="N" x="0" y="0" flags="0x204"/>
      <component glyphName="tilde.case" x="190" y="0" flags="0x4"/>
    </TTGlyph>
    <TTGlyph name="O" xMin="102" yMin="-31" xMax="1206" yMax="1434">
      <contour>
        <pt x="1206" y="745" on="1"/>
        <pt x="1206" y="610" on="0"/>
        <pt x="1178" y="398" on="0"/>
        <pt x="1125" y="233" on="0"/>
        <pt x="1048" y="112" on="0"/>
        <pt x="998" y="69" on="1"/>
        <pt x="938" y="16" on="0"/>
        <pt x="895" y="16" on="1"/>
        <pt x="874" y="16" on="0"/>
        <pt x="874" y="41" on="1"/>
        <pt x="874" y="49" on="0"/>
        <pt x="904" y="88" on="0"/>
        <pt x="918" y="115" on="1"/>
        <pt x="998" y="266" on="0"/>
        <pt x="998" y="573" on="1"/>
        <pt x="998" y="628" on="0"/>
        <pt x="998" y="774" on="0"/>
        <pt x="979" y="929" on="0"/>
        <pt x="933" y="1079" on="0"/>
        <pt x="839" y="1197" on="0"/>
        <pt x="688" y="1270" on="0"/>
        <pt x="575" y="1270" on="1"/>
        <pt x="487" y="1270" on="0"/>
        <pt x="319" y="1204" on="0"/>
        <pt x="236" y="1139" on="1"/>
        <pt x="204" y="1114" on="1"/>
        <pt x="195" y="1106" on="0"/>
        <pt x="173" y="1094" on="0"/>
        <pt x="168" y="1094" on="1"/>
        <pt x="147" y="1094" on="0"/>
        <pt x="147" y="1114" on="1"/>
        <pt x="147" y="1145" on="0"/>
        <pt x="190" y="1200" on="1"/>
        <pt x="280" y="1315" on="0"/>
        <pt x="524" y="1434" on="0"/>
        <pt x="659" y="1434" on="1"/>
        <pt x="795" y="1434" on="0"/>
        <pt x="1000" y="1352" on="0"/>
        <pt x="1137" y="1183" on="0"/>
        <pt x="1206" y="923" on="0"/>
      </contour>
      <contour>
        <pt x="350" y="1059" on="1"/>
        <pt x="350" y="1050" on="0"/>
        <pt x="330" y="943" on="0"/>
        <pt x="310" y="767" on="0"/>
        <pt x="310" y="674" on="1"/>
        <pt x="310" y="602" on="0"/>
        <pt x="319" y="484" on="0"/>
        <pt x="341" y="354" on="0"/>
        <pt x="387" y="257" on="0"/>
        <pt x="455" y="176" on="0"/>
        <pt x="561" y="133" on="0"/>
        <pt x="629" y="133" on="1"/>
        <pt x="689" y="133" on="0"/>
        <pt x="781" y="158" on="0"/>
        <pt x="831" y="182" on="0"/>
        <pt x="840" y="182" on="1"/>
        <pt x="862" y="182" on="0"/>
        <pt x="862" y="158" on="1"/>
        <pt x="862" y="133" on="0"/>
        <pt x="824" y="71" on="0"/>
        <pt x="756" y="10" on="0"/>
        <pt x="640" y="-31" on="0"/>
        <pt x="573" y="-31" on="1"/>
        <pt x="438" y="-31" on="0"/>
        <pt x="252" y="58" on="0"/>
        <pt x="147" y="238" on="0"/>
        <pt x="102" y="474" on="0"/>
        <pt x="102" y="637" on="1"/>
        <pt x="102" y="884" on="0"/>
        <pt x="152" y="979" on="1"/>
        <pt x="180" y="1031" on="0"/>
        <pt x="284" y="1096" on="0"/>
        <pt x="319" y="1096" on="1"/>
        <pt x="350" y="1096" on="0"/>
      </contour>
    </TTGlyph>
    <TTGlyph name="OE" xMin="102" yMin="-31" xMax="1619" yMax="1434">
      <contour>
        <pt x="865" y="200" on="1"/>
        <pt x="865" y="536" on="1"/>
        <pt x="865" y="572" on="0"/>
        <pt x="914" y="595" on="0"/>
        <pt x="966" y="595" on="1"/>
        <pt x="1022" y="595" on="0"/>
        <pt x="1066" y="572" on="0"/>
        <pt x="1066" y="536" on="1"/>
        <pt x="1066" y="205" on="1"/>
        <pt x="1066" y="164" on="0"/>
        <pt x="1107" y="164" on="1"/>
        <pt x="1576" y="164" on="1"/>
        <pt x="1619" y="164" on="0"/>
        <pt x="1619" y="133" on="1"/>
        <pt x="1619" y="119" on="0"/>
        <pt x="1579" y="44" on="0"/>
        <pt x="1552" y="20" on="1"/>
        <pt x="1529" y="0" on="0"/>
        <pt x="1478" y="0" on="1"/>
        <pt x="900" y="0" on="1"/>
        <pt x="862" y="0" on="0"/>
        <pt x="692" y="-31" on="0"/>
        <pt x="649" y="-31" on="1"/>
        <pt x="498" y="-31" on="0"/>
        <pt x="284" y="57" on="0"/>
        <pt x="158" y="232" on="0"/>
        <pt x="102" y="465" on="0"/>
        <pt x="102" y="623" on="1"/>
        <pt x="102" y="736" on="0"/>
        <pt x="130" y="918" on="0"/>
        <pt x="150" y="957" on="1"/>
        <pt x="175" y="1007" on="0"/>
        <pt x="282" y="1082" on="0"/>
        <pt x="326" y="1082" on="1"/>
        <pt x="356" y="1082" on="0"/>
        <pt x="356" y="1051" on="1"/>
        <pt x="356" y="1036" on="0"/>
        <pt x="334" y="934" on="0"/>
        <pt x="311" y="766" on="0"/>
        <pt x="311" y="672" on="1"/>
        <pt x="311" y="587" on="0"/>
        <pt x="334" y="439" on="0"/>
        <pt x="393" y="297" on="0"/>
        <pt x="484" y="198" on="0"/>
        <pt x="631" y="137" on="0"/>
        <pt x="725" y="137" on="1"/>
        <pt x="778" y="137" on="0"/>
        <pt x="809" y="141" on="1"/>
        <pt x="834" y="144" on="0"/>
        <pt x="865" y="175" on="0"/>
      </contour>
      <contour>
        <pt x="1009" y="1403" on="1"/>
        <pt x="1556" y="1403" on="1"/>
        <pt x="1599" y="1403" on="0"/>
        <pt x="1599" y="1372" on="1"/>
        <pt x="1599" y="1358" on="0"/>
        <pt x="1559" y="1285" on="0"/>
        <pt x="1531" y="1260" on="1"/>
        <pt x="1508" y="1239" on="0"/>
        <pt x="1458" y="1239" on="1"/>
        <pt x="926" y="1239" on="1"/>
        <pt x="874" y="1239" on="0"/>
        <pt x="700" y="1270" on="0"/>
        <pt x="626" y="1270" on="1"/>
        <pt x="414" y="1270" on="0"/>
        <pt x="236" y="1120" on="1"/>
        <pt x="182" y="1075" on="0"/>
        <pt x="170" y="1075" on="1"/>
        <pt x="147" y="1075" on="0"/>
        <pt x="147" y="1100" on="1"/>
        <pt x="147" y="1132" on="0"/>
        <pt x="201" y="1200" on="1"/>
        <pt x="390" y="1434" on="0"/>
        <pt x="747" y="1434" on="1"/>
        <pt x="793" y="1434" on="0"/>
        <pt x="968" y="1403" on="0"/>
      </contour>
      <contour>
        <pt x="865" y="696" on="1"/>
        <pt x="865" y="1119" on="1"/>
        <pt x="865" y="1155" on="0"/>
        <pt x="914" y="1179" on="0"/>
        <pt x="966" y="1179" on="1"/>
        <pt x="1022" y="1179" on="0"/>
        <pt x="1066" y="1156" on="0"/>
        <pt x="1066" y="1119" on="1"/>
        <pt x="1066" y="860" on="1"/>
        <pt x="1066" y="819" on="0"/>
        <pt x="1107" y="819" on="1"/>
        <pt x="1494" y="819" on="1"/>
        <pt x="1537" y="819" on="0"/>
        <pt x="1537" y="788" on="1"/>
        <pt x="1537" y="774" on="0"/>
        <pt x="1497" y="701" on="0"/>
        <pt x="1470" y="676" on="1"/>
        <pt x="1447" y="655" on="0"/>
        <pt x="1396" y="655" on="1"/>
        <pt x="906" y="655" on="1"/>
        <pt x="865" y="655" on="0"/>
      </contour>
    </TTGlyph>
    <TTGlyph name="Oacute" xMin="102" yMin="-31" xMax="1206" yMax="2019">
      <component glyphName="O" x="0" y="0" flags="0x204"/>
      <component glyphName="acute.case" x="371" y="0" flags="0x4"/>
    </TTGlyph>
    <TTGlyph name="Ocircumflex" xMin="102" yMin="-31" xMax="1206" yMax="2016">
      <component glyphName="O" x="0" y="0" flags="0x204"/>
      <component glyphName="circumflex.case" x="212" y="0" flags="0x4"/>
    </TTGlyph>
    <TTGlyph name="Odieresis" xMin="102" yMin="-31" xMax="1206" yMax="2017">
      <component glyphName="O" x="0" y="0" flags="0x204"/>
      <component glyphName="dieresis.case" x="301" y="0" flags="0x4"/>
    </TTGlyph>
    <TTGlyph name="Ograve" xMin="102" yMin="-31" xMax="1206" yMax="2019">
      <component glyphName="O" x="0" y="0" flags="0x204"/>
      <component glyphName="grave.case" x="371" y="0" flags="0x4"/>
    </TTGlyph>
    <TTGlyph name="Oslash" xMin="102" yMin="-121" xMax="1206" yMax="1489">
      <contour>
        <pt x="1087" y="1480" on="1"/>
        <pt x="1130" y="1489" on="0"/>
        <pt x="1150" y="1489" on="1"/>
        <pt x="1177" y="1489" on="0"/>
        <pt x="1177" y="1464" on="1"/>
        <pt x="1177" y="1449" on="0"/>
        <pt x="1162" y="1423" on="1"/>
        <pt x="1089" y="1294" on="1"/>
        <pt x="1080" y="1278" on="0"/>
        <pt x="1080" y="1256" on="0"/>
        <pt x="1090" y="1240" on="1"/>
        <pt x="1206" y="1066" on="0"/>
        <pt x="1206" y="745" on="1"/>
        <pt x="1206" y="382" on="0"/>
        <pt x="1106" y="207" on="1"/>
        <pt x="1059" y="123" on="0"/>
        <pt x="937" y="16" on="0"/>
        <pt x="895" y="16" on="1"/>
        <pt x="874" y="16" on="0"/>
        <pt x="874" y="39" on="1"/>
        <pt x="874" y="46" on="0"/>
        <pt x="885" y="64" on="0"/>
        <pt x="909" y="98" on="0"/>
        <pt x="918" y="115" on="1"/>
        <pt x="961" y="196" on="0"/>
        <pt x="1008" y="449" on="0"/>
        <pt x="1008" y="573" on="1"/>
        <pt x="1008" y="849" on="0"/>
        <pt x="963" y="992" on="1"/>
        <pt x="957" y="1013" on="0"/>
        <pt x="942" y="1013" on="1"/>
        <pt x="928" y="1013" on="0"/>
        <pt x="917" y="993" on="1"/>
        <pt x="476" y="218" on="1"/>
        <pt x="466" y="201" on="0"/>
        <pt x="466" y="188" on="1"/>
        <pt x="466" y="168" on="0"/>
        <pt x="496" y="154" on="1"/>
        <pt x="554" y="129" on="0"/>
        <pt x="629" y="129" on="1"/>
        <pt x="689" y="129" on="0"/>
        <pt x="781" y="156" on="0"/>
        <pt x="831" y="182" on="0"/>
        <pt x="840" y="182" on="1"/>
        <pt x="862" y="182" on="0"/>
        <pt x="862" y="158" on="1"/>
        <pt x="862" y="133" on="0"/>
        <pt x="824" y="71" on="0"/>
        <pt x="756" y="10" on="0"/>
        <pt x="640" y="-31" on="0"/>
        <pt x="573" y="-31" on="1"/>
        <pt x="477" y="-31" on="0"/>
        <pt x="402" y="-8" on="1"/>
        <pt x="385" y="-3" on="0"/>
        <pt x="376" y="-3" on="1"/>
        <pt x="352" y="-3" on="0"/>
        <pt x="326" y="-47" on="1"/>
        <pt x="308" y="-79" on="0"/>
        <pt x="206" y="-121" on="0"/>
        <pt x="166" y="-120" on="1"/>
        <pt x="142" y="-120" on="0"/>
        <pt x="142" y="-100" on="1"/>
        <pt x="142" y="-84" on="0"/>
        <pt x="164" y="-44" on="1"/>
        <pt x="974" y="1389" on="1"/>
        <pt x="994" y="1427" on="0"/>
        <pt x="1046" y="1471" on="0"/>
      </contour>
      <contour>
        <pt x="860" y="1309" on="1"/>
        <pt x="838" y="1268" on="0"/>
        <pt x="808" y="1237" on="0"/>
        <pt x="788" y="1237" on="1"/>
        <pt x="772" y="1237" on="0"/>
        <pt x="725" y="1252" on="1"/>
        <pt x="658" y="1273" on="0"/>
        <pt x="575" y="1273" on="1"/>
        <pt x="542" y="1273" on="0"/>
        <pt x="463" y="1261" on="0"/>
        <pt x="307" y="1196" on="0"/>
        <pt x="236" y="1139" on="1"/>
        <pt x="231" y="1135" on="0"/>
        <pt x="209" y="1118" on="0"/>
        <pt x="199" y="1110" on="0"/>
        <pt x="183" y="1099" on="0"/>
        <pt x="172" y="1094" on="0"/>
        <pt x="168" y="1094" on="1"/>
        <pt x="147" y="1094" on="0"/>
        <pt x="147" y="1114" on="1"/>
        <pt x="147" y="1144" on="0"/>
        <pt x="190" y="1200" on="1"/>
        <pt x="279" y="1315" on="0"/>
        <pt x="525" y="1434" on="0"/>
        <pt x="659" y="1434" on="1"/>
        <pt x="878" y="1434" on="0"/>
        <pt x="878" y="1367" on="1"/>
        <pt x="878" y="1344" on="0"/>
      </contour>
      <contour>
        <pt x="265" y="258" on="1"/>
        <pt x="227" y="208" on="0"/>
        <pt x="196" y="208" on="1"/>
        <pt x="150" y="208" on="0"/>
        <pt x="102" y="465" on="0"/>
        <pt x="102" y="637" on="1"/>
        <pt x="102" y="884" on="0"/>
        <pt x="152" y="979" on="1"/>
        <pt x="180" y="1031" on="0"/>
        <pt x="284" y="1096" on="0"/>
        <pt x="319" y="1096" on="1"/>
        <pt x="350" y="1096" on="0"/>
        <pt x="350" y="1059" on="1"/>
        <pt x="350" y="1050" on="0"/>
        <pt x="325" y="943" on="0"/>
        <pt x="300" y="767" on="0"/>
        <pt x="300" y="674" on="1"/>
        <pt x="300" y="534" on="0"/>
        <pt x="315" y="441" on="1"/>
        <pt x="319" y="405" on="0"/>
        <pt x="319" y="401" on="1"/>
        <pt x="319" y="330" on="0"/>
      </contour>
    </TTGlyph>
    <TTGlyph name="Otilde" xMin="102" yMin="-31" xMax="1206" yMax="1965">
      <component glyphName="O" x="0" y="0" flags="0x204"/>
      <component glyphName="tilde.case" x="214" y="0" flags="0x4"/>
    </TTGlyph>
    <TTGlyph name="P" xMin="133" yMin="-10" xMax="989" yMax="1404">
      <contour>
        <pt x="334" y="396" on="1"/>
        <pt x="334" y="139" on="1"/>
        <pt x="334" y="90" on="0"/>
        <pt x="313" y="66" on="1"/>
        <pt x="288" y="36" on="0"/>
        <pt x="197" y="-10" on="0"/>
        <pt x="168" y="-10" on="1"/>
        <pt x="133" y="-10" on="0"/>
        <pt x="133" y="33" on="1"/>
        <pt x="133" y="396" on="1"/>
        <pt x="133" y="432" on="0"/>
        <pt x="184" y="458" on="0"/>
        <pt x="235" y="458" on="1"/>
        <pt x="290" y="458" on="0"/>
        <pt x="334" y="433" on="0"/>
      </contour>
      <contour>
        <pt x="133" y="591" on="1"/>
        <pt x="133" y="1124" on="1"/>
        <pt x="133" y="1160" on="0"/>
        <pt x="182" y="1183" on="0"/>
        <pt x="233" y="1183" on="1"/>
        <pt x="289" y="1183" on="0"/>
        <pt x="334" y="1160" on="0"/>
        <pt x="334" y="1124" on="1"/>
        <pt x="334" y="707" on="1"/>
        <pt x="334" y="664" on="0"/>
        <pt x="372" y="664" on="1"/>
        <pt x="539" y="664" on="1"/>
        <pt x="582" y="664" on="0"/>
        <pt x="582" y="639" on="1"/>
        <pt x="582" y="615" on="0"/>
        <pt x="495" y="552" on="0"/>
        <pt x="427" y="531" on="1"/>
        <pt x="385" y="518" on="0"/>
        <pt x="219" y="518" on="1"/>
        <pt x="168" y="518" on="0"/>
        <pt x="133" y="554" on="0"/>
      </contour>
      <contour>
        <pt x="776" y="907" on="1"/>
        <pt x="776" y="1240" on="0"/>
        <pt x="381" y="1240" on="1"/>
        <pt x="172" y="1240" on="1"/>
        <pt x="159" y="1240" on="0"/>
        <pt x="144" y="1242" on="0"/>
        <pt x="133" y="1253" on="0"/>
        <pt x="133" y="1263" on="1"/>
        <pt x="133" y="1305" on="0"/>
        <pt x="248" y="1401" on="0"/>
        <pt x="305" y="1403" on="1"/>
        <pt x="411" y="1404" on="1"/>
        <pt x="539" y="1403" on="1"/>
        <pt x="593" y="1402" on="0"/>
        <pt x="704" y="1379" on="0"/>
        <pt x="830" y="1315" on="0"/>
        <pt x="926" y="1217" on="0"/>
        <pt x="989" y="1051" on="0"/>
        <pt x="989" y="946" on="1"/>
        <pt x="989" y="905" on="0"/>
        <pt x="968" y="807" on="0"/>
        <pt x="911" y="687" on="0"/>
        <pt x="826" y="588" on="0"/>
        <pt x="682" y="511" on="0"/>
        <pt x="592" y="500" on="1"/>
        <pt x="586" y="500" on="1"/>
        <pt x="559" y="500" on="0"/>
        <pt x="559" y="523" on="1"/>
        <pt x="559" y="537" on="0"/>
        <pt x="582" y="551" on="1"/>
        <pt x="776" y="671" on="0"/>
      </contour>
    </TTGlyph>
    <TTGlyph name="Q" xMin="102" yMin="-254" xMax="1296" yMax="1430">
      <contour>
        <pt x="350" y="1055" on="1"/>
        <pt x="350" y="1046" on="0"/>
        <pt x="330" y="939" on="0"/>
        <pt x="310" y="763" on="0"/>
        <pt x="310" y="670" on="1"/>
        <pt x="310" y="610" on="0"/>
        <pt x="317" y="506" on="0"/>
        <pt x="336" y="394" on="0"/>
        <pt x="366" y="304" on="0"/>
        <pt x="417" y="221" on="0"/>
        <pt x="484" y="166" on="0"/>
        <pt x="580" y="133" on="0"/>
        <pt x="639" y="133" on="1"/>
        <pt x="699" y="133" on="0"/>
        <pt x="796" y="158" on="0"/>
        <pt x="851" y="182" on="0"/>
        <pt x="860" y="182" on="1"/>
        <pt x="883" y="182" on="0"/>
        <pt x="883" y="134" on="0"/>
        <pt x="842" y="71" on="0"/>
        <pt x="769" y="10" on="0"/>
        <pt x="651" y="-31" on="0"/>
        <pt x="584" y="-31" on="1"/>
        <pt x="453" y="-31" on="0"/>
        <pt x="265" y="63" on="0"/>
        <pt x="154" y="245" on="0"/>
        <pt x="102" y="488" on="0"/>
        <pt x="102" y="649" on="1"/>
        <pt x="102" y="790" on="0"/>
        <pt x="127" y="927" on="0"/>
        <pt x="152" y="975" on="1"/>
        <pt x="180" y="1027" on="0"/>
        <pt x="284" y="1092" on="0"/>
        <pt x="319" y="1092" on="1"/>
        <pt x="350" y="1092" on="0"/>
      </contour>
      <contour>
        <pt x="1227" y="741" on="1"/>
        <pt x="1227" y="584" on="0"/>
        <pt x="1170" y="319" on="0"/>
        <pt x="1104" y="168" on="1"/>
        <pt x="1090" y="140" on="0"/>
        <pt x="1090" y="125" on="1"/>
        <pt x="1090" y="99" on="0"/>
        <pt x="1112" y="80" on="1"/>
        <pt x="1257" y="-61" on="1"/>
        <pt x="1296" y="-100" on="0"/>
        <pt x="1296" y="-123" on="1"/>
        <pt x="1296" y="-152" on="0"/>
        <pt x="1207" y="-254" on="0"/>
        <pt x="1163" y="-254" on="1"/>
        <pt x="1142" y="-254" on="0"/>
        <pt x="1114" y="-225" on="1"/>
        <pt x="915" y="-16" on="1"/>
        <pt x="895" y="4" on="0"/>
        <pt x="895" y="27" on="1"/>
        <pt x="895" y="37" on="0"/>
        <pt x="907" y="61" on="0"/>
        <pt x="937" y="113" on="0"/>
        <pt x="950" y="141" on="1"/>
        <pt x="1019" y="292" on="0"/>
        <pt x="1019" y="569" on="1"/>
        <pt x="1019" y="652" on="0"/>
        <pt x="1014" y="776" on="0"/>
        <pt x="993" y="930" on="0"/>
        <pt x="958" y="1042" on="0"/>
        <pt x="893" y="1155" on="0"/>
        <pt x="803" y="1226" on="0"/>
        <pt x="670" y="1270" on="0"/>
        <pt x="586" y="1270" on="1"/>
        <pt x="563" y="1270" on="0"/>
        <pt x="505" y="1262" on="0"/>
        <pt x="408" y="1238" on="0"/>
        <pt x="291" y="1179" on="0"/>
        <pt x="236" y="1135" on="1"/>
        <pt x="231" y="1131" on="0"/>
        <pt x="209" y="1114" on="0"/>
        <pt x="199" y="1106" on="0"/>
        <pt x="183" y="1095" on="0"/>
        <pt x="172" y="1090" on="0"/>
        <pt x="168" y="1090" on="1"/>
        <pt x="147" y="1090" on="0"/>
        <pt x="147" y="1110" on="1"/>
        <pt x="147" y="1140" on="0"/>
        <pt x="190" y="1196" on="1"/>
        <pt x="278" y="1311" on="0"/>
        <pt x="535" y="1430" on="0"/>
        <pt x="670" y="1430" on="1"/>
        <pt x="1227" y="1430" on="0"/>
      </contour>
    </TTGlyph>
    <TTGlyph name="R" xMin="133" yMin="-10" xMax="1030" yMax="1406">
      <contour>
        <pt x="788" y="925" on="1"/>
        <pt x="788" y="1000" on="0"/>
        <pt x="747" y="1113" on="0"/>
        <pt x="680" y="1182" on="0"/>
        <pt x="580" y="1225" on="0"/>
        <pt x="475" y="1241" on="0"/>
        <pt x="410" y="1241" on="1"/>
        <pt x="172" y="1241" on="1"/>
        <pt x="159" y="1241" on="0"/>
        <pt x="144" y="1243" on="0"/>
        <pt x="133" y="1254" on="0"/>
        <pt x="133" y="1264" on="1"/>
        <pt x="133" y="1307" on="0"/>
        <pt x="247" y="1401" on="0"/>
        <pt x="305" y="1403" on="1"/>
        <pt x="495" y="1406" on="1"/>
        <pt x="536" y="1406" on="0"/>
        <pt x="610" y="1401" on="0"/>
        <pt x="716" y="1380" on="0"/>
        <pt x="804" y="1346" on="0"/>
        <pt x="897" y="1281" on="0"/>
        <pt x="960" y="1193" on="0"/>
        <pt x="1001" y="1059" on="0"/>
        <pt x="1001" y="977" on="1"/>
        <pt x="1001" y="763" on="0"/>
        <pt x="788" y="616" on="1"/>
        <pt x="757" y="594" on="0"/>
        <pt x="757" y="570" on="1"/>
        <pt x="757" y="552" on="0"/>
        <pt x="774" y="526" on="1"/>
        <pt x="1008" y="150" on="1"/>
        <pt x="1030" y="114" on="0"/>
        <pt x="1030" y="88" on="1"/>
        <pt x="1030" y="48" on="0"/>
        <pt x="977" y="17" on="1"/>
        <pt x="934" y="-10" on="0"/>
        <pt x="898" y="-10" on="1"/>
        <pt x="865" y="-10" on="0"/>
        <pt x="840" y="33" on="1"/>
        <pt x="563" y="518" on="1"/>
        <pt x="551" y="536" on="0"/>
        <pt x="551" y="553" on="1"/>
        <pt x="551" y="581" on="0"/>
        <pt x="589" y="603" on="1"/>
        <pt x="687" y="658" on="0"/>
        <pt x="788" y="826" on="0"/>
      </contour>
      <contour>
        <pt x="133" y="644" on="1"/>
        <pt x="133" y="1124" on="1"/>
        <pt x="133" y="1160" on="0"/>
        <pt x="182" y="1183" on="0"/>
        <pt x="233" y="1183" on="1"/>
        <pt x="289" y="1183" on="0"/>
        <pt x="334" y="1160" on="0"/>
        <pt x="334" y="1124" on="1"/>
        <pt x="334" y="760" on="1"/>
        <pt x="334" y="717" on="0"/>
        <pt x="372" y="717" on="1"/>
        <pt x="547" y="717" on="1"/>
        <pt x="590" y="717" on="0"/>
        <pt x="590" y="692" on="1"/>
        <pt x="590" y="668" on="0"/>
        <pt x="496" y="605" on="0"/>
        <pt x="427" y="584" on="1"/>
        <pt x="385" y="571" on="0"/>
        <pt x="219" y="571" on="1"/>
        <pt x="168" y="571" on="0"/>
        <pt x="133" y="607" on="0"/>
      </contour>
      <contour>
        <pt x="334" y="449" on="1"/>
        <pt x="334" y="139" on="1"/>
        <pt x="334" y="90" on="0"/>
        <pt x="313" y="66" on="1"/>
        <pt x="288" y="36" on="0"/>
        <pt x="197" y="-10" on="0"/>
        <pt x="168" y="-10" on="1"/>
        <pt x="133" y="-10" on="0"/>
        <pt x="133" y="33" on="1"/>
        <pt x="133" y="449" on="1"/>
        <pt x="133" y="485" on="0"/>
        <pt x="184" y="511" on="0"/>
        <pt x="235" y="511" on="1"/>
        <pt x="290" y="511" on="0"/>
        <pt x="334" y="486" on="0"/>
      </contour>
    </TTGlyph>
    <TTGlyph name="S" xMin="72" yMin="-31" xMax="950" yMax="1434">
      <contour>
        <pt x="537" y="793" on="1"/>
        <pt x="616" y="778" on="0"/>
        <pt x="741" y="734" on="0"/>
        <pt x="827" y="685" on="0"/>
        <pt x="889" y="621" on="0"/>
        <pt x="924" y="561" on="0"/>
        <pt x="944" y="483" on="0"/>
        <pt x="950" y="418" on="0"/>
        <pt x="950" y="375" on="1"/>
        <pt x="950" y="295" on="0"/>
        <pt x="890" y="149" on="0"/>
        <pt x="801" y="54" on="0"/>
        <pt x="705" y="-2" on="0"/>
        <pt x="666" y="-2" on="1"/>
        <pt x="645" y="-2" on="0"/>
        <pt x="645" y="18" on="1"/>
        <pt x="645" y="31" on="0"/>
        <pt x="661" y="47" on="1"/>
        <pt x="712" y="96" on="0"/>
        <pt x="760" y="236" on="0"/>
        <pt x="760" y="293" on="1"/>
        <pt x="760" y="327" on="0"/>
        <pt x="758" y="365" on="0"/>
        <pt x="747" y="431" on="0"/>
        <pt x="726" y="472" on="0"/>
        <pt x="684" y="525" on="0"/>
        <pt x="624" y="560" on="0"/>
        <pt x="531" y="591" on="0"/>
        <pt x="471" y="600" on="1"/>
        <pt x="395" y="611" on="0"/>
        <pt x="274" y="648" on="0"/>
        <pt x="195" y="690" on="0"/>
        <pt x="138" y="746" on="0"/>
        <pt x="108" y="795" on="0"/>
        <pt x="92" y="857" on="0"/>
        <pt x="88" y="898" on="0"/>
        <pt x="88" y="924" on="1"/>
        <pt x="88" y="954" on="0"/>
        <pt x="97" y="981" on="1"/>
        <pt x="111" y="1024" on="0"/>
        <pt x="211" y="1102" on="0"/>
        <pt x="248" y="1102" on="1"/>
        <pt x="266" y="1102" on="0"/>
        <pt x="285" y="1087" on="0"/>
        <pt x="285" y="1063" on="1"/>
        <pt x="285" y="987" on="0"/>
        <pt x="304" y="899" on="0"/>
        <pt x="366" y="839" on="0"/>
        <pt x="454" y="809" on="0"/>
      </contour>
      <contour>
        <pt x="374" y="-31" on="1"/>
        <pt x="298" y="-31" on="0"/>
        <pt x="183" y="8" on="0"/>
        <pt x="115" y="70" on="1"/>
        <pt x="82" y="100" on="0"/>
        <pt x="82" y="133" on="1"/>
        <pt x="82" y="160" on="0"/>
        <pt x="104" y="182" on="1"/>
        <pt x="170" y="248" on="0"/>
        <pt x="223" y="248" on="1"/>
        <pt x="257" y="248" on="0"/>
        <pt x="299" y="213" on="1"/>
        <pt x="357" y="163" on="0"/>
        <pt x="434" y="133" on="0"/>
        <pt x="486" y="133" on="1"/>
        <pt x="530" y="133" on="0"/>
        <pt x="605" y="167" on="0"/>
        <pt x="612" y="167" on="1"/>
        <pt x="637" y="167" on="0"/>
        <pt x="637" y="135" on="1"/>
        <pt x="637" y="119" on="0"/>
        <pt x="611" y="69" on="0"/>
        <pt x="556" y="10" on="0"/>
        <pt x="445" y="-31" on="0"/>
      </contour>
      <contour>
        <pt x="872" y="1315" on="1"/>
        <pt x="872" y="1276" on="0"/>
        <pt x="769" y="1198" on="0"/>
        <pt x="731" y="1198" on="1"/>
        <pt x="707" y="1198" on="0"/>
        <pt x="625" y="1234" on="0"/>
        <pt x="522" y="1270" on="0"/>
        <pt x="473" y="1270" on="1"/>
        <pt x="389" y="1270" on="0"/>
        <pt x="244" y="1207" on="0"/>
        <pt x="162" y="1139" on="1"/>
        <pt x="108" y="1094" on="0"/>
        <pt x="94" y="1094" on="1"/>
        <pt x="72" y="1094" on="0"/>
        <pt x="72" y="1118" on="1"/>
        <pt x="72" y="1134" on="0"/>
        <pt x="110" y="1200" on="0"/>
        <pt x="127" y="1221" on="1"/>
        <pt x="303" y="1434" on="0"/>
        <pt x="594" y="1434" on="1"/>
        <pt x="649" y="1434" on="0"/>
        <pt x="775" y="1407" on="0"/>
        <pt x="872" y="1350" on="0"/>
      </contour>
    </TTGlyph>
    <TTGlyph name="T" xMin="31" yMin="-10" xMax="1034" yMax="1403">
      <contour>
        <pt x="893" y="1239" on="1"/>
        <pt x="74" y="1239" on="1"/>
        <pt x="31" y="1239" on="0"/>
        <pt x="31" y="1270" on="1"/>
        <pt x="31" y="1284" on="0"/>
        <pt x="71" y="1358" on="0"/>
        <pt x="98" y="1382" on="1"/>
        <pt x="121" y="1403" on="0"/>
        <pt x="172" y="1403" on="1"/>
        <pt x="991" y="1403" on="1"/>
        <pt x="1034" y="1403" on="0"/>
        <pt x="1034" y="1372" on="1"/>
        <pt x="1034" y="1358" on="0"/>
        <pt x="994" y="1284" on="0"/>
        <pt x="967" y="1260" on="1"/>
        <pt x="944" y="1239" on="0"/>
      </contour>
      <contour>
        <pt x="414" y="33" on="1"/>
        <pt x="413" y="1119" on="1"/>
        <pt x="413" y="1155" on="0"/>
        <pt x="462" y="1178" on="0"/>
        <pt x="513" y="1178" on="1"/>
        <pt x="569" y="1178" on="0"/>
        <pt x="614" y="1155" on="0"/>
        <pt x="614" y="1119" on="1"/>
        <pt x="614" y="139" on="1"/>
        <pt x="614" y="96" on="0"/>
        <pt x="594" y="72" on="1"/>
        <pt x="568" y="41" on="0"/>
        <pt x="477" y="-10" on="0"/>
        <pt x="449" y="-10" on="1"/>
        <pt x="414" y="-10" on="0"/>
      </contour>
    </TTGlyph>
    <TTGlyph name="Thorn" xMin="133" yMin="-10" xMax="989" yMax="1423">
      <contour>
        <pt x="334" y="1380" on="1"/>
        <pt x="334" y="1187" on="1"/>
        <pt x="334" y="1146" on="0"/>
        <pt x="373" y="1146" on="1"/>
        <pt x="481" y="1146" on="0"/>
        <pt x="539" y="1145" on="1"/>
        <pt x="595" y="1144" on="0"/>
        <pt x="703" y="1125" on="0"/>
        <pt x="831" y="1067" on="0"/>
        <pt x="925" y="975" on="0"/>
        <pt x="989" y="813" on="0"/>
        <pt x="989" y="708" on="1"/>
        <pt x="989" y="675" on="0"/>
        <pt x="973" y="597" on="0"/>
        <pt x="940" y="505" on="0"/>
        <pt x="877" y="419" on="0"/>
        <pt x="793" y="344" on="0"/>
        <pt x="667" y="291" on="0"/>
        <pt x="592" y="282" on="1"/>
        <pt x="586" y="282" on="1"/>
        <pt x="559" y="282" on="0"/>
        <pt x="559" y="305" on="1"/>
        <pt x="559" y="319" on="0"/>
        <pt x="582" y="333" on="1"/>
        <pt x="691" y="401" on="0"/>
        <pt x="776" y="563" on="0"/>
        <pt x="776" y="669" on="1"/>
        <pt x="776" y="842" on="0"/>
        <pt x="575" y="982" on="0"/>
        <pt x="381" y="982" on="1"/>
        <pt x="172" y="982" on="1"/>
        <pt x="133" y="982" on="0"/>
        <pt x="133" y="1023" on="1"/>
        <pt x="133" y="1274" on="1"/>
        <pt x="133" y="1316" on="0"/>
        <pt x="154" y="1341" on="1"/>
        <pt x="180" y="1372" on="0"/>
        <pt x="270" y="1423" on="0"/>
        <pt x="299" y="1423" on="1"/>
        <pt x="334" y="1423" on="0"/>
      </contour>
      <contour>
        <pt x="334" y="178" on="1"/>
        <pt x="334" y="139" on="1"/>
        <pt x="334" y="90" on="0"/>
        <pt x="313" y="66" on="1"/>
        <pt x="288" y="36" on="0"/>
        <pt x="197" y="-10" on="0"/>
        <pt x="168" y="-10" on="1"/>
        <pt x="133" y="-10" on="0"/>
        <pt x="133" y="33" on="1"/>
        <pt x="133" y="178" on="1"/>
        <pt x="133" y="214" on="0"/>
        <pt x="184" y="240" on="0"/>
        <pt x="234" y="240" on="1"/>
        <pt x="289" y="240" on="0"/>
        <pt x="334" y="215" on="0"/>
      </contour>
      <contour>
        <pt x="133" y="373" on="1"/>
        <pt x="133" y="866" on="1"/>
        <pt x="133" y="902" on="0"/>
        <pt x="182" y="925" on="0"/>
        <pt x="233" y="925" on="1"/>
        <pt x="289" y="925" on="0"/>
        <pt x="334" y="902" on="0"/>
        <pt x="334" y="866" on="1"/>
        <pt x="334" y="487" on="1"/>
        <pt x="334" y="446" on="0"/>
        <pt x="372" y="446" on="1"/>
        <pt x="539" y="446" on="1"/>
        <pt x="582" y="446" on="0"/>
        <pt x="582" y="421" on="1"/>
        <pt x="582" y="399" on="0"/>
        <pt x="494" y="334" on="0"/>
        <pt x="427" y="313" on="1"/>
        <pt x="385" y="300" on="0"/>
        <pt x="219" y="300" on="1"/>
        <pt x="168" y="300" on="0"/>
        <pt x="133" y="336" on="0"/>
      </contour>
    </TTGlyph>
    <TTGlyph name="U" xMin="133" yMin="-31" xMax="1149" yMax="1423">
      <contour>
        <pt x="1149" y="1380" on="1"/>
        <pt x="1149" y="766" on="1"/>
        <pt x="1149" y="382" on="0"/>
        <pt x="1071" y="205" on="1"/>
        <pt x="1032" y="117" on="0"/>
        <pt x="932" y="16" on="0"/>
        <pt x="889" y="16" on="1"/>
        <pt x="868" y="16" on="0"/>
        <pt x="868" y="37" on="1"/>
        <pt x="868" y="45" on="0"/>
        <pt x="880" y="64" on="0"/>
        <pt x="903" y="98" on="0"/>
        <pt x="911" y="115" on="1"/>
        <pt x="975" y="248" on="0"/>
        <pt x="975" y="557" on="1"/>
        <pt x="975" y="1294" on="1"/>
        <pt x="975" y="1354" on="0"/>
        <pt x="1076" y="1423" on="0"/>
        <pt x="1114" y="1423" on="1"/>
        <pt x="1149" y="1423" on="0"/>
      </contour>
      <contour>
        <pt x="334" y="1380" on="1"/>
        <pt x="334" y="672" on="1"/>
        <pt x="334" y="607" on="0"/>
        <pt x="337" y="516" on="0"/>
        <pt x="350" y="394" on="0"/>
        <pt x="372" y="311" on="0"/>
        <pt x="415" y="221" on="0"/>
        <pt x="474" y="168" on="0"/>
        <pt x="564" y="133" on="0"/>
        <pt x="621" y="133" on="1"/>
        <pt x="681" y="133" on="0"/>
        <pt x="773" y="158" on="0"/>
        <pt x="822" y="182" on="0"/>
        <pt x="831" y="182" on="1"/>
        <pt x="854" y="182" on="0"/>
        <pt x="854" y="158" on="1"/>
        <pt x="854" y="133" on="0"/>
        <pt x="816" y="71" on="0"/>
        <pt x="748" y="10" on="0"/>
        <pt x="632" y="-31" on="0"/>
        <pt x="565" y="-31" on="1"/>
        <pt x="461" y="-31" on="0"/>
        <pt x="308" y="34" on="0"/>
        <pt x="212" y="146" on="0"/>
        <pt x="155" y="324" on="0"/>
        <pt x="133" y="523" on="0"/>
        <pt x="133" y="655" on="1"/>
        <pt x="133" y="1274" on="1"/>
        <pt x="133" y="1316" on="0"/>
        <pt x="154" y="1341" on="1"/>
        <pt x="180" y="1372" on="0"/>
        <pt x="270" y="1423" on="0"/>
        <pt x="299" y="1423" on="1"/>
        <pt x="334" y="1423" on="0"/>
      </contour>
    </TTGlyph>
    <TTGlyph name="Uacute" xMin="133" yMin="-31" xMax="1149" yMax="2019">
      <component glyphName="U" x="0" y="0" flags="0x204"/>
      <component glyphName="acute.case" x="358" y="0" flags="0x4"/>
    </TTGlyph>
    <TTGlyph name="Ucircumflex" xMin="133" yMin="-31" xMax="1149" yMax="2016">
      <component glyphName="U" x="0" y="0" flags="0x204"/>
      <component glyphName="circumflex.case" x="198" y="0" flags="0x4"/>
    </TTGlyph>
    <TTGlyph name="Udieresis" xMin="133" yMin="-31" xMax="1149" yMax="2017">
      <component glyphName="U" x="0" y="0" flags="0x204"/>
      <component glyphName="dieresis.case" x="288" y="0" flags="0x4"/>
    </TTGlyph>
    <TTGlyph name="Ugrave" xMin="133" yMin="-31" xMax="1149" yMax="2019">
      <component glyphName="U" x="0" y="0" flags="0x204"/>
      <component glyphName="grave.case" x="358" y="0" flags="0x4"/>
    </TTGlyph>
    <TTGlyph name="V" xMin="50" yMin="-10" xMax="1077" yMax="1423">
      <contour>
        <pt x="392" y="245" on="1"/>
        <pt x="59" y="1282" on="1"/>
        <pt x="50" y="1303" on="0"/>
        <pt x="50" y="1327" on="1"/>
        <pt x="50" y="1352" on="0"/>
        <pt x="85" y="1392" on="0"/>
        <pt x="135" y="1412" on="0"/>
        <pt x="179" y="1423" on="0"/>
        <pt x="193" y="1423" on="1"/>
        <pt x="237" y="1423" on="0"/>
        <pt x="252" y="1374" on="1"/>
        <pt x="519" y="499" on="1"/>
        <pt x="537" y="440" on="0"/>
        <pt x="537" y="414" on="1"/>
        <pt x="537" y="364" on="0"/>
        <pt x="471" y="200" on="0"/>
        <pt x="435" y="200" on="1"/>
        <pt x="407" y="200" on="0"/>
      </contour>
      <contour>
        <pt x="1071" y="1354" on="1"/>
        <pt x="717" y="174" on="1"/>
        <pt x="704" y="141" on="0"/>
        <pt x="691" y="111" on="0"/>
        <pt x="655" y="58" on="0"/>
        <pt x="633" y="43" on="1"/>
        <pt x="600" y="20" on="0"/>
        <pt x="536" y="-10" on="0"/>
        <pt x="522" y="-10" on="1"/>
        <pt x="494" y="-10" on="0"/>
        <pt x="494" y="20" on="1"/>
        <pt x="494" y="32" on="0"/>
        <pt x="514" y="99" on="1"/>
        <pt x="860" y="1264" on="1"/>
        <pt x="877" y="1320" on="0"/>
        <pt x="995" y="1423" on="0"/>
        <pt x="1047" y="1423" on="1"/>
        <pt x="1077" y="1423" on="0"/>
        <pt x="1077" y="1393" on="1"/>
        <pt x="1077" y="1375" on="0"/>
      </contour>
    </TTGlyph>
    <TTGlyph name="W" xMin="43" yMin="-10" xMax="1599" yMax="1423">
      <contour>
        <pt x="719" y="692" on="1"/>
        <pt x="600" y="174" on="1"/>
        <pt x="579" y="83" on="0"/>
        <pt x="520" y="37" on="1"/>
        <pt x="460" y="-10" on="0"/>
        <pt x="430" y="-10" on="1"/>
        <pt x="401" y="-10" on="0"/>
        <pt x="401" y="20" on="1"/>
        <pt x="401" y="41" on="0"/>
        <pt x="631" y="1053" on="1"/>
        <pt x="640" y="1093" on="0"/>
        <pt x="666" y="1093" on="1"/>
        <pt x="694" y="1093" on="0"/>
        <pt x="739" y="903" on="0"/>
        <pt x="739" y="831" on="1"/>
        <pt x="739" y="784" on="0"/>
      </contour>
      <contour>
        <pt x="1593" y="1358" on="1"/>
        <pt x="1280" y="174" on="1"/>
        <pt x="1260" y="83" on="0"/>
        <pt x="1198" y="37" on="1"/>
        <pt x="1135" y="-10" on="0"/>
        <pt x="1099" y="-10" on="1"/>
        <pt x="1073" y="-10" on="0"/>
        <pt x="1073" y="46" on="0"/>
        <pt x="1090" y="106" on="1"/>
        <pt x="1390" y="1269" on="1"/>
        <pt x="1407" y="1333" on="0"/>
        <pt x="1520" y="1423" on="0"/>
        <pt x="1569" y="1423" on="1"/>
        <pt x="1599" y="1423" on="0"/>
        <pt x="1599" y="1393" on="1"/>
        <pt x="1599" y="1379" on="0"/>
      </contour>
      <contour>
        <pt x="288" y="235" on="1"/>
        <pt x="49" y="1268" on="1"/>
        <pt x="43" y="1298" on="0"/>
        <pt x="43" y="1305" on="1"/>
        <pt x="43" y="1352" on="0"/>
        <pt x="151" y="1423" on="0"/>
        <pt x="190" y="1423" on="1"/>
        <pt x="207" y="1423" on="0"/>
        <pt x="223" y="1404" on="0"/>
        <pt x="229" y="1378" on="1"/>
        <pt x="412" y="590" on="1"/>
        <pt x="423" y="541" on="0"/>
        <pt x="423" y="487" on="1"/>
        <pt x="423" y="377" on="0"/>
        <pt x="358" y="188" on="0"/>
        <pt x="327" y="188" on="1"/>
        <pt x="298" y="188" on="0"/>
      </contour>
      <contour>
        <pt x="727" y="1354" on="1"/>
        <pt x="750" y="1383" on="0"/>
        <pt x="827" y="1423" on="0"/>
        <pt x="852" y="1423" on="1"/>
        <pt x="868" y="1423" on="0"/>
        <pt x="886" y="1402" on="0"/>
        <pt x="893" y="1376" on="1"/>
        <pt x="1094" y="549" on="1"/>
        <pt x="1106" y="495" on="0"/>
        <pt x="1106" y="453" on="1"/>
        <pt x="1106" y="416" on="0"/>
        <pt x="1067" y="253" on="0"/>
        <pt x="1049" y="219" on="1"/>
        <pt x="1031" y="186" on="0"/>
        <pt x="1008" y="186" on="1"/>
        <pt x="979" y="186" on="0"/>
        <pt x="967" y="233" on="1"/>
        <pt x="713" y="1257" on="1"/>
        <pt x="707" y="1280" on="0"/>
        <pt x="707" y="1300" on="1"/>
        <pt x="707" y="1328" on="0"/>
      </contour>
    </TTGlyph>
    <TTGlyph name="X" xMin="41" yMin="-10" xMax="999" yMax="1423">
      <contour>
        <pt x="641" y="750" on="1"/>
        <pt x="641" y="728" on="0"/>
        <pt x="663" y="690" on="1"/>
        <pt x="981" y="150" on="1"/>
        <pt x="999" y="119" on="0"/>
        <pt x="999" y="96" on="1"/>
        <pt x="999" y="54" on="0"/>
        <pt x="902" y="-10" on="0"/>
        <pt x="864" y="-10" on="1"/>
        <pt x="824" y="-10" on="0"/>
        <pt x="795" y="39" on="1"/>
        <pt x="440" y="637" on="1"/>
        <pt x="420" y="670" on="0"/>
        <pt x="420" y="697" on="1"/>
        <pt x="420" y="719" on="0"/>
        <pt x="436" y="748" on="1"/>
        <pt x="751" y="1306" on="0"/>
        <pt x="782" y="1341" on="1"/>
        <pt x="809" y="1371" on="0"/>
        <pt x="918" y="1423" on="0"/>
        <pt x="949" y="1423" on="1"/>
        <pt x="981" y="1423" on="0"/>
        <pt x="981" y="1392" on="1"/>
        <pt x="981" y="1373" on="0"/>
        <pt x="961" y="1337" on="1"/>
        <pt x="668" y="821" on="1"/>
        <pt x="641" y="773" on="0"/>
      </contour>
      <contour>
        <pt x="432" y="402" on="1"/>
        <pt x="269" y="105" on="0"/>
        <pt x="238" y="74" on="1"/>
        <pt x="211" y="44" on="0"/>
        <pt x="106" y="-10" on="0"/>
        <pt x="76" y="-10" on="1"/>
        <pt x="43" y="-10" on="0"/>
        <pt x="41" y="18" on="1"/>
        <pt x="41" y="39" on="0"/>
        <pt x="61" y="76" on="1"/>
        <pt x="326" y="549" on="1"/>
        <pt x="349" y="589" on="0"/>
        <pt x="376" y="589" on="1"/>
        <pt x="402" y="589" on="0"/>
        <pt x="452" y="509" on="0"/>
        <pt x="452" y="470" on="1"/>
        <pt x="452" y="436" on="0"/>
      </contour>
      <contour>
        <pt x="307" y="880" on="1"/>
        <pt x="74" y="1270" on="1"/>
        <pt x="59" y="1292" on="0"/>
        <pt x="59" y="1311" on="1"/>
        <pt x="59" y="1354" on="0"/>
        <pt x="171" y="1423" on="0"/>
        <pt x="209" y="1423" on="1"/>
        <pt x="242" y="1423" on="0"/>
        <pt x="266" y="1382" on="1"/>
        <pt x="463" y="1036" on="1"/>
        <pt x="481" y="1004" on="0"/>
        <pt x="481" y="980" on="1"/>
        <pt x="481" y="946" on="0"/>
        <pt x="445" y="887" on="1"/>
        <pt x="405" y="822" on="0"/>
        <pt x="371" y="822" on="1"/>
        <pt x="351" y="822" on="0"/>
        <pt x="325" y="850" on="0"/>
      </contour>
    </TTGlyph>
    <TTGlyph name="Y" xMin="21" yMin="-10" xMax="1057" yMax="1423">
      <contour>
        <pt x="369" y="605" on="1"/>
        <pt x="35" y="1270" on="1"/>
        <pt x="21" y="1292" on="0"/>
        <pt x="21" y="1312" on="1"/>
        <pt x="21" y="1334" on="0"/>
        <pt x="54" y="1374" on="0"/>
        <pt x="101" y="1405" on="0"/>
        <pt x="151" y="1423" on="0"/>
        <pt x="169" y="1423" on="1"/>
        <pt x="208" y="1423" on="0"/>
        <pt x="227" y="1382" on="1"/>
        <pt x="487" y="827" on="1"/>
        <pt x="511" y="776" on="0"/>
        <pt x="511" y="743" on="1"/>
        <pt x="511" y="720" on="0"/>
        <pt x="491" y="660" on="0"/>
        <pt x="461" y="606" on="0"/>
        <pt x="426" y="568" on="0"/>
        <pt x="410" y="568" on="1"/>
        <pt x="388" y="568" on="0"/>
      </contour>
      <contour>
        <pt x="1042" y="1346" on="1"/>
        <pt x="696" y="553" on="1"/>
        <pt x="682" y="520" on="0"/>
        <pt x="669" y="483" on="0"/>
        <pt x="657" y="419" on="0"/>
        <pt x="657" y="382" on="1"/>
        <pt x="651" y="139" on="1"/>
        <pt x="649" y="88" on="0"/>
        <pt x="631" y="66" on="1"/>
        <pt x="606" y="36" on="0"/>
        <pt x="514" y="-10" on="0"/>
        <pt x="485" y="-10" on="1"/>
        <pt x="451" y="-10" on="0"/>
        <pt x="451" y="30" on="1"/>
        <pt x="457" y="338" on="1"/>
        <pt x="459" y="426" on="0"/>
        <pt x="496" y="516" on="1"/>
        <pt x="805" y="1266" on="1"/>
        <pt x="828" y="1321" on="0"/>
        <pt x="848" y="1343" on="1"/>
        <pt x="879" y="1377" on="0"/>
        <pt x="990" y="1423" on="0"/>
        <pt x="1024" y="1423" on="1"/>
        <pt x="1057" y="1423" on="0"/>
        <pt x="1057" y="1395" on="1"/>
        <pt x="1057" y="1380" on="0"/>
      </contour>
    </TTGlyph>
    <TTGlyph name="Yacute" xMin="21" yMin="-10" xMax="1057" yMax="2019">
      <component glyphName="Y" x="0" y="0" flags="0x204"/>
      <component glyphName="acute.case" x="255" y="0" flags="0x4"/>
    </TTGlyph>
    <TTGlyph name="Z" xMin="71" yMin="0" xMax="1001" yMax="1403">
      <contour>
        <pt x="850" y="0" on="1"/>
        <pt x="114" y="0" on="1"/>
        <pt x="71" y="0" on="0"/>
        <pt x="71" y="31" on="1"/>
        <pt x="71" y="45" on="0"/>
        <pt x="111" y="119" on="0"/>
        <pt x="138" y="143" on="1"/>
        <pt x="161" y="164" on="0"/>
        <pt x="212" y="164" on="1"/>
        <pt x="948" y="164" on="1"/>
        <pt x="991" y="164" on="0"/>
        <pt x="991" y="133" on="1"/>
        <pt x="991" y="119" on="0"/>
        <pt x="951" y="45" on="0"/>
        <pt x="924" y="21" on="1"/>
        <pt x="901" y="0" on="0"/>
      </contour>
      <contour>
        <pt x="835" y="1079" on="1"/>
        <pt x="413" y="326" on="1"/>
        <pt x="379" y="265" on="0"/>
        <pt x="318" y="224" on="0"/>
        <pt x="260" y="224" on="1"/>
        <pt x="195" y="224" on="0"/>
        <pt x="195" y="256" on="1"/>
        <pt x="195" y="272" on="0"/>
        <pt x="223" y="324" on="1"/>
        <pt x="643" y="1077" on="1"/>
        <pt x="676" y="1137" on="0"/>
        <pt x="735" y="1179" on="0"/>
        <pt x="798" y="1179" on="1"/>
        <pt x="862" y="1179" on="0"/>
        <pt x="862" y="1147" on="1"/>
        <pt x="862" y="1129" on="0"/>
      </contour>
      <contour>
        <pt x="287" y="1403" on="1"/>
        <pt x="958" y="1403" on="1"/>
        <pt x="1001" y="1403" on="0"/>
        <pt x="1001" y="1372" on="1"/>
        <pt x="1001" y="1358" on="0"/>
        <pt x="961" y="1285" on="0"/>
        <pt x="933" y="1260" on="1"/>
        <pt x="910" y="1239" on="0"/>
        <pt x="860" y="1239" on="1"/>
        <pt x="154" y="1239" on="1"/>
        <pt x="139" y="1239" on="0"/>
        <pt x="125" y="1242" on="0"/>
        <pt x="114" y="1256" on="0"/>
        <pt x="114" y="1269" on="1"/>
        <pt x="114" y="1306" on="0"/>
        <pt x="231" y="1403" on="0"/>
      </contour>
    </TTGlyph>
    <TTGlyph name="a" xMin="119" yMin="-31" xMax="879" yMax="1055">
      <contour>
        <pt x="520" y="1055" on="1"/>
        <pt x="604" y="1055" on="0"/>
        <pt x="738" y="1011" on="0"/>
        <pt x="830" y="914" on="0"/>
        <pt x="879" y="761" on="0"/>
        <pt x="879" y="653" on="1"/>
        <pt x="879" y="111" on="1"/>
        <pt x="879" y="86" on="0"/>
        <pt x="848" y="42" on="0"/>
        <pt x="803" y="9" on="0"/>
        <pt x="752" y="-10" on="0"/>
        <pt x="733" y="-10" on="1"/>
        <pt x="698" y="-10" on="0"/>
        <pt x="698" y="33" on="1"/>
        <pt x="698" y="616" on="1"/>
        <pt x="698" y="911" on="0"/>
        <pt x="464" y="911" on="1"/>
        <pt x="328" y="911" on="0"/>
        <pt x="217" y="836" on="1"/>
        <pt x="173" y="807" on="0"/>
        <pt x="160" y="807" on="1"/>
        <pt x="145" y="807" on="0"/>
        <pt x="145" y="823" on="1"/>
        <pt x="145" y="851" on="0"/>
        <pt x="176" y="889" on="1"/>
        <pt x="312" y="1055" on="0"/>
      </contour>
      <contour>
        <pt x="622" y="56" on="1"/>
        <pt x="580" y="18" on="0"/>
        <pt x="456" y="-31" on="0"/>
        <pt x="399" y="-31" on="1"/>
        <pt x="266" y="-31" on="0"/>
        <pt x="125" y="110" on="0"/>
        <pt x="125" y="213" on="1"/>
        <pt x="125" y="287" on="0"/>
        <pt x="176" y="326" on="1"/>
        <pt x="222" y="362" on="0"/>
        <pt x="256" y="362" on="1"/>
        <pt x="267" y="362" on="0"/>
        <pt x="283" y="346" on="0"/>
        <pt x="283" y="330" on="1"/>
        <pt x="283" y="216" on="0"/>
        <pt x="361" y="113" on="0"/>
        <pt x="461" y="113" on="1"/>
        <pt x="491" y="113" on="0"/>
        <pt x="577" y="134" on="0"/>
        <pt x="607" y="152" on="1"/>
        <pt x="625" y="163" on="0"/>
        <pt x="634" y="163" on="1"/>
        <pt x="648" y="163" on="0"/>
        <pt x="648" y="126" on="1"/>
        <pt x="648" y="80" on="0"/>
      </contour>
      <contour>
        <pt x="614" y="596" on="1"/>
        <pt x="633" y="586" on="0"/>
        <pt x="647" y="553" on="0"/>
        <pt x="647" y="508" on="1"/>
        <pt x="647" y="468" on="0"/>
        <pt x="634" y="433" on="0"/>
        <pt x="617" y="433" on="1"/>
        <pt x="606" y="433" on="0"/>
        <pt x="586" y="442" on="1"/>
        <pt x="492" y="483" on="0"/>
        <pt x="416" y="483" on="1"/>
        <pt x="293" y="483" on="0"/>
        <pt x="182" y="394" on="1"/>
        <pt x="147" y="366" on="0"/>
        <pt x="135" y="366" on="1"/>
        <pt x="119" y="366" on="0"/>
        <pt x="119" y="384" on="1"/>
        <pt x="119" y="412" on="0"/>
        <pt x="139" y="445" on="1"/>
        <pt x="192" y="534" on="0"/>
        <pt x="365" y="627" on="0"/>
        <pt x="471" y="627" on="1"/>
        <pt x="552" y="627" on="0"/>
      </contour>
    </TTGlyph>
    <TTGlyph name="aacute" xMin="119" yMin="-31" xMax="879" yMax="1673">
      <component glyphName="a" x="0" y="0" flags="0x204"/>
      <component glyphName="acute" x="259" y="0" flags="0x4"/>
    </TTGlyph>
    <TTGlyph name="acircumflex" xMin="119" yMin="-31" xMax="879" yMax="1644">
      <component glyphName="a" x="0" y="0" flags="0x204"/>
      <component glyphName="circumflex" x="120" y="0" flags="0x4"/>
    </TTGlyph>
    <TTGlyph name="acute" xMin="80" yMin="1216" xMax="403" yMax="1673">
      <contour>
        <pt x="120" y="1396" on="1"/>
        <pt x="306" y="1647" on="1"/>
        <pt x="325" y="1673" on="0"/>
        <pt x="342" y="1673" on="1"/>
        <pt x="365" y="1673" on="0"/>
        <pt x="403" y="1594" on="0"/>
        <pt x="403" y="1543" on="1"/>
        <pt x="403" y="1500" on="0"/>
        <pt x="370" y="1466" on="1"/>
        <pt x="153" y="1237" on="1"/>
        <pt x="132" y="1216" on="0"/>
        <pt x="116" y="1216" on="1"/>
        <pt x="98" y="1216" on="0"/>
        <pt x="80" y="1262" on="0"/>
        <pt x="80" y="1292" on="1"/>
        <pt x="80" y="1343" on="0"/>
      </contour>
    </TTGlyph>
    <TTGlyph name="acute.case" xMin="80" yMin="1587" xMax="486" yMax="2019">
      <contour>
        <pt x="416" y="2004" on="1"/>
        <pt x="428" y="2014" on="0"/>
        <pt x="443" y="2019" on="0"/>
        <pt x="449" y="2019" on="1"/>
        <pt x="463" y="2019" on="0"/>
        <pt x="486" y="1978" on="0"/>
        <pt x="486" y="1941" on="1"/>
        <pt x="486" y="1915" on="0"/>
        <pt x="481" y="1869" on="0"/>
        <pt x="466" y="1828" on="0"/>
        <pt x="438" y="1792" on="0"/>
        <pt x="415" y="1777" on="1"/>
        <pt x="136" y="1600" on="1"/>
        <pt x="124" y="1592" on="0"/>
        <pt x="108" y="1587" on="0"/>
        <pt x="103" y="1587" on="1"/>
        <pt x="90" y="1587" on="0"/>
        <pt x="80" y="1606" on="0"/>
        <pt x="80" y="1620" on="1"/>
        <pt x="80" y="1661" on="0"/>
        <pt x="119" y="1756" on="0"/>
        <pt x="164" y="1794" on="1"/>
      </contour>
    </TTGlyph>
    <TTGlyph name="adieresis" xMin="119" yMin="-31" xMax="879" yMax="1576">
      <component glyphName="a" x="0" y="0" flags="0x204"/>
      <component glyphName="dieresis" x="168" y="0" flags="0x4"/>
    </TTGlyph>
    <TTGlyph name="ae" xMin="119" yMin="-31" xMax="1433" yMax="1055">
      <contour>
        <pt x="888" y="617" on="1"/>
        <pt x="888" y="589" on="0"/>
        <pt x="923" y="574" on="0"/>
        <pt x="957" y="574" on="1"/>
        <pt x="1026" y="574" on="0"/>
        <pt x="1132" y="601" on="0"/>
        <pt x="1193" y="643" on="0"/>
        <pt x="1231" y="699" on="0"/>
        <pt x="1244" y="748" on="0"/>
        <pt x="1244" y="774" on="1"/>
        <pt x="1244" y="833" on="0"/>
        <pt x="1161" y="911" on="0"/>
        <pt x="1068" y="911" on="1"/>
        <pt x="944" y="911" on="0"/>
        <pt x="808" y="817" on="1"/>
        <pt x="751" y="776" on="0"/>
        <pt x="720" y="776" on="1"/>
        <pt x="686" y="776" on="0"/>
        <pt x="657" y="815" on="1"/>
        <pt x="587" y="911" on="0"/>
        <pt x="464" y="911" on="1"/>
        <pt x="328" y="911" on="0"/>
        <pt x="217" y="836" on="1"/>
        <pt x="174" y="807" on="0"/>
        <pt x="160" y="807" on="1"/>
        <pt x="145" y="807" on="0"/>
        <pt x="145" y="823" on="1"/>
        <pt x="145" y="850" on="0"/>
        <pt x="176" y="889" on="1"/>
        <pt x="313" y="1055" on="0"/>
        <pt x="520" y="1055" on="1"/>
        <pt x="604" y="1055" on="0"/>
        <pt x="728" y="1014" on="0"/>
        <pt x="782" y="963" on="1"/>
        <pt x="803" y="942" on="0"/>
        <pt x="823" y="942" on="1"/>
        <pt x="839" y="942" on="0"/>
        <pt x="866" y="961" on="1"/>
        <pt x="989" y="1055" on="0"/>
        <pt x="1113" y="1055" on="1"/>
        <pt x="1258" y="1055" on="0"/>
        <pt x="1433" y="916" on="0"/>
        <pt x="1433" y="780" on="1"/>
        <pt x="1433" y="625" on="0"/>
        <pt x="1150" y="435" on="0"/>
        <pt x="901" y="435" on="1"/>
        <pt x="835" y="435" on="0"/>
        <pt x="744" y="443" on="1"/>
        <pt x="699" y="446" on="0"/>
        <pt x="699" y="487" on="1"/>
        <pt x="699" y="689" on="0"/>
        <pt x="814" y="758" on="1"/>
        <pt x="866" y="788" on="0"/>
        <pt x="914" y="788" on="0"/>
        <pt x="914" y="758" on="1"/>
        <pt x="914" y="746" on="0"/>
        <pt x="888" y="633" on="0"/>
      </contour>
      <contour>
        <pt x="1066" y="-31" on="1"/>
        <pt x="706" y="-31" on="0"/>
        <pt x="706" y="305" on="1"/>
        <pt x="706" y="329" on="0"/>
        <pt x="710" y="353" on="0"/>
        <pt x="726" y="380" on="0"/>
        <pt x="766" y="390" on="0"/>
        <pt x="800" y="390" on="1"/>
        <pt x="856" y="390" on="0"/>
        <pt x="887" y="372" on="0"/>
        <pt x="888" y="336" on="1"/>
        <pt x="890" y="267" on="0"/>
        <pt x="930" y="175" on="0"/>
        <pt x="1002" y="130" on="0"/>
        <pt x="1081" y="113" on="0"/>
        <pt x="1134" y="113" on="1"/>
        <pt x="1191" y="113" on="0"/>
        <pt x="1290" y="141" on="0"/>
        <pt x="1345" y="175" on="0"/>
        <pt x="1392" y="203" on="0"/>
        <pt x="1402" y="203" on="1"/>
        <pt x="1425" y="203" on="0"/>
        <pt x="1425" y="178" on="1"/>
        <pt x="1425" y="157" on="0"/>
        <pt x="1381" y="91" on="0"/>
        <pt x="1300" y="20" on="0"/>
        <pt x="1153" y="-31" on="0"/>
      </contour>
      <contour>
        <pt x="660" y="89" on="1"/>
        <pt x="615" y="33" on="0"/>
        <pt x="473" y="-31" on="0"/>
        <pt x="399" y="-31" on="1"/>
        <pt x="266" y="-31" on="0"/>
        <pt x="125" y="110" on="0"/>
        <pt x="125" y="213" on="1"/>
        <pt x="125" y="287" on="0"/>
        <pt x="176" y="326" on="1"/>
        <pt x="222" y="362" on="0"/>
        <pt x="256" y="362" on="1"/>
        <pt x="267" y="362" on="0"/>
        <pt x="283" y="346" on="0"/>
        <pt x="283" y="330" on="1"/>
        <pt x="283" y="217" on="0"/>
        <pt x="357" y="113" on="0"/>
        <pt x="446" y="113" on="1"/>
        <pt x="482" y="113" on="0"/>
        <pt x="548" y="134" on="0"/>
        <pt x="583" y="155" on="0"/>
        <pt x="608" y="174" on="1"/>
        <pt x="612" y="177" on="0"/>
        <pt x="626" y="188" on="0"/>
        <pt x="633" y="193" on="0"/>
        <pt x="643" y="198" on="0"/>
        <pt x="648" y="198" on="1"/>
        <pt x="666" y="198" on="0"/>
        <pt x="676" y="156" on="1"/>
        <pt x="680" y="144" on="0"/>
        <pt x="680" y="130" on="1"/>
        <pt x="680" y="115" on="0"/>
      </contour>
      <contour>
        <pt x="619" y="621" on="1"/>
        <pt x="632" y="614" on="0"/>
        <pt x="643" y="603" on="0"/>
        <pt x="652" y="572" on="0"/>
        <pt x="652" y="545" on="1"/>
        <pt x="652" y="463" on="0"/>
        <pt x="621" y="463" on="1"/>
        <pt x="608" y="463" on="0"/>
        <pt x="502" y="499" on="0"/>
        <pt x="451" y="499" on="1"/>
        <pt x="375" y="499" on="0"/>
        <pt x="252" y="450" on="0"/>
        <pt x="182" y="394" on="1"/>
        <pt x="147" y="366" on="0"/>
        <pt x="135" y="366" on="1"/>
        <pt x="119" y="366" on="0"/>
        <pt x="119" y="384" on="1"/>
        <pt x="119" y="412" on="0"/>
        <pt x="139" y="445" on="1"/>
        <pt x="196" y="541" on="0"/>
        <pt x="376" y="643" on="0"/>
        <pt x="486" y="643" on="1"/>
        <pt x="575" y="643" on="0"/>
      </contour>
    </TTGlyph>
    <TTGlyph name="agrave" xMin="119" yMin="-31" xMax="879" yMax="1673">
      <component glyphName="a" x="0" y="0" flags="0x204"/>
      <component glyphName="grave" x="258" y="0" flags="0x4"/>
    </TTGlyph>
    <TTGlyph name="ampersand" xMin="45" yMin="-31" xMax="1494" yMax="1434">
      <contour>
        <pt x="1117" y="574" on="1"/>
        <pt x="1117" y="424" on="1"/>
        <pt x="1117" y="338" on="0"/>
        <pt x="1137" y="219" on="0"/>
        <pt x="1176" y="145" on="0"/>
        <pt x="1235" y="113" on="0"/>
        <pt x="1275" y="113" on="1"/>
        <pt x="1322" y="113" on="0"/>
        <pt x="1385" y="136" on="0"/>
        <pt x="1427" y="163" on="0"/>
        <pt x="1455" y="186" on="0"/>
        <pt x="1469" y="186" on="1"/>
        <pt x="1482" y="186" on="0"/>
        <pt x="1494" y="171" on="0"/>
        <pt x="1494" y="159" on="1"/>
        <pt x="1494" y="142" on="0"/>
        <pt x="1467" y="79" on="0"/>
        <pt x="1403" y="16" on="0"/>
        <pt x="1298" y="-31" on="0"/>
        <pt x="1219" y="-31" on="1"/>
        <pt x="1142" y="-31" on="0"/>
        <pt x="1035" y="13" on="0"/>
        <pt x="967" y="112" on="0"/>
        <pt x="937" y="271" on="0"/>
        <pt x="937" y="387" on="1"/>
        <pt x="937" y="574" on="1"/>
        <pt x="937" y="596" on="0"/>
        <pt x="956" y="619" on="0"/>
        <pt x="985" y="629" on="0"/>
        <pt x="1016" y="629" on="0"/>
        <pt x="1028" y="629" on="1"/>
        <pt x="1046" y="629" on="0"/>
        <pt x="1079" y="626" on="0"/>
        <pt x="1103" y="615" on="0"/>
        <pt x="1117" y="593" on="0"/>
      </contour>
      <contour>
        <pt x="875" y="1315" on="1"/>
        <pt x="875" y="1276" on="0"/>
        <pt x="772" y="1198" on="0"/>
        <pt x="734" y="1198" on="1"/>
        <pt x="710" y="1198" on="0"/>
        <pt x="628" y="1234" on="0"/>
        <pt x="525" y="1270" on="0"/>
        <pt x="476" y="1270" on="1"/>
        <pt x="371" y="1270" on="0"/>
        <pt x="218" y="1208" on="0"/>
        <pt x="135" y="1139" on="1"/>
        <pt x="81" y="1094" on="0"/>
        <pt x="67" y="1094" on="1"/>
        <pt x="45" y="1094" on="0"/>
        <pt x="45" y="1118" on="1"/>
        <pt x="45" y="1134" on="0"/>
        <pt x="83" y="1200" on="0"/>
        <pt x="100" y="1221" on="1"/>
        <pt x="191" y="1331" on="0"/>
        <pt x="422" y="1434" on="0"/>
        <pt x="597" y="1434" on="1"/>
        <pt x="652" y="1434" on="0"/>
        <pt x="778" y="1407" on="0"/>
        <pt x="875" y="1350" on="0"/>
      </contour>
      <contour>
        <pt x="317" y="594" on="1"/>
        <pt x="317" y="577" on="0"/>
        <pt x="299" y="541" on="1"/>
        <pt x="261" y="465" on="0"/>
        <pt x="261" y="389" on="1"/>
        <pt x="261" y="259" on="0"/>
        <pt x="406" y="133" on="0"/>
        <pt x="558" y="133" on="1"/>
        <pt x="616" y="133" on="0"/>
        <pt x="737" y="171" on="0"/>
        <pt x="794" y="201" on="0"/>
        <pt x="836" y="227" on="1"/>
        <pt x="857" y="239" on="0"/>
        <pt x="867" y="239" on="1"/>
        <pt x="888" y="239" on="0"/>
        <pt x="888" y="194" on="1"/>
        <pt x="888" y="134" on="0"/>
        <pt x="856" y="104" on="1"/>
        <pt x="795" y="46" on="0"/>
        <pt x="612" y="-31" on="0"/>
        <pt x="495" y="-31" on="1"/>
        <pt x="391" y="-31" on="0"/>
        <pt x="229" y="15" on="0"/>
        <pt x="133" y="87" on="0"/>
        <pt x="71" y="188" on="0"/>
        <pt x="49" y="287" on="0"/>
        <pt x="49" y="342" on="1"/>
        <pt x="49" y="489" on="0"/>
        <pt x="114" y="594" on="1"/>
        <pt x="151" y="653" on="0"/>
        <pt x="202" y="653" on="1"/>
        <pt x="239" y="653" on="0"/>
        <pt x="317" y="620" on="0"/>
      </contour>
      <contour>
        <pt x="1117" y="1107" on="1"/>
        <pt x="1117" y="877" on="1"/>
        <pt x="1117" y="846" on="0"/>
        <pt x="1145" y="824" on="0"/>
        <pt x="1170" y="824" on="1"/>
        <pt x="1438" y="824" on="1"/>
        <pt x="1473" y="824" on="0"/>
        <pt x="1473" y="801" on="1"/>
        <pt x="1473" y="777" on="0"/>
        <pt x="1406" y="705" on="0"/>
        <pt x="1373" y="693" on="1"/>
        <pt x="1341" y="681" on="0"/>
        <pt x="1258" y="681" on="1"/>
        <pt x="990" y="681" on="1"/>
        <pt x="965" y="681" on="0"/>
        <pt x="937" y="703" on="0"/>
        <pt x="937" y="734" on="1"/>
        <pt x="937" y="1024" on="1"/>
        <pt x="937" y="1079" on="0"/>
        <pt x="1035" y="1150" on="0"/>
        <pt x="1082" y="1150" on="1"/>
        <pt x="1117" y="1150" on="0"/>
      </contour>
      <contour>
        <pt x="885" y="791" on="1"/>
        <pt x="885" y="734" on="1"/>
        <pt x="885" y="709" on="0"/>
        <pt x="863" y="681" on="0"/>
        <pt x="832" y="681" on="1"/>
        <pt x="484" y="681" on="1"/>
        <pt x="381" y="681" on="0"/>
        <pt x="227" y="710" on="0"/>
        <pt x="138" y="756" on="0"/>
        <pt x="84" y="823" on="0"/>
        <pt x="67" y="886" on="0"/>
        <pt x="67" y="924" on="1"/>
        <pt x="67" y="954" on="0"/>
        <pt x="76" y="981" on="1"/>
        <pt x="90" y="1024" on="0"/>
        <pt x="184" y="1102" on="0"/>
        <pt x="221" y="1102" on="1"/>
        <pt x="239" y="1102" on="0"/>
        <pt x="258" y="1087" on="0"/>
        <pt x="258" y="1063" on="1"/>
        <pt x="258" y="1002" on="0"/>
        <pt x="282" y="922" on="0"/>
        <pt x="333" y="866" on="0"/>
        <pt x="430" y="836" on="0"/>
        <pt x="559" y="824" on="0"/>
        <pt x="658" y="824" on="1"/>
        <pt x="863" y="824" on="1"/>
        <pt x="885" y="824" on="0"/>
      </contour>
    </TTGlyph>
    <TTGlyph name="aring" xMin="119" yMin="-31" xMax="879" yMax="1650">
      <component glyphName="a" x="0" y="0" flags="0x204"/>
      <component glyphName="ring" x="194" y="0" flags="0x4"/>
    </TTGlyph>
    <TTGlyph name="asciicircum" xMin="90" yMin="1457" xMax="1334" yMax="2380">
      <contour>
        <pt x="181" y="1460" on="1"/>
        <pt x="155" y="1460" on="0"/>
        <pt x="90" y="1512" on="0"/>
        <pt x="90" y="1543" on="1"/>
        <pt x="90" y="1557" on="0"/>
        <pt x="108" y="1586" on="1"/>
        <pt x="540" y="2182" on="1"/>
        <pt x="558" y="2207" on="0"/>
        <pt x="574" y="2207" on="1"/>
        <pt x="596" y="2207" on="0"/>
        <pt x="657" y="2122" on="0"/>
        <pt x="657" y="2095" on="1"/>
        <pt x="657" y="2075" on="0"/>
        <pt x="639" y="2048" on="1"/>
        <pt x="228" y="1487" on="1"/>
        <pt x="204" y="1460" on="0"/>
      </contour>
      <contour>
        <pt x="1242" y="1457" on="1"/>
        <pt x="1219" y="1457" on="0"/>
        <pt x="1195" y="1484" on="1"/>
        <pt x="653" y="2233" on="1"/>
        <pt x="635" y="2258" on="0"/>
        <pt x="635" y="2280" on="1"/>
        <pt x="635" y="2307" on="0"/>
        <pt x="702" y="2380" on="0"/>
        <pt x="727" y="2380" on="1"/>
        <pt x="746" y="2380" on="0"/>
        <pt x="760" y="2362" on="1"/>
        <pt x="1316" y="1586" on="1"/>
        <pt x="1334" y="1557" on="0"/>
        <pt x="1334" y="1543" on="1"/>
        <pt x="1334" y="1512" on="0"/>
        <pt x="1268" y="1457" on="0"/>
      </contour>
    </TTGlyph>
    <TTGlyph name="asciitilde" xMin="164" yMin="468" xMax="1073" yMax="772">
      <contour>
        <pt x="214" y="698" on="1"/>
        <pt x="305" y="772" on="0"/>
        <pt x="421" y="772" on="1"/>
        <pt x="475" y="772" on="0"/>
        <pt x="560" y="750" on="0"/>
        <pt x="630" y="717" on="0"/>
        <pt x="689" y="679" on="0"/>
        <pt x="746" y="646" on="0"/>
        <pt x="806" y="624" on="0"/>
        <pt x="841" y="624" on="1"/>
        <pt x="934" y="624" on="0"/>
        <pt x="1008" y="665" on="1"/>
        <pt x="1048" y="687" on="0"/>
        <pt x="1057" y="687" on="1"/>
        <pt x="1073" y="687" on="0"/>
        <pt x="1073" y="660" on="1"/>
        <pt x="1073" y="606" on="0"/>
        <pt x="1026" y="532" on="0"/>
        <pt x="954" y="487" on="0"/>
        <pt x="867" y="468" on="0"/>
        <pt x="827" y="468" on="1"/>
        <pt x="775" y="468" on="0"/>
        <pt x="695" y="490" on="0"/>
        <pt x="629" y="522" on="0"/>
        <pt x="570" y="561" on="0"/>
        <pt x="508" y="593" on="0"/>
        <pt x="437" y="615" on="0"/>
        <pt x="392" y="615" on="1"/>
        <pt x="306" y="615" on="0"/>
        <pt x="227" y="569" on="1"/>
        <pt x="192" y="549" on="0"/>
        <pt x="180" y="549" on="1"/>
        <pt x="164" y="549" on="0"/>
        <pt x="164" y="576" on="1"/>
        <pt x="164" y="659" on="0"/>
      </contour>
    </TTGlyph>
    <TTGlyph name="asterisk" xMin="165" yMin="820" xMax="906" yMax="1536">
      <contour>
        <pt x="440" y="1120" on="1"/>
        <pt x="438" y="1124" on="1"/>
        <pt x="203" y="1186" on="1"/>
        <pt x="165" y="1196" on="0"/>
        <pt x="165" y="1229" on="1"/>
        <pt x="165" y="1271" on="0"/>
        <pt x="204" y="1332" on="0"/>
        <pt x="224" y="1332" on="1"/>
        <pt x="233" y="1332" on="0"/>
        <pt x="475" y="1237" on="1"/>
        <pt x="479" y="1241" on="1"/>
        <pt x="463" y="1486" on="0"/>
        <pt x="463" y="1490" on="1"/>
        <pt x="463" y="1517" on="0"/>
        <pt x="495" y="1536" on="0"/>
        <pt x="535" y="1536" on="1"/>
        <pt x="577" y="1536" on="0"/>
        <pt x="610" y="1516" on="0"/>
        <pt x="610" y="1488" on="1"/>
        <pt x="596" y="1239" on="1"/>
        <pt x="600" y="1237" on="1"/>
        <pt x="846" y="1332" on="0"/>
        <pt x="853" y="1332" on="1"/>
        <pt x="875" y="1332" on="0"/>
        <pt x="906" y="1267" on="0"/>
        <pt x="906" y="1228" on="1"/>
        <pt x="906" y="1195" on="0"/>
        <pt x="870" y="1186" on="1"/>
        <pt x="635" y="1126" on="1"/>
        <pt x="635" y="1120" on="1"/>
        <pt x="788" y="934" on="1"/>
        <pt x="803" y="916" on="0"/>
        <pt x="803" y="898" on="1"/>
        <pt x="803" y="878" on="0"/>
        <pt x="727" y="821" on="0"/>
        <pt x="683" y="821" on="0"/>
        <pt x="668" y="844" on="1"/>
        <pt x="537" y="1051" on="1"/>
        <pt x="532" y="1051" on="1"/>
        <pt x="406" y="846" on="1"/>
        <pt x="386" y="820" on="0"/>
        <pt x="367" y="820" on="1"/>
        <pt x="343" y="820" on="0"/>
        <pt x="271" y="879" on="0"/>
        <pt x="271" y="899" on="1"/>
        <pt x="271" y="915" on="0"/>
        <pt x="285" y="932" on="1"/>
      </contour>
    </TTGlyph>
    <TTGlyph name="at" xMin="133" yMin="-440" xMax="1997" yMax="1434">
      <contour>
        <pt x="379" y="850" on="1"/>
        <pt x="379" y="841" on="0"/>
        <pt x="360" y="736" on="0"/>
        <pt x="340" y="562" on="0"/>
        <pt x="340" y="469" on="1"/>
        <pt x="340" y="404" on="0"/>
        <pt x="350" y="287" on="0"/>
        <pt x="385" y="130" on="0"/>
        <pt x="443" y="2" on="0"/>
        <pt x="551" y="-130" on="0"/>
        <pt x="696" y="-219" on="0"/>
        <pt x="913" y="-276" on="0"/>
        <pt x="1047" y="-276" on="1"/>
        <pt x="1122" y="-276" on="0"/>
        <pt x="1248" y="-250" on="0"/>
        <pt x="1319" y="-225" on="0"/>
        <pt x="1327" y="-225" on="1"/>
        <pt x="1349" y="-225" on="0"/>
        <pt x="1349" y="-250" on="1"/>
        <pt x="1349" y="-273" on="0"/>
        <pt x="1283" y="-338" on="0"/>
        <pt x="1177" y="-398" on="0"/>
        <pt x="1023" y="-440" on="0"/>
        <pt x="945" y="-440" on="1"/>
        <pt x="814" y="-440" on="0"/>
        <pt x="591" y="-387" on="0"/>
        <pt x="427" y="-294" on="0"/>
        <pt x="297" y="-161" on="0"/>
        <pt x="212" y="-11" on="0"/>
        <pt x="157" y="166" on="0"/>
        <pt x="133" y="339" on="0"/>
        <pt x="133" y="432" on="1"/>
        <pt x="133" y="681" on="0"/>
        <pt x="180" y="770" on="1"/>
        <pt x="207" y="822" on="0"/>
        <pt x="312" y="887" on="0"/>
        <pt x="348" y="887" on="1"/>
        <pt x="379" y="887" on="0"/>
      </contour>
      <contour>
        <pt x="1149" y="201" on="1"/>
        <pt x="1158" y="207" on="0"/>
        <pt x="1165" y="207" on="1"/>
        <pt x="1180" y="207" on="0"/>
        <pt x="1180" y="173" on="1"/>
        <pt x="1180" y="129" on="0"/>
        <pt x="1155" y="108" on="1"/>
        <pt x="1063" y="33" on="0"/>
        <pt x="950" y="33" on="1"/>
        <pt x="894" y="33" on="0"/>
        <pt x="806" y="51" on="0"/>
        <pt x="715" y="108" on="0"/>
        <pt x="656" y="204" on="0"/>
        <pt x="618" y="369" on="0"/>
        <pt x="618" y="481" on="1"/>
        <pt x="618" y="538" on="0"/>
        <pt x="643" y="651" on="0"/>
        <pt x="662" y="679" on="1"/>
        <pt x="684" y="714" on="0"/>
        <pt x="769" y="769" on="0"/>
        <pt x="799" y="769" on="1"/>
        <pt x="819" y="769" on="0"/>
        <pt x="819" y="742" on="1"/>
        <pt x="819" y="736" on="0"/>
        <pt x="804" y="670" on="0"/>
        <pt x="788" y="559" on="0"/>
        <pt x="788" y="498" on="1"/>
        <pt x="788" y="326" on="0"/>
        <pt x="895" y="162" on="0"/>
        <pt x="1018" y="162" on="1"/>
        <pt x="1082" y="162" on="0"/>
      </contour>
      <contour>
        <pt x="1119" y="845" on="1"/>
        <pt x="1057" y="885" on="0"/>
        <pt x="968" y="885" on="1"/>
        <pt x="851" y="885" on="0"/>
        <pt x="723" y="797" on="1"/>
        <pt x="688" y="772" on="0"/>
        <pt x="678" y="772" on="1"/>
        <pt x="664" y="772" on="0"/>
        <pt x="664" y="788" on="1"/>
        <pt x="664" y="806" on="0"/>
        <pt x="688" y="846" on="1"/>
        <pt x="798" y="1014" on="0"/>
        <pt x="1009" y="1014" on="1"/>
        <pt x="1082" y="1014" on="0"/>
        <pt x="1138" y="988" on="1"/>
        <pt x="1179" y="970" on="0"/>
        <pt x="1179" y="912" on="1"/>
        <pt x="1179" y="832" on="0"/>
        <pt x="1151" y="832" on="1"/>
        <pt x="1139" y="832" on="0"/>
      </contour>
      <contour>
        <pt x="1227" y="280" on="1"/>
        <pt x="1227" y="897" on="1"/>
        <pt x="1227" y="934" on="0"/>
        <pt x="1243" y="952" on="1"/>
        <pt x="1266" y="979" on="0"/>
        <pt x="1331" y="1014" on="0"/>
        <pt x="1358" y="1014" on="1"/>
        <pt x="1389" y="1014" on="0"/>
        <pt x="1389" y="975" on="1"/>
        <pt x="1389" y="313" on="1"/>
        <pt x="1389" y="214" on="0"/>
        <pt x="1465" y="106" on="0"/>
        <pt x="1540" y="106" on="1"/>
        <pt x="1609" y="106" on="0"/>
        <pt x="1708" y="180" on="0"/>
        <pt x="1760" y="309" on="0"/>
        <pt x="1784" y="454" on="0"/>
        <pt x="1784" y="539" on="1"/>
        <pt x="1784" y="690" on="0"/>
        <pt x="1709" y="934" on="0"/>
        <pt x="1577" y="1100" on="0"/>
        <pt x="1391" y="1212" on="0"/>
        <pt x="1177" y="1262" on="0"/>
        <pt x="1053" y="1262" on="1"/>
        <pt x="624" y="1262" on="0"/>
        <pt x="264" y="934" on="1"/>
        <pt x="213" y="889" on="0"/>
        <pt x="197" y="889" on="1"/>
        <pt x="176" y="889" on="0"/>
        <pt x="176" y="909" on="1"/>
        <pt x="176" y="938" on="0"/>
        <pt x="219" y="997" on="1"/>
        <pt x="263" y="1060" on="0"/>
        <pt x="373" y="1174" on="0"/>
        <pt x="538" y="1293" on="0"/>
        <pt x="726" y="1379" on="0"/>
        <pt x="977" y="1434" on="0"/>
        <pt x="1114" y="1434" on="1"/>
        <pt x="1258" y="1434" on="0"/>
        <pt x="1520" y="1368" on="0"/>
        <pt x="1742" y="1232" on="0"/>
        <pt x="1905" y="1037" on="0"/>
        <pt x="1997" y="763" on="0"/>
        <pt x="1997" y="600" on="1"/>
        <pt x="1997" y="301" on="0"/>
        <pt x="1750" y="-35" on="0"/>
        <pt x="1509" y="-35" on="1"/>
        <pt x="1375" y="-35" on="0"/>
        <pt x="1227" y="111" on="0"/>
      </contour>
    </TTGlyph>
    <TTGlyph name="atilde" xMin="119" yMin="-31" xMax="879" yMax="1549">
      <component glyphName="a" x="0" y="0" flags="0x204"/>
      <component glyphName="tilde" x="82" y="0" flags="0x4"/>
    </TTGlyph>
    <TTGlyph name="b" xMin="124" yMin="-31" xMax="956" yMax="1536">
      <contour>
        <pt x="356" y="971" on="1"/>
        <pt x="471" y="1055" on="0"/>
        <pt x="588" y="1055" on="1"/>
        <pt x="956" y="1055" on="0"/>
        <pt x="956" y="551" on="1"/>
        <pt x="956" y="454" on="0"/>
        <pt x="915" y="255" on="0"/>
        <pt x="879" y="184" on="1"/>
        <pt x="841" y="108" on="0"/>
        <pt x="732" y="4" on="0"/>
        <pt x="698" y="4" on="1"/>
        <pt x="678" y="4" on="0"/>
        <pt x="678" y="23" on="1"/>
        <pt x="678" y="29" on="0"/>
        <pt x="691" y="48" on="0"/>
        <pt x="715" y="90" on="0"/>
        <pt x="725" y="117" on="1"/>
        <pt x="766" y="229" on="0"/>
        <pt x="766" y="436" on="1"/>
        <pt x="766" y="551" on="0"/>
        <pt x="743" y="717" on="0"/>
        <pt x="688" y="846" on="0"/>
        <pt x="588" y="911" on="0"/>
        <pt x="514" y="911" on="1"/>
        <pt x="434" y="911" on="0"/>
        <pt x="312" y="848" on="0"/>
        <pt x="194" y="758" on="1"/>
        <pt x="162" y="733" on="0"/>
        <pt x="144" y="733" on="1"/>
        <pt x="124" y="733" on="0"/>
        <pt x="124" y="765" on="1"/>
        <pt x="124" y="1407" on="1"/>
        <pt x="124" y="1461" on="0"/>
        <pt x="223" y="1536" on="0"/>
        <pt x="269" y="1536" on="1"/>
        <pt x="304" y="1536" on="0"/>
        <pt x="304" y="1493" on="1"/>
        <pt x="301" y="987" on="1"/>
        <pt x="301" y="951" on="0"/>
        <pt x="317" y="951" on="1"/>
        <pt x="330" y="951" on="0"/>
      </contour>
      <contour>
        <pt x="475" y="113" on="1"/>
        <pt x="541" y="113" on="0"/>
        <pt x="642" y="143" on="0"/>
        <pt x="644" y="143" on="1"/>
        <pt x="665" y="143" on="0"/>
        <pt x="665" y="121" on="1"/>
        <pt x="665" y="68" on="0"/>
        <pt x="518" y="-31" on="0"/>
        <pt x="407" y="-31" on="1"/>
        <pt x="273" y="-31" on="0"/>
        <pt x="124" y="89" on="0"/>
        <pt x="124" y="232" on="1"/>
        <pt x="124" y="571" on="1"/>
        <pt x="124" y="625" on="0"/>
        <pt x="152" y="657" on="1"/>
        <pt x="179" y="688" on="0"/>
        <pt x="253" y="738" on="0"/>
        <pt x="273" y="738" on="1"/>
        <pt x="304" y="738" on="0"/>
        <pt x="304" y="695" on="1"/>
        <pt x="304" y="293" on="1"/>
        <pt x="305" y="195" on="0"/>
        <pt x="382" y="113" on="0"/>
      </contour>
    </TTGlyph>
    <TTGlyph name="backslash" xMin="-100" yMin="-10" xMax="896" yMax="1536">
      <contour>
        <pt x="5" y="1526" on="1"/>
        <pt x="85" y="1508" on="0"/>
        <pt x="123" y="1436" on="1"/>
        <pt x="873" y="66" on="1"/>
        <pt x="896" y="24" on="0"/>
        <pt x="896" y="10" on="1"/>
        <pt x="896" y="-10" on="0"/>
        <pt x="871" y="-10" on="1"/>
        <pt x="818" y="-10" on="0"/>
        <pt x="708" y="31" on="0"/>
        <pt x="691" y="63" on="1"/>
        <pt x="-85" y="1470" on="1"/>
        <pt x="-100" y="1496" on="0"/>
        <pt x="-100" y="1511" on="1"/>
        <pt x="-100" y="1536" on="0"/>
        <pt x="-73" y="1536" on="1"/>
        <pt x="-43" y="1536" on="0"/>
      </contour>
    </TTGlyph>
    <TTGlyph name="bar" xMin="100" yMin="-604" xMax="280" yMax="1536">
      <contour>
        <pt x="100" y="-561" on="1"/>
        <pt x="100" y="1411" on="1"/>
        <pt x="100" y="1465" on="0"/>
        <pt x="198" y="1536" on="0"/>
        <pt x="245" y="1536" on="1"/>
        <pt x="280" y="1536" on="0"/>
        <pt x="280" y="1493" on="1"/>
        <pt x="280" y="-479" on="1"/>
        <pt x="280" y="-534" on="0"/>
        <pt x="182" y="-604" on="0"/>
        <pt x="135" y="-604" on="1"/>
        <pt x="100" y="-604" on="0"/>
      </contour>
    </TTGlyph>
    <TTGlyph name="braceleft" xMin="0" yMin="-601" xMax="856" yMax="1536">
      <contour>
        <pt x="714" y="-601" on="1"/>
        <pt x="647" y="-601" on="1"/>
        <pt x="479" y="-601" on="0"/>
        <pt x="321" y="-421" on="0"/>
        <pt x="321" y="-226" on="1"/>
        <pt x="318" y="-51" on="0"/>
        <pt x="316" y="50" on="0"/>
        <pt x="314" y="138" on="0"/>
        <pt x="313" y="205" on="0"/>
        <pt x="313" y="216" on="1"/>
        <pt x="313" y="269" on="0"/>
        <pt x="300" y="341" on="0"/>
        <pt x="265" y="384" on="0"/>
        <pt x="206" y="403" on="0"/>
        <pt x="160" y="403" on="1"/>
        <pt x="43" y="403" on="1"/>
        <pt x="0" y="403" on="0"/>
        <pt x="0" y="433" on="1"/>
        <pt x="0" y="439" on="0"/>
        <pt x="18" y="472" on="0"/>
        <pt x="53" y="505" on="0"/>
        <pt x="106" y="531" on="0"/>
        <pt x="141" y="531" on="1"/>
        <pt x="196" y="531" on="0"/>
        <pt x="264" y="549" on="0"/>
        <pt x="301" y="593" on="0"/>
        <pt x="313" y="665" on="0"/>
        <pt x="313" y="719" on="1"/>
        <pt x="313" y="730" on="0"/>
        <pt x="313" y="797" on="0"/>
        <pt x="312" y="886" on="0"/>
        <pt x="312" y="987" on="0"/>
        <pt x="311" y="1078" on="0"/>
        <pt x="311" y="1148" on="0"/>
        <pt x="311" y="1162" on="1"/>
        <pt x="311" y="1261" on="0"/>
        <pt x="347" y="1402" on="0"/>
        <pt x="424" y="1493" on="0"/>
        <pt x="543" y="1536" on="0"/>
        <pt x="627" y="1536" on="1"/>
        <pt x="793" y="1536" on="1"/>
        <pt x="836" y="1536" on="0"/>
        <pt x="836" y="1505" on="1"/>
        <pt x="836" y="1501" on="0"/>
        <pt x="822" y="1469" on="0"/>
        <pt x="789" y="1433" on="0"/>
        <pt x="734" y="1405" on="0"/>
        <pt x="694" y="1405" on="1"/>
        <pt x="627" y="1405" on="0"/>
        <pt x="563" y="1382" on="0"/>
        <pt x="531" y="1333" on="0"/>
        <pt x="525" y="1258" on="0"/>
        <pt x="525" y="1207" on="1"/>
        <pt x="525" y="1121" on="0"/>
        <pt x="527" y="865" on="1"/>
        <pt x="527" y="822" on="0"/>
        <pt x="510" y="731" on="0"/>
        <pt x="476" y="645" on="0"/>
        <pt x="428" y="568" on="0"/>
        <pt x="366" y="508" on="0"/>
        <pt x="290" y="472" on="0"/>
        <pt x="247" y="469" on="1"/>
        <pt x="247" y="466" on="1"/>
        <pt x="314" y="462" on="0"/>
        <pt x="418" y="383" on="0"/>
        <pt x="490" y="266" on="0"/>
        <pt x="527" y="130" on="0"/>
        <pt x="527" y="70" on="1"/>
        <pt x="527" y="-1" on="0"/>
        <pt x="525" y="-260" on="1"/>
        <pt x="525" y="-315" on="0"/>
        <pt x="537" y="-395" on="0"/>
        <pt x="575" y="-446" on="0"/>
        <pt x="647" y="-470" on="0"/>
        <pt x="706" y="-470" on="1"/>
        <pt x="813" y="-470" on="1"/>
        <pt x="856" y="-470" on="0"/>
        <pt x="856" y="-501" on="1"/>
        <pt x="856" y="-505" on="0"/>
        <pt x="842" y="-537" on="0"/>
        <pt x="809" y="-573" on="0"/>
        <pt x="754" y="-601" on="0"/>
      </contour>
    </TTGlyph>
    <TTGlyph name="braceright" xMin="0" yMin="-601" xMax="856" yMax="1536">
      <contour>
        <pt x="142" y="1536" on="1"/>
        <pt x="209" y="1536" on="1"/>
        <pt x="377" y="1536" on="0"/>
        <pt x="535" y="1356" on="0"/>
        <pt x="535" y="1161" on="1"/>
        <pt x="536" y="1076" on="0"/>
        <pt x="543" y="730" on="0"/>
        <pt x="543" y="719" on="1"/>
        <pt x="543" y="666" on="0"/>
        <pt x="556" y="594" on="0"/>
        <pt x="591" y="550" on="0"/>
        <pt x="650" y="532" on="0"/>
        <pt x="696" y="532" on="1"/>
        <pt x="813" y="532" on="1"/>
        <pt x="856" y="532" on="0"/>
        <pt x="856" y="502" on="1"/>
        <pt x="856" y="496" on="0"/>
        <pt x="838" y="463" on="0"/>
        <pt x="803" y="430" on="0"/>
        <pt x="750" y="404" on="0"/>
        <pt x="715" y="404" on="1"/>
        <pt x="650" y="404" on="0"/>
        <pt x="591" y="386" on="0"/>
        <pt x="556" y="342" on="0"/>
        <pt x="543" y="270" on="0"/>
        <pt x="543" y="216" on="1"/>
        <pt x="543" y="205" on="0"/>
        <pt x="543" y="138" on="0"/>
        <pt x="544" y="49" on="0"/>
        <pt x="544" y="-52" on="0"/>
        <pt x="545" y="-143" on="0"/>
        <pt x="545" y="-213" on="0"/>
        <pt x="545" y="-227" on="1"/>
        <pt x="545" y="-326" on="0"/>
        <pt x="509" y="-467" on="0"/>
        <pt x="432" y="-558" on="0"/>
        <pt x="313" y="-601" on="0"/>
        <pt x="229" y="-601" on="1"/>
        <pt x="63" y="-601" on="1"/>
        <pt x="20" y="-601" on="0"/>
        <pt x="20" y="-570" on="1"/>
        <pt x="20" y="-567" on="0"/>
        <pt x="34" y="-535" on="0"/>
        <pt x="67" y="-499" on="0"/>
        <pt x="122" y="-470" on="0"/>
        <pt x="162" y="-470" on="1"/>
        <pt x="198" y="-470" on="0"/>
        <pt x="249" y="-463" on="0"/>
        <pt x="284" y="-450" on="0"/>
        <pt x="305" y="-431" on="0"/>
        <pt x="310" y="-419" on="1"/>
        <pt x="324" y="-393" on="0"/>
        <pt x="331" y="-323" on="0"/>
        <pt x="331" y="-272" on="1"/>
        <pt x="330" y="-67" on="0"/>
        <pt x="329" y="70" on="1"/>
        <pt x="329" y="134" on="0"/>
        <pt x="368" y="272" on="0"/>
        <pt x="440" y="386" on="0"/>
        <pt x="544" y="462" on="0"/>
        <pt x="609" y="466" on="1"/>
        <pt x="609" y="469" on="1"/>
        <pt x="564" y="471" on="0"/>
        <pt x="488" y="510" on="0"/>
        <pt x="426" y="571" on="0"/>
        <pt x="378" y="650" on="0"/>
        <pt x="346" y="736" on="0"/>
        <pt x="329" y="825" on="0"/>
        <pt x="329" y="865" on="1"/>
        <pt x="331" y="1183" on="1"/>
        <pt x="331" y="1250" on="0"/>
        <pt x="319" y="1330" on="0"/>
        <pt x="281" y="1381" on="0"/>
        <pt x="209" y="1405" on="0"/>
        <pt x="150" y="1405" on="1"/>
        <pt x="43" y="1405" on="1"/>
        <pt x="0" y="1405" on="0"/>
        <pt x="0" y="1436" on="1"/>
        <pt x="0" y="1439" on="0"/>
        <pt x="14" y="1471" on="0"/>
        <pt x="47" y="1507" on="0"/>
        <pt x="102" y="1536" on="0"/>
      </contour>
    </TTGlyph>
    <TTGlyph name="bracketleft" xMin="102" yMin="-604" xMax="694" yMax="1536">
      <contour>
        <pt x="303" y="1272" on="1"/>
        <pt x="303" y="-395" on="1"/>
        <pt x="303" y="-460" on="0"/>
        <pt x="364" y="-460" on="1"/>
        <pt x="652" y="-460" on="1"/>
        <pt x="694" y="-460" on="0"/>
        <pt x="694" y="-490" on="1"/>
        <pt x="694" y="-504" on="0"/>
        <pt x="661" y="-558" on="0"/>
        <pt x="632" y="-583" on="1"/>
        <pt x="606" y="-604" on="0"/>
        <pt x="577" y="-604" on="1"/>
        <pt x="158" y="-604" on="1"/>
        <pt x="102" y="-604" on="0"/>
        <pt x="102" y="-539" on="1"/>
        <pt x="102" y="1272" on="1"/>
        <pt x="102" y="1308" on="0"/>
        <pt x="151" y="1332" on="0"/>
        <pt x="203" y="1332" on="1"/>
        <pt x="259" y="1332" on="0"/>
        <pt x="303" y="1309" on="0"/>
      </contour>
      <contour>
        <pt x="233" y="1536" on="1"/>
        <pt x="652" y="1536" on="1"/>
        <pt x="694" y="1536" on="0"/>
        <pt x="694" y="1506" on="1"/>
        <pt x="694" y="1493" on="0"/>
        <pt x="660" y="1439" on="0"/>
        <pt x="632" y="1413" on="1"/>
        <pt x="609" y="1392" on="0"/>
        <pt x="554" y="1392" on="1"/>
        <pt x="141" y="1392" on="1"/>
        <pt x="102" y="1392" on="0"/>
        <pt x="102" y="1419" on="1"/>
        <pt x="102" y="1436" on="0"/>
        <pt x="142" y="1495" on="0"/>
        <pt x="168" y="1518" on="1"/>
        <pt x="188" y="1536" on="0"/>
      </contour>
    </TTGlyph>
    <TTGlyph name="bracketright" xMin="0" yMin="-604" xMax="592" yMax="1536">
      <contour>
        <pt x="391" y="-545" on="1"/>
        <pt x="391" y="1327" on="1"/>
        <pt x="391" y="1392" on="0"/>
        <pt x="330" y="1392" on="1"/>
        <pt x="42" y="1392" on="1"/>
        <pt x="0" y="1392" on="0"/>
        <pt x="0" y="1422" on="1"/>
        <pt x="0" y="1435" on="0"/>
        <pt x="34" y="1489" on="0"/>
        <pt x="62" y="1515" on="1"/>
        <pt x="88" y="1536" on="0"/>
        <pt x="117" y="1536" on="1"/>
        <pt x="530" y="1536" on="1"/>
        <pt x="592" y="1536" on="0"/>
        <pt x="592" y="1470" on="1"/>
        <pt x="592" y="-461" on="1"/>
        <pt x="592" y="-501" on="0"/>
        <pt x="554" y="-545" on="1"/>
        <pt x="505" y="-604" on="0"/>
        <pt x="442" y="-604" on="1"/>
        <pt x="391" y="-604" on="0"/>
      </contour>
      <contour>
        <pt x="282" y="-604" on="1"/>
        <pt x="42" y="-604" on="1"/>
        <pt x="0" y="-604" on="0"/>
        <pt x="0" y="-574" on="1"/>
        <pt x="0" y="-561" on="0"/>
        <pt x="34" y="-507" on="0"/>
        <pt x="62" y="-481" on="1"/>
        <pt x="85" y="-460" on="0"/>
        <pt x="140" y="-460" on="1"/>
        <pt x="282" y="-460" on="1"/>
        <pt x="313" y="-460" on="0"/>
        <pt x="331" y="-490" on="0"/>
        <pt x="331" y="-530" on="1"/>
        <pt x="331" y="-576" on="0"/>
        <pt x="314" y="-604" on="0"/>
      </contour>
    </TTGlyph>
    <TTGlyph name="brokenbar" xMin="100" yMin="-604" xMax="280" yMax="1536">
      <contour>
        <pt x="100" y="812" on="1"/>
        <pt x="100" y="1411" on="1"/>
        <pt x="100" y="1465" on="0"/>
        <pt x="198" y="1536" on="0"/>
        <pt x="245" y="1536" on="1"/>
        <pt x="280" y="1536" on="0"/>
        <pt x="280" y="1493" on="1"/>
        <pt x="280" y="894" on="1"/>
        <pt x="280" y="839" on="0"/>
        <pt x="182" y="769" on="0"/>
        <pt x="135" y="769" on="1"/>
        <pt x="100" y="769" on="0"/>
      </contour>
      <contour>
        <pt x="100" y="-561" on="1"/>
        <pt x="100" y="38" on="1"/>
        <pt x="100" y="92" on="0"/>
        <pt x="198" y="163" on="0"/>
        <pt x="245" y="163" on="1"/>
        <pt x="280" y="163" on="0"/>
        <pt x="280" y="120" on="1"/>
        <pt x="280" y="-479" on="1"/>
        <pt x="280" y="-534" on="0"/>
        <pt x="182" y="-604" on="0"/>
        <pt x="135" y="-604" on="1"/>
        <pt x="100" y="-604" on="0"/>
      </contour>
    </TTGlyph>
    <TTGlyph name="bullet" xMin="100" yMin="463" xMax="717" yMax="1069">
      <contour>
        <pt x="407" y="1069" on="1"/>
        <pt x="471" y="1069" on="0"/>
        <pt x="584" y="1021" on="0"/>
        <pt x="668" y="939" on="0"/>
        <pt x="717" y="829" on="0"/>
        <pt x="717" y="766" on="1"/>
        <pt x="717" y="703" on="0"/>
        <pt x="668" y="593" on="0"/>
        <pt x="584" y="510" on="0"/>
        <pt x="471" y="463" on="0"/>
        <pt x="407" y="463" on="1"/>
        <pt x="344" y="463" on="0"/>
        <pt x="232" y="510" on="0"/>
        <pt x="149" y="592" on="0"/>
        <pt x="100" y="702" on="0"/>
        <pt x="100" y="766" on="1"/>
        <pt x="100" y="830" on="0"/>
        <pt x="149" y="940" on="0"/>
        <pt x="232" y="1022" on="0"/>
        <pt x="344" y="1069" on="0"/>
      </contour>
    </TTGlyph>
    <TTGlyph name="c" xMin="92" yMin="-31" xMax="858" yMax="1055">
      <contour>
        <pt x="281" y="508" on="1"/>
        <pt x="281" y="115" on="0"/>
        <pt x="561" y="115" on="1"/>
        <pt x="619" y="115" on="0"/>
        <pt x="721" y="142" on="0"/>
        <pt x="776" y="176" on="0"/>
        <pt x="824" y="203" on="0"/>
        <pt x="834" y="203" on="1"/>
        <pt x="858" y="203" on="0"/>
        <pt x="858" y="180" on="1"/>
        <pt x="858" y="158" on="0"/>
        <pt x="806" y="89" on="0"/>
        <pt x="718" y="19" on="0"/>
        <pt x="579" y="-31" on="0"/>
        <pt x="504" y="-31" on="1"/>
        <pt x="294" y="-31" on="0"/>
        <pt x="92" y="222" on="0"/>
        <pt x="92" y="459" on="1"/>
        <pt x="92" y="626" on="0"/>
        <pt x="137" y="694" on="1"/>
        <pt x="160" y="729" on="0"/>
        <pt x="254" y="790" on="0"/>
        <pt x="287" y="790" on="1"/>
        <pt x="311" y="790" on="0"/>
        <pt x="311" y="762" on="1"/>
        <pt x="311" y="761" on="0"/>
        <pt x="281" y="589" on="0"/>
      </contour>
      <contour>
        <pt x="797" y="997" on="1"/>
        <pt x="827" y="974" on="0"/>
        <pt x="827" y="950" on="1"/>
        <pt x="827" y="925" on="0"/>
        <pt x="747" y="854" on="0"/>
        <pt x="713" y="854" on="1"/>
        <pt x="684" y="854" on="0"/>
        <pt x="645" y="872" on="1"/>
        <pt x="561" y="911" on="0"/>
        <pt x="492" y="911" on="1"/>
        <pt x="340" y="911" on="0"/>
        <pt x="199" y="813" on="1"/>
        <pt x="156" y="784" on="0"/>
        <pt x="147" y="784" on="1"/>
        <pt x="133" y="784" on="0"/>
        <pt x="133" y="801" on="1"/>
        <pt x="133" y="813" on="0"/>
        <pt x="155" y="855" on="0"/>
        <pt x="164" y="866" on="1"/>
        <pt x="240" y="963" on="0"/>
        <pt x="424" y="1055" on="0"/>
        <pt x="565" y="1055" on="1"/>
        <pt x="628" y="1055" on="0"/>
        <pt x="760" y="1025" on="0"/>
      </contour>
    </TTGlyph>
    <TTGlyph name="caron" xMin="80" yMin="1241" xMax="681" yMax="1646">
      <contour>
        <pt x="182" y="1605" on="1"/>
        <pt x="345" y="1451" on="1"/>
        <pt x="370" y="1428" on="0"/>
        <pt x="381" y="1428" on="1"/>
        <pt x="393" y="1428" on="0"/>
        <pt x="421" y="1451" on="1"/>
        <pt x="584" y="1601" on="1"/>
        <pt x="632" y="1646" on="0"/>
        <pt x="654" y="1646" on="1"/>
        <pt x="681" y="1646" on="0"/>
        <pt x="681" y="1600" on="1"/>
        <pt x="681" y="1548" on="0"/>
        <pt x="652" y="1517" on="1"/>
        <pt x="421" y="1268" on="1"/>
        <pt x="394" y="1241" on="0"/>
        <pt x="370" y="1241" on="1"/>
        <pt x="351" y="1241" on="0"/>
        <pt x="325" y="1268" on="1"/>
        <pt x="107" y="1507" on="1"/>
        <pt x="80" y="1537" on="0"/>
        <pt x="80" y="1585" on="1"/>
        <pt x="80" y="1605" on="0"/>
        <pt x="102" y="1646" on="0"/>
        <pt x="119" y="1646" on="1"/>
        <pt x="141" y="1646" on="0"/>
      </contour>
    </TTGlyph>
    <TTGlyph name="caron.case" xMin="80" yMin="1636" xMax="800" yMax="2041">
      <contour>
        <pt x="117" y="1901" on="1"/>
        <pt x="96" y="1921" on="0"/>
        <pt x="80" y="1980" on="0"/>
        <pt x="80" y="2006" on="1"/>
        <pt x="80" y="2041" on="0"/>
        <pt x="107" y="2041" on="1"/>
        <pt x="118" y="2041" on="0"/>
        <pt x="157" y="2023" on="0"/>
        <pt x="191" y="2000" on="1"/>
        <pt x="401" y="1857" on="1"/>
        <pt x="411" y="1850" on="0"/>
        <pt x="428" y="1842" on="0"/>
        <pt x="438" y="1842" on="1"/>
        <pt x="454" y="1842" on="0"/>
        <pt x="476" y="1856" on="1"/>
        <pt x="734" y="2021" on="0"/>
        <pt x="766" y="2038" on="0"/>
        <pt x="776" y="2038" on="1"/>
        <pt x="800" y="2038" on="0"/>
        <pt x="800" y="2008" on="1"/>
        <pt x="800" y="1985" on="0"/>
        <pt x="790" y="1929" on="0"/>
        <pt x="771" y="1912" on="1"/>
        <pt x="480" y="1659" on="1"/>
        <pt x="463" y="1644" on="0"/>
        <pt x="441" y="1636" on="0"/>
        <pt x="430" y="1636" on="1"/>
        <pt x="420" y="1636" on="0"/>
        <pt x="400" y="1646" on="0"/>
        <pt x="386" y="1659" on="1"/>
      </contour>
    </TTGlyph>
    <TTGlyph name="ccedilla" xMin="92" yMin="-555" xMax="858" yMax="1055">
      <contour>
        <pt x="524" y="-117" on="1"/>
        <pt x="591" y="-117" on="0"/>
        <pt x="674" y="-189" on="0"/>
        <pt x="674" y="-261" on="1"/>
        <pt x="674" y="-297" on="0"/>
        <pt x="650" y="-359" on="0"/>
        <pt x="608" y="-412" on="0"/>
        <pt x="551" y="-457" on="0"/>
        <pt x="519" y="-475" on="1"/>
        <pt x="501" y="-485" on="0"/>
        <pt x="445" y="-513" on="0"/>
        <pt x="382" y="-538" on="0"/>
        <pt x="321" y="-555" on="0"/>
        <pt x="300" y="-555" on="1"/>
        <pt x="286" y="-555" on="0"/>
        <pt x="256" y="-533" on="0"/>
        <pt x="256" y="-501" on="1"/>
        <pt x="256" y="-489" on="0"/>
        <pt x="264" y="-472" on="0"/>
        <pt x="276" y="-462" on="0"/>
        <pt x="289" y="-457" on="0"/>
        <pt x="294" y="-455" on="1"/>
        <pt x="337" y="-443" on="0"/>
        <pt x="411" y="-407" on="0"/>
        <pt x="466" y="-364" on="0"/>
        <pt x="498" y="-315" on="0"/>
        <pt x="498" y="-289" on="1"/>
        <pt x="498" y="-267" on="0"/>
        <pt x="483" y="-239" on="0"/>
        <pt x="460" y="-223" on="0"/>
        <pt x="431" y="-218" on="0"/>
        <pt x="418" y="-218" on="1"/>
        <pt x="382" y="-218" on="0"/>
        <pt x="329" y="-234" on="0"/>
        <pt x="303" y="-234" on="1"/>
        <pt x="263" y="-234" on="0"/>
        <pt x="263" y="-196" on="1"/>
        <pt x="263" y="-188" on="0"/>
        <pt x="270" y="-154" on="0"/>
        <pt x="272" y="-146" on="1"/>
        <pt x="301" y="-37" on="1"/>
        <pt x="303" y="-31" on="0"/>
        <pt x="305" y="-19" on="0"/>
        <pt x="305" y="-14" on="1"/>
        <pt x="305" y="2" on="0"/>
        <pt x="291" y="15" on="0"/>
        <pt x="286" y="18" on="1"/>
        <pt x="185" y="74" on="0"/>
        <pt x="92" y="298" on="0"/>
        <pt x="92" y="459" on="1"/>
        <pt x="92" y="538" on="0"/>
        <pt x="117" y="663" on="0"/>
        <pt x="137" y="694" on="1"/>
        <pt x="148" y="712" on="0"/>
        <pt x="186" y="746" on="0"/>
        <pt x="228" y="773" on="0"/>
        <pt x="270" y="790" on="0"/>
        <pt x="287" y="790" on="1"/>
        <pt x="298" y="790" on="0"/>
        <pt x="311" y="779" on="0"/>
        <pt x="311" y="762" on="1"/>
        <pt x="311" y="751" on="0"/>
        <pt x="302" y="707" on="0"/>
        <pt x="290" y="642" on="0"/>
        <pt x="281" y="559" on="0"/>
        <pt x="281" y="508" on="1"/>
        <pt x="281" y="419" on="0"/>
        <pt x="311" y="274" on="0"/>
        <pt x="378" y="171" on="0"/>
        <pt x="485" y="115" on="0"/>
        <pt x="561" y="115" on="1"/>
        <pt x="625" y="115" on="0"/>
        <pt x="716" y="142" on="0"/>
        <pt x="780" y="175" on="0"/>
        <pt x="821" y="203" on="0"/>
        <pt x="834" y="203" on="1"/>
        <pt x="845" y="203" on="0"/>
        <pt x="858" y="193" on="0"/>
        <pt x="858" y="180" on="1"/>
        <pt x="858" y="159" on="0"/>
        <pt x="807" y="88" on="0"/>
        <pt x="714" y="19" on="0"/>
        <pt x="584" y="-31" on="0"/>
        <pt x="504" y="-31" on="1"/>
        <pt x="488" y="-31" on="0"/>
        <pt x="458" y="-28" on="0"/>
        <pt x="444" y="-28" on="1"/>
        <pt x="430" y="-28" on="0"/>
        <pt x="412" y="-38" on="0"/>
        <pt x="405" y="-60" on="1"/>
        <pt x="400" y="-77" on="0"/>
        <pt x="396" y="-97" on="0"/>
        <pt x="396" y="-102" on="1"/>
        <pt x="396" y="-114" on="0"/>
        <pt x="410" y="-125" on="0"/>
        <pt x="428" y="-125" on="1"/>
        <pt x="451" y="-125" on="0"/>
        <pt x="498" y="-117" on="0"/>
      </contour>
      <contour>
        <pt x="797" y="997" on="1"/>
        <pt x="811" y="986" on="0"/>
        <pt x="827" y="966" on="0"/>
        <pt x="827" y="950" on="1"/>
        <pt x="827" y="938" on="0"/>
        <pt x="805" y="905" on="0"/>
        <pt x="771" y="875" on="0"/>
        <pt x="731" y="854" on="0"/>
        <pt x="713" y="854" on="1"/>
        <pt x="694" y="854" on="0"/>
        <pt x="665" y="863" on="0"/>
        <pt x="645" y="872" on="1"/>
        <pt x="594" y="895" on="0"/>
        <pt x="521" y="911" on="0"/>
        <pt x="492" y="911" on="1"/>
        <pt x="416" y="911" on="0"/>
        <pt x="275" y="866" on="0"/>
        <pt x="199" y="813" on="1"/>
        <pt x="183" y="802" on="0"/>
        <pt x="155" y="784" on="0"/>
        <pt x="147" y="784" on="1"/>
        <pt x="133" y="784" on="0"/>
        <pt x="133" y="801" on="1"/>
        <pt x="133" y="808" on="0"/>
        <pt x="140" y="827" on="0"/>
        <pt x="151" y="846" on="0"/>
        <pt x="161" y="862" on="0"/>
        <pt x="164" y="866" on="1"/>
        <pt x="200" y="912" on="0"/>
        <pt x="279" y="983" on="0"/>
        <pt x="375" y="1031" on="0"/>
        <pt x="491" y="1055" on="0"/>
        <pt x="565" y="1055" on="1"/>
        <pt x="594" y="1055" on="0"/>
        <pt x="659" y="1048" on="0"/>
        <pt x="722" y="1033" on="0"/>
        <pt x="777" y="1012" on="0"/>
      </contour>
    </TTGlyph>
    <TTGlyph name="cedilla" xMin="82" yMin="-555" xMax="500" yMax="16">
      <contour>
        <pt x="350" y="-117" on="1"/>
        <pt x="419" y="-117" on="0"/>
        <pt x="500" y="-191" on="0"/>
        <pt x="500" y="-261" on="1"/>
        <pt x="500" y="-387" on="0"/>
        <pt x="345" y="-475" on="1"/>
        <pt x="300" y="-501" on="0"/>
        <pt x="164" y="-555" on="0"/>
        <pt x="126" y="-555" on="1"/>
        <pt x="109" y="-555" on="0"/>
        <pt x="82" y="-530" on="0"/>
        <pt x="82" y="-501" on="1"/>
        <pt x="82" y="-466" on="0"/>
        <pt x="120" y="-455" on="1"/>
        <pt x="209" y="-429" on="0"/>
        <pt x="324" y="-339" on="0"/>
        <pt x="324" y="-289" on="1"/>
        <pt x="324" y="-218" on="0"/>
        <pt x="244" y="-218" on="1"/>
        <pt x="218" y="-218" on="0"/>
        <pt x="145" y="-234" on="0"/>
        <pt x="129" y="-234" on="1"/>
        <pt x="89" y="-234" on="0"/>
        <pt x="89" y="-196" on="1"/>
        <pt x="89" y="-176" on="0"/>
        <pt x="141" y="16" on="1"/>
        <pt x="256" y="16" on="1"/>
        <pt x="222" y="-89" on="0"/>
        <pt x="222" y="-99" on="1"/>
        <pt x="222" y="-125" on="0"/>
        <pt x="254" y="-125" on="1"/>
        <pt x="268" y="-125" on="0"/>
        <pt x="332" y="-117" on="0"/>
      </contour>
    </TTGlyph>
    <TTGlyph name="cent" xMin="92" yMin="-300" xMax="858" yMax="1325">
      <contour>
        <pt x="401" y="76" on="1"/>
        <pt x="401" y="-8" on="0"/>
        <pt x="355" y="-8" on="1"/>
        <pt x="341" y="-8" on="0"/>
        <pt x="299" y="11" on="0"/>
        <pt x="252" y="40" on="0"/>
        <pt x="209" y="75" on="0"/>
        <pt x="196" y="91" on="1"/>
        <pt x="92" y="213" on="0"/>
        <pt x="92" y="459" on="1"/>
        <pt x="92" y="526" on="0"/>
        <pt x="104" y="620" on="0"/>
        <pt x="131" y="689" on="0"/>
        <pt x="175" y="738" on="0"/>
        <pt x="207" y="759" on="1"/>
        <pt x="253" y="790" on="0"/>
        <pt x="287" y="790" on="1"/>
        <pt x="311" y="790" on="0"/>
        <pt x="311" y="762" on="1"/>
        <pt x="311" y="760" on="0"/>
        <pt x="296" y="675" on="1"/>
        <pt x="281" y="589" on="0"/>
        <pt x="281" y="508" on="1"/>
        <pt x="281" y="299" on="0"/>
        <pt x="359" y="205" on="1"/>
        <pt x="375" y="185" on="0"/>
        <pt x="393" y="158" on="0"/>
        <pt x="400" y="132" on="0"/>
        <pt x="401" y="100" on="0"/>
      </contour>
      <contour>
        <pt x="410" y="976" on="1"/>
        <pt x="409" y="941" on="0"/>
        <pt x="396" y="908" on="0"/>
        <pt x="383" y="903" on="1"/>
        <pt x="360" y="894" on="1"/>
        <pt x="327" y="882" on="0"/>
        <pt x="255" y="845" on="0"/>
        <pt x="193" y="810" on="0"/>
        <pt x="151" y="784" on="0"/>
        <pt x="147" y="784" on="1"/>
        <pt x="133" y="784" on="0"/>
        <pt x="133" y="801" on="1"/>
        <pt x="133" y="807" on="0"/>
        <pt x="139" y="825" on="0"/>
        <pt x="149" y="843" on="0"/>
        <pt x="159" y="860" on="0"/>
        <pt x="164" y="866" on="1"/>
        <pt x="256" y="981" on="0"/>
        <pt x="358" y="1022" on="1"/>
        <pt x="373" y="1029" on="0"/>
        <pt x="385" y="1029" on="1"/>
        <pt x="410" y="1029" on="0"/>
      </contour>
      <contour>
        <pt x="461" y="-257" on="1"/>
        <pt x="461" y="71" on="1"/>
        <pt x="461" y="99" on="0"/>
        <pt x="479" y="118" on="0"/>
        <pt x="501" y="118" on="1"/>
        <pt x="505" y="118" on="0"/>
        <pt x="522" y="117" on="0"/>
        <pt x="540" y="116" on="0"/>
        <pt x="624" y="115" on="0"/>
        <pt x="715" y="142" on="0"/>
        <pt x="779" y="175" on="0"/>
        <pt x="820" y="203" on="0"/>
        <pt x="834" y="203" on="1"/>
        <pt x="858" y="203" on="0"/>
        <pt x="858" y="180" on="1"/>
        <pt x="858" y="163" on="0"/>
        <pt x="826" y="112" on="0"/>
        <pt x="769" y="58" on="0"/>
        <pt x="692" y="9" on="0"/>
        <pt x="647" y="-6" on="1"/>
        <pt x="613" y="-18" on="0"/>
        <pt x="613" y="-54" on="1"/>
        <pt x="613" y="-171" on="1"/>
        <pt x="613" y="-201" on="0"/>
        <pt x="584" y="-249" on="0"/>
        <pt x="546" y="-282" on="0"/>
        <pt x="506" y="-300" on="0"/>
        <pt x="496" y="-300" on="1"/>
        <pt x="461" y="-300" on="0"/>
      </contour>
      <contour>
        <pt x="645" y="872" on="1"/>
        <pt x="571" y="905" on="0"/>
        <pt x="501" y="911" on="1"/>
        <pt x="460" y="914" on="0"/>
        <pt x="460" y="954" on="1"/>
        <pt x="460" y="1196" on="1"/>
        <pt x="460" y="1224" on="0"/>
        <pt x="490" y="1271" on="0"/>
        <pt x="529" y="1306" on="0"/>
        <pt x="568" y="1325" on="0"/>
        <pt x="577" y="1325" on="1"/>
        <pt x="612" y="1325" on="0"/>
        <pt x="612" y="1282" on="1"/>
        <pt x="612" y="1116" on="1"/>
        <pt x="612" y="1093" on="0"/>
        <pt x="621" y="1066" on="0"/>
        <pt x="636" y="1052" on="0"/>
        <pt x="652" y="1047" on="0"/>
        <pt x="665" y="1045" on="1"/>
        <pt x="739" y="1031" on="0"/>
        <pt x="827" y="981" on="0"/>
        <pt x="827" y="950" on="1"/>
        <pt x="827" y="938" on="0"/>
        <pt x="804" y="905" on="0"/>
        <pt x="770" y="875" on="0"/>
        <pt x="730" y="854" on="0"/>
        <pt x="713" y="854" on="1"/>
        <pt x="684" y="854" on="0"/>
      </contour>
    </TTGlyph>
    <TTGlyph name="circumflex" xMin="80" yMin="1239" xMax="681" yMax="1644">
      <contour>
        <pt x="575" y="1284" on="1"/>
        <pt x="417" y="1434" on="1"/>
        <pt x="392" y="1457" on="0"/>
        <pt x="381" y="1457" on="1"/>
        <pt x="367" y="1457" on="0"/>
        <pt x="341" y="1434" on="1"/>
        <pt x="178" y="1287" on="1"/>
        <pt x="128" y="1244" on="0"/>
        <pt x="108" y="1244" on="1"/>
        <pt x="80" y="1244" on="0"/>
        <pt x="80" y="1298" on="1"/>
        <pt x="80" y="1345" on="0"/>
        <pt x="102" y="1367" on="1"/>
        <pt x="342" y="1618" on="1"/>
        <pt x="369" y="1644" on="0"/>
        <pt x="391" y="1644" on="1"/>
        <pt x="410" y="1644" on="0"/>
        <pt x="436" y="1618" on="1"/>
        <pt x="654" y="1377" on="1"/>
        <pt x="681" y="1349" on="0"/>
        <pt x="681" y="1303" on="1"/>
        <pt x="681" y="1281" on="0"/>
        <pt x="665" y="1239" on="0"/>
        <pt x="647" y="1239" on="1"/>
        <pt x="624" y="1239" on="0"/>
      </contour>
    </TTGlyph>
    <TTGlyph name="circumflex.case" xMin="80" yMin="1606" xMax="805" yMax="2016">
      <contour>
        <pt x="768" y="1753" on="1"/>
        <pt x="789" y="1733" on="0"/>
        <pt x="805" y="1667" on="0"/>
        <pt x="805" y="1641" on="1"/>
        <pt x="805" y="1606" on="0"/>
        <pt x="778" y="1606" on="1"/>
        <pt x="767" y="1606" on="0"/>
        <pt x="728" y="1624" on="0"/>
        <pt x="694" y="1647" on="1"/>
        <pt x="479" y="1799" on="1"/>
        <pt x="469" y="1806" on="0"/>
        <pt x="452" y="1814" on="0"/>
        <pt x="442" y="1814" on="1"/>
        <pt x="426" y="1814" on="0"/>
        <pt x="404" y="1800" on="1"/>
        <pt x="177" y="1653" on="1"/>
        <pt x="146" y="1634" on="0"/>
        <pt x="114" y="1617" on="0"/>
        <pt x="104" y="1617" on="1"/>
        <pt x="80" y="1617" on="0"/>
        <pt x="80" y="1647" on="1"/>
        <pt x="80" y="1670" on="0"/>
        <pt x="93" y="1722" on="0"/>
        <pt x="112" y="1739" on="1"/>
        <pt x="405" y="1993" on="1"/>
        <pt x="422" y="2008" on="0"/>
        <pt x="444" y="2016" on="0"/>
        <pt x="455" y="2016" on="1"/>
        <pt x="465" y="2016" on="0"/>
        <pt x="485" y="2006" on="0"/>
        <pt x="499" y="1993" on="1"/>
      </contour>
    </TTGlyph>
    <TTGlyph name="colon" xMin="133" yMin="-10" xMax="334" yMax="1054">
      <contour>
        <pt x="334" y="274" on="1"/>
        <pt x="334" y="139" on="1"/>
        <pt x="334" y="90" on="0"/>
        <pt x="313" y="66" on="1"/>
        <pt x="288" y="36" on="0"/>
        <pt x="197" y="-10" on="0"/>
        <pt x="168" y="-10" on="1"/>
        <pt x="133" y="-10" on="0"/>
        <pt x="133" y="33" on="1"/>
        <pt x="133" y="168" on="1"/>
        <pt x="133" y="210" on="0"/>
        <pt x="154" y="236" on="1"/>
        <pt x="180" y="266" on="0"/>
        <pt x="270" y="317" on="0"/>
        <pt x="299" y="317" on="1"/>
        <pt x="334" y="317" on="0"/>
      </contour>
      <contour>
        <pt x="334" y="1011" on="1"/>
        <pt x="334" y="876" on="1"/>
        <pt x="334" y="827" on="0"/>
        <pt x="313" y="803" on="1"/>
        <pt x="288" y="773" on="0"/>
        <pt x="197" y="727" on="0"/>
        <pt x="168" y="727" on="1"/>
        <pt x="133" y="727" on="0"/>
        <pt x="133" y="770" on="1"/>
        <pt x="133" y="905" on="1"/>
        <pt x="133" y="947" on="0"/>
        <pt x="154" y="973" on="1"/>
        <pt x="180" y="1003" on="0"/>
        <pt x="270" y="1054" on="0"/>
        <pt x="299" y="1054" on="1"/>
        <pt x="334" y="1054" on="0"/>
      </contour>
    </TTGlyph>
    <TTGlyph name="comma" xMin="133" yMin="-279" xMax="463" yMax="317">
      <contour>
        <pt x="311" y="-127" on="1"/>
        <pt x="284" y="-190" on="0"/>
        <pt x="206" y="-279" on="0"/>
        <pt x="168" y="-279" on="1"/>
        <pt x="133" y="-279" on="0"/>
        <pt x="133" y="-249" on="1"/>
        <pt x="133" y="-242" on="0"/>
        <pt x="153" y="-170" on="1"/>
        <pt x="248" y="168" on="1"/>
        <pt x="262" y="215" on="0"/>
        <pt x="279" y="236" on="1"/>
        <pt x="303" y="266" on="0"/>
        <pt x="400" y="317" on="0"/>
        <pt x="429" y="317" on="1"/>
        <pt x="463" y="317" on="0"/>
        <pt x="463" y="283" on="1"/>
        <pt x="463" y="269" on="0"/>
      </contour>
    </TTGlyph>
    <TTGlyph name="copyright" xMin="102" yMin="-102" xMax="1724" yMax="1536">
      <contour>
        <pt x="233" y="713" on="1"/>
        <pt x="233" y="570" on="0"/>
        <pt x="329" y="318" on="0"/>
        <pt x="506" y="128" on="0"/>
        <pt x="759" y="18" on="0"/>
        <pt x="915" y="18" on="1"/>
        <pt x="1069" y="18" on="0"/>
        <pt x="1320" y="129" on="0"/>
        <pt x="1498" y="319" on="0"/>
        <pt x="1595" y="571" on="0"/>
        <pt x="1595" y="713" on="1"/>
        <pt x="1595" y="808" on="0"/>
        <pt x="1550" y="987" on="0"/>
        <pt x="1465" y="1144" on="0"/>
        <pt x="1343" y="1274" on="0"/>
        <pt x="1191" y="1367" on="0"/>
        <pt x="1011" y="1419" on="0"/>
        <pt x="911" y="1419" on="1"/>
        <pt x="811" y="1419" on="0"/>
        <pt x="634" y="1367" on="0"/>
        <pt x="483" y="1274" on="0"/>
        <pt x="363" y="1144" on="0"/>
        <pt x="278" y="987" on="0"/>
        <pt x="233" y="809" on="0"/>
      </contour>
      <contour>
        <pt x="102" y="713" on="1"/>
        <pt x="102" y="881" on="0"/>
        <pt x="225" y="1183" on="0"/>
        <pt x="437" y="1405" on="0"/>
        <pt x="741" y="1536" on="0"/>
        <pt x="913" y="1536" on="1"/>
        <pt x="1147" y="1536" on="0"/>
        <pt x="1521" y="1313" on="0"/>
        <pt x="1724" y="938" on="0"/>
        <pt x="1724" y="713" on="1"/>
        <pt x="1724" y="547" on="0"/>
        <pt x="1596" y="245" on="0"/>
        <pt x="1379" y="27" on="0"/>
        <pt x="1078" y="-102" on="0"/>
        <pt x="911" y="-102" on="1"/>
        <pt x="732" y="-102" on="0"/>
        <pt x="429" y="20" on="0"/>
        <pt x="219" y="235" on="0"/>
        <pt x="102" y="537" on="0"/>
      </contour>
      <contour>
        <pt x="729" y="730" on="1"/>
        <pt x="729" y="394" on="0"/>
        <pt x="969" y="394" on="1"/>
        <pt x="1033" y="394" on="0"/>
        <pt x="1136" y="432" on="0"/>
        <pt x="1194" y="469" on="0"/>
        <pt x="1203" y="469" on="1"/>
        <pt x="1223" y="469" on="0"/>
        <pt x="1223" y="449" on="1"/>
        <pt x="1223" y="430" on="0"/>
        <pt x="1178" y="371" on="0"/>
        <pt x="1103" y="311" on="0"/>
        <pt x="984" y="268" on="0"/>
        <pt x="920" y="268" on="1"/>
        <pt x="741" y="268" on="0"/>
        <pt x="568" y="485" on="0"/>
        <pt x="568" y="688" on="1"/>
        <pt x="568" y="831" on="0"/>
        <pt x="606" y="889" on="1"/>
        <pt x="626" y="920" on="0"/>
        <pt x="707" y="972" on="0"/>
        <pt x="735" y="972" on="1"/>
        <pt x="755" y="972" on="0"/>
        <pt x="755" y="948" on="1"/>
        <pt x="755" y="947" on="0"/>
        <pt x="729" y="799" on="0"/>
      </contour>
      <contour>
        <pt x="1171" y="1149" on="1"/>
        <pt x="1197" y="1128" on="0"/>
        <pt x="1197" y="1109" on="1"/>
        <pt x="1197" y="1087" on="0"/>
        <pt x="1128" y="1027" on="0"/>
        <pt x="1099" y="1027" on="1"/>
        <pt x="1074" y="1027" on="0"/>
        <pt x="1041" y="1042" on="1"/>
        <pt x="971" y="1075" on="0"/>
        <pt x="910" y="1075" on="1"/>
        <pt x="780" y="1075" on="0"/>
        <pt x="659" y="991" on="1"/>
        <pt x="623" y="967" on="0"/>
        <pt x="615" y="967" on="1"/>
        <pt x="603" y="967" on="0"/>
        <pt x="603" y="981" on="1"/>
        <pt x="603" y="1004" on="0"/>
        <pt x="629" y="1037" on="1"/>
        <pt x="694" y="1120" on="0"/>
        <pt x="852" y="1199" on="0"/>
        <pt x="972" y="1199" on="1"/>
        <pt x="1026" y="1199" on="0"/>
        <pt x="1139" y="1173" on="0"/>
      </contour>
    </TTGlyph>
    <TTGlyph name="currency" xMin="80" yMin="88" xMax="965" yMax="953">
      <contour>
        <pt x="348" y="539" on="1"/>
        <pt x="348" y="484" on="0"/>
        <pt x="361" y="392" on="0"/>
        <pt x="397" y="326" on="0"/>
        <pt x="461" y="289" on="0"/>
        <pt x="513" y="289" on="1"/>
        <pt x="528" y="289" on="0"/>
        <pt x="560" y="292" on="0"/>
        <pt x="587" y="297" on="0"/>
        <pt x="605" y="300" on="0"/>
        <pt x="606" y="300" on="1"/>
        <pt x="622" y="300" on="0"/>
        <pt x="622" y="285" on="1"/>
        <pt x="622" y="271" on="0"/>
        <pt x="600" y="234" on="0"/>
        <pt x="561" y="201" on="0"/>
        <pt x="505" y="179" on="0"/>
        <pt x="471" y="179" on="1"/>
        <pt x="364" y="179" on="0"/>
        <pt x="300" y="226" on="1"/>
        <pt x="283" y="238" on="0"/>
        <pt x="276" y="238" on="1"/>
        <pt x="264" y="238" on="0"/>
        <pt x="251" y="223" on="1"/>
        <pt x="135" y="101" on="1"/>
        <pt x="124" y="89" on="0"/>
        <pt x="112" y="89" on="1"/>
        <pt x="99" y="89" on="0"/>
        <pt x="80" y="131" on="0"/>
        <pt x="80" y="160" on="1"/>
        <pt x="80" y="196" on="0"/>
        <pt x="106" y="225" on="1"/>
        <pt x="199" y="311" on="1"/>
        <pt x="216" y="326" on="0"/>
        <pt x="216" y="342" on="1"/>
        <pt x="216" y="346" on="0"/>
        <pt x="212" y="361" on="1"/>
        <pt x="194" y="422" on="0"/>
        <pt x="194" y="509" on="1"/>
        <pt x="194" y="548" on="0"/>
        <pt x="206" y="607" on="0"/>
        <pt x="230" y="649" on="0"/>
        <pt x="267" y="678" on="0"/>
        <pt x="291" y="688" on="1"/>
        <pt x="333" y="705" on="0"/>
        <pt x="355" y="705" on="1"/>
        <pt x="373" y="705" on="0"/>
        <pt x="373" y="687" on="1"/>
        <pt x="373" y="685" on="0"/>
        <pt x="365" y="658" on="0"/>
        <pt x="356" y="616" on="0"/>
        <pt x="348" y="565" on="0"/>
      </contour>
      <contour>
        <pt x="521" y="886" on="1"/>
        <pt x="584" y="886" on="0"/>
        <pt x="691" y="853" on="0"/>
        <pt x="733" y="820" on="1"/>
        <pt x="742" y="813" on="0"/>
        <pt x="757" y="804" on="0"/>
        <pt x="766" y="805" on="1"/>
        <pt x="781" y="804" on="0"/>
        <pt x="798" y="822" on="1"/>
        <pt x="910" y="940" on="1"/>
        <pt x="917" y="952" on="0"/>
        <pt x="929" y="952" on="1"/>
        <pt x="943" y="952" on="0"/>
        <pt x="965" y="915" on="0"/>
        <pt x="965" y="881" on="1"/>
        <pt x="965" y="845" on="0"/>
        <pt x="939" y="816" on="1"/>
        <pt x="848" y="732" on="1"/>
        <pt x="830" y="715" on="0"/>
        <pt x="830" y="699" on="1"/>
        <pt x="830" y="691" on="0"/>
        <pt x="836" y="675" on="1"/>
        <pt x="857" y="613" on="0"/>
        <pt x="857" y="539" on="1"/>
        <pt x="857" y="446" on="0"/>
        <pt x="830" y="368" on="1"/>
        <pt x="825" y="348" on="0"/>
        <pt x="825" y="345" on="1"/>
        <pt x="825" y="329" on="0"/>
        <pt x="839" y="317" on="1"/>
        <pt x="939" y="225" on="1"/>
        <pt x="965" y="196" on="0"/>
        <pt x="965" y="157" on="1"/>
        <pt x="965" y="125" on="0"/>
        <pt x="942" y="88" on="0"/>
        <pt x="929" y="88" on="1"/>
        <pt x="917" y="88" on="0"/>
        <pt x="910" y="101" on="1"/>
        <pt x="785" y="232" on="1"/>
        <pt x="772" y="245" on="0"/>
        <pt x="760" y="245" on="1"/>
        <pt x="751" y="245" on="0"/>
        <pt x="739" y="236" on="1"/>
        <pt x="689" y="198" on="0"/>
        <pt x="646" y="198" on="1"/>
        <pt x="633" y="198" on="0"/>
        <pt x="633" y="210" on="1"/>
        <pt x="633" y="214" on="0"/>
        <pt x="648" y="238" on="0"/>
        <pt x="667" y="279" on="0"/>
        <pt x="687" y="336" on="0"/>
        <pt x="693" y="374" on="1"/>
        <pt x="702" y="435" on="0"/>
        <pt x="702" y="483" on="1"/>
        <pt x="702" y="776" on="0"/>
        <pt x="477" y="776" on="1"/>
        <pt x="357" y="776" on="0"/>
        <pt x="269" y="719" on="1"/>
        <pt x="249" y="706" on="0"/>
        <pt x="238" y="706" on="1"/>
        <pt x="224" y="706" on="0"/>
        <pt x="207" y="722" on="1"/>
        <pt x="106" y="816" on="1"/>
        <pt x="80" y="839" on="0"/>
        <pt x="80" y="881" on="1"/>
        <pt x="80" y="891" on="0"/>
        <pt x="84" y="916" on="0"/>
        <pt x="92" y="938" on="0"/>
        <pt x="104" y="953" on="0"/>
        <pt x="112" y="953" on="1"/>
        <pt x="123" y="953" on="0"/>
        <pt x="135" y="940" on="1"/>
        <pt x="254" y="813" on="1"/>
        <pt x="265" y="802" on="0"/>
        <pt x="276" y="802" on="1"/>
        <pt x="290" y="802" on="0"/>
        <pt x="312" y="818" on="1"/>
        <pt x="407" y="886" on="0"/>
      </contour>
    </TTGlyph>
    <TTGlyph name="d" xMin="92" yMin="-31" xMax="944" yMax="1536">
      <contour>
        <pt x="764" y="33" on="1"/>
        <pt x="764" y="1407" on="1"/>
        <pt x="764" y="1446" on="0"/>
        <pt x="782" y="1468" on="1"/>
        <pt x="808" y="1498" on="0"/>
        <pt x="879" y="1536" on="0"/>
        <pt x="909" y="1536" on="1"/>
        <pt x="944" y="1536" on="0"/>
        <pt x="944" y="1493" on="1"/>
        <pt x="944" y="119" on="1"/>
        <pt x="944" y="81" on="0"/>
        <pt x="926" y="57" on="1"/>
        <pt x="900" y="27" on="0"/>
        <pt x="829" y="-10" on="0"/>
        <pt x="799" y="-10" on="1"/>
        <pt x="764" y="-10" on="0"/>
      </contour>
      <contour>
        <pt x="679" y="156" on="1"/>
        <pt x="693" y="163" on="0"/>
        <pt x="697" y="163" on="1"/>
        <pt x="714" y="163" on="0"/>
        <pt x="714" y="127" on="1"/>
        <pt x="714" y="78" on="0"/>
        <pt x="687" y="53" on="1"/>
        <pt x="590" y="-31" on="0"/>
        <pt x="459" y="-31" on="1"/>
        <pt x="416" y="-31" on="0"/>
        <pt x="343" y="-21" on="0"/>
        <pt x="266" y="7" on="0"/>
        <pt x="206" y="53" on="0"/>
        <pt x="150" y="130" on="0"/>
        <pt x="114" y="232" on="0"/>
        <pt x="92" y="377" on="0"/>
        <pt x="92" y="467" on="1"/>
        <pt x="92" y="530" on="0"/>
        <pt x="119" y="658" on="0"/>
        <pt x="139" y="689" on="1"/>
        <pt x="165" y="728" on="0"/>
        <pt x="258" y="789" on="0"/>
        <pt x="291" y="789" on="1"/>
        <pt x="315" y="789" on="0"/>
        <pt x="315" y="759" on="1"/>
        <pt x="315" y="752" on="0"/>
        <pt x="298" y="678" on="0"/>
        <pt x="280" y="553" on="0"/>
        <pt x="280" y="485" on="1"/>
        <pt x="280" y="295" on="0"/>
        <pt x="398" y="113" on="0"/>
        <pt x="535" y="113" on="1"/>
        <pt x="599" y="113" on="0"/>
      </contour>
      <contour>
        <pt x="656" y="864" on="1"/>
        <pt x="578" y="910" on="0"/>
        <pt x="483" y="910" on="1"/>
        <pt x="409" y="910" on="0"/>
        <pt x="281" y="864" on="0"/>
        <pt x="207" y="815" on="1"/>
        <pt x="166" y="788" on="0"/>
        <pt x="158" y="788" on="1"/>
        <pt x="141" y="788" on="0"/>
        <pt x="141" y="807" on="1"/>
        <pt x="141" y="832" on="0"/>
        <pt x="170" y="868" on="1"/>
        <pt x="302" y="1055" on="0"/>
        <pt x="528" y="1055" on="1"/>
        <pt x="606" y="1055" on="0"/>
        <pt x="672" y="1026" on="1"/>
        <pt x="697" y="1015" on="0"/>
        <pt x="714" y="985" on="0"/>
        <pt x="714" y="937" on="1"/>
        <pt x="714" y="854" on="0"/>
        <pt x="684" y="854" on="1"/>
        <pt x="674" y="854" on="0"/>
      </contour>
    </TTGlyph>
    <TTGlyph name="degree" xMin="100" yMin="828" xMax="737" yMax="1467">
      <contour>
        <pt x="419" y="951" on="1"/>
        <pt x="456" y="951" on="0"/>
        <pt x="520" y="983" on="0"/>
        <pt x="566" y="1037" on="0"/>
        <pt x="592" y="1109" on="0"/>
        <pt x="592" y="1148" on="1"/>
        <pt x="592" y="1187" on="0"/>
        <pt x="565" y="1259" on="0"/>
        <pt x="519" y="1314" on="0"/>
        <pt x="454" y="1347" on="0"/>
        <pt x="417" y="1347" on="1"/>
        <pt x="380" y="1347" on="0"/>
        <pt x="317" y="1314" on="0"/>
        <pt x="271" y="1259" on="0"/>
        <pt x="245" y="1187" on="0"/>
        <pt x="245" y="1148" on="1"/>
        <pt x="245" y="1109" on="0"/>
        <pt x="270" y="1037" on="0"/>
        <pt x="316" y="983" on="0"/>
        <pt x="380" y="951" on="0"/>
      </contour>
      <contour>
        <pt x="100" y="1148" on="1"/>
        <pt x="100" y="1281" on="0"/>
        <pt x="290" y="1467" on="0"/>
        <pt x="421" y="1467" on="1"/>
        <pt x="563" y="1467" on="0"/>
        <pt x="737" y="1285" on="0"/>
        <pt x="737" y="1148" on="1"/>
        <pt x="737" y="1016" on="0"/>
        <pt x="546" y="828" on="0"/>
        <pt x="415" y="828" on="1"/>
        <pt x="274" y="828" on="0"/>
        <pt x="100" y="1011" on="0"/>
      </contour>
    </TTGlyph>
    <TTGlyph name="dieresis" xMin="80" yMin="1259" xMax="585" yMax="1576">
      <contour>
        <pt x="245" y="1533" on="1"/>
        <pt x="245" y="1388" on="1"/>
        <pt x="245" y="1348" on="0"/>
        <pt x="227" y="1326" on="1"/>
        <pt x="203" y="1296" on="0"/>
        <pt x="138" y="1259" on="0"/>
        <pt x="115" y="1259" on="1"/>
        <pt x="80" y="1259" on="0"/>
        <pt x="80" y="1302" on="1"/>
        <pt x="80" y="1447" on="1"/>
        <pt x="80" y="1486" on="0"/>
        <pt x="98" y="1508" on="1"/>
        <pt x="124" y="1538" on="0"/>
        <pt x="188" y="1576" on="0"/>
        <pt x="210" y="1576" on="1"/>
        <pt x="245" y="1576" on="0"/>
      </contour>
      <contour>
        <pt x="585" y="1533" on="1"/>
        <pt x="585" y="1388" on="1"/>
        <pt x="585" y="1348" on="0"/>
        <pt x="567" y="1326" on="1"/>
        <pt x="543" y="1296" on="0"/>
        <pt x="478" y="1259" on="0"/>
        <pt x="455" y="1259" on="1"/>
        <pt x="420" y="1259" on="0"/>
        <pt x="420" y="1302" on="1"/>
        <pt x="420" y="1447" on="1"/>
        <pt x="420" y="1486" on="0"/>
        <pt x="438" y="1508" on="1"/>
        <pt x="464" y="1538" on="0"/>
        <pt x="528" y="1576" on="0"/>
        <pt x="550" y="1576" on="1"/>
        <pt x="585" y="1576" on="0"/>
      </contour>
    </TTGlyph>
    <TTGlyph name="dieresis.case" xMin="80" yMin="1686" xMax="626" yMax="2017">
      <contour>
        <pt x="264" y="1830" on="1"/>
        <pt x="264" y="1810" on="0"/>
        <pt x="257" y="1774" on="0"/>
        <pt x="243" y="1757" on="1"/>
        <pt x="230" y="1742" on="0"/>
        <pt x="197" y="1716" on="0"/>
        <pt x="163" y="1697" on="0"/>
        <pt x="129" y="1686" on="0"/>
        <pt x="115" y="1686" on="1"/>
        <pt x="80" y="1686" on="0"/>
        <pt x="80" y="1729" on="1"/>
        <pt x="80" y="1873" on="1"/>
        <pt x="80" y="1888" on="0"/>
        <pt x="88" y="1925" on="0"/>
        <pt x="101" y="1940" on="1"/>
        <pt x="114" y="1955" on="0"/>
        <pt x="147" y="1983" on="0"/>
        <pt x="183" y="2004" on="0"/>
        <pt x="216" y="2017" on="0"/>
        <pt x="229" y="2017" on="1"/>
        <pt x="264" y="2017" on="0"/>
        <pt x="264" y="1974" on="1"/>
      </contour>
      <contour>
        <pt x="626" y="1830" on="1"/>
        <pt x="626" y="1810" on="0"/>
        <pt x="619" y="1774" on="0"/>
        <pt x="605" y="1757" on="1"/>
        <pt x="592" y="1742" on="0"/>
        <pt x="559" y="1716" on="0"/>
        <pt x="525" y="1697" on="0"/>
        <pt x="491" y="1686" on="0"/>
        <pt x="477" y="1686" on="1"/>
        <pt x="442" y="1686" on="0"/>
        <pt x="442" y="1729" on="1"/>
        <pt x="442" y="1873" on="1"/>
        <pt x="442" y="1888" on="0"/>
        <pt x="450" y="1925" on="0"/>
        <pt x="463" y="1940" on="1"/>
        <pt x="476" y="1955" on="0"/>
        <pt x="509" y="1983" on="0"/>
        <pt x="545" y="2004" on="0"/>
        <pt x="578" y="2017" on="0"/>
        <pt x="591" y="2017" on="1"/>
        <pt x="626" y="2017" on="0"/>
        <pt x="626" y="1974" on="1"/>
      </contour>
    </TTGlyph>
    <TTGlyph name="divide" xMin="164" yMin="48" xMax="1270" yMax="1245">
      <contour>
        <pt x="1128" y="580" on="1"/>
        <pt x="207" y="580" on="1"/>
        <pt x="164" y="580" on="0"/>
        <pt x="164" y="611" on="1"/>
        <pt x="164" y="622" on="0"/>
        <pt x="202" y="677" on="0"/>
        <pt x="231" y="703" on="1"/>
        <pt x="254" y="723" on="0"/>
        <pt x="305" y="723" on="1"/>
        <pt x="1227" y="723" on="1"/>
        <pt x="1270" y="723" on="0"/>
        <pt x="1270" y="693" on="1"/>
        <pt x="1270" y="681" on="0"/>
        <pt x="1231" y="626" on="0"/>
        <pt x="1202" y="600" on="1"/>
        <pt x="1180" y="580" on="0"/>
      </contour>
      <contour>
        <pt x="812" y="332" on="1"/>
        <pt x="812" y="197" on="1"/>
        <pt x="812" y="148" on="0"/>
        <pt x="791" y="124" on="1"/>
        <pt x="766" y="94" on="0"/>
        <pt x="675" y="48" on="0"/>
        <pt x="646" y="48" on="1"/>
        <pt x="611" y="48" on="0"/>
        <pt x="611" y="91" on="1"/>
        <pt x="611" y="226" on="1"/>
        <pt x="611" y="268" on="0"/>
        <pt x="632" y="294" on="1"/>
        <pt x="658" y="324" on="0"/>
        <pt x="748" y="375" on="0"/>
        <pt x="777" y="375" on="1"/>
        <pt x="812" y="375" on="0"/>
      </contour>
      <contour>
        <pt x="812" y="1202" on="1"/>
        <pt x="812" y="1067" on="1"/>
        <pt x="812" y="1018" on="0"/>
        <pt x="791" y="994" on="1"/>
        <pt x="766" y="964" on="0"/>
        <pt x="675" y="918" on="0"/>
        <pt x="646" y="918" on="1"/>
        <pt x="611" y="918" on="0"/>
        <pt x="611" y="961" on="1"/>
        <pt x="611" y="1096" on="1"/>
        <pt x="611" y="1138" on="0"/>
        <pt x="632" y="1164" on="1"/>
        <pt x="658" y="1194" on="0"/>
        <pt x="748" y="1245" on="0"/>
        <pt x="777" y="1245" on="1"/>
        <pt x="812" y="1245" on="0"/>
      </contour>
    </TTGlyph>
    <TTGlyph name="dollar" xMin="72" yMin="-313" xMax="937" yMax="1650">
      <contour>
        <pt x="607" y="-116" on="1"/>
        <pt x="607" y="-189" on="1"/>
        <pt x="607" y="-216" on="0"/>
        <pt x="578" y="-261" on="0"/>
        <pt x="534" y="-294" on="0"/>
        <pt x="483" y="-313" on="0"/>
        <pt x="462" y="-313" on="1"/>
        <pt x="427" y="-313" on="0"/>
        <pt x="427" y="-270" on="1"/>
        <pt x="427" y="-164" on="1"/>
        <pt x="427" y="-128" on="0"/>
        <pt x="448" y="-92" on="0"/>
        <pt x="473" y="-78" on="1"/>
        <pt x="521" y="-54" on="1"/>
        <pt x="599" y="-15" on="0"/>
        <pt x="646" y="50" on="1"/>
        <pt x="673" y="86" on="0"/>
        <pt x="711" y="149" on="0"/>
        <pt x="735" y="206" on="0"/>
        <pt x="746" y="263" on="0"/>
        <pt x="746" y="293" on="1"/>
        <pt x="746" y="347" on="0"/>
        <pt x="728" y="449" on="0"/>
        <pt x="668" y="533" on="0"/>
        <pt x="554" y="595" on="0"/>
        <pt x="458" y="610" on="1"/>
        <pt x="374" y="623" on="0"/>
        <pt x="254" y="664" on="0"/>
        <pt x="172" y="716" on="0"/>
        <pt x="123" y="775" on="0"/>
        <pt x="97" y="836" on="0"/>
        <pt x="89" y="895" on="0"/>
        <pt x="89" y="921" on="1"/>
        <pt x="89" y="964" on="0"/>
        <pt x="120" y="1029" on="0"/>
        <pt x="160" y="1061" on="1"/>
        <pt x="212" y="1102" on="0"/>
        <pt x="249" y="1102" on="1"/>
        <pt x="267" y="1102" on="0"/>
        <pt x="285" y="1087" on="0"/>
        <pt x="285" y="1063" on="1"/>
        <pt x="285" y="1045" on="1"/>
        <pt x="285" y="973" on="0"/>
        <pt x="316" y="888" on="0"/>
        <pt x="376" y="839" on="0"/>
        <pt x="465" y="814" on="0"/>
        <pt x="523" y="803" on="1"/>
        <pt x="618" y="784" on="0"/>
        <pt x="754" y="727" on="0"/>
        <pt x="846" y="657" on="0"/>
        <pt x="900" y="575" on="0"/>
        <pt x="929" y="489" on="0"/>
        <pt x="937" y="402" on="0"/>
        <pt x="937" y="360" on="1"/>
        <pt x="937" y="286" on="0"/>
        <pt x="891" y="170" on="0"/>
        <pt x="821" y="83" on="0"/>
        <pt x="738" y="24" on="0"/>
        <pt x="701" y="8" on="1"/>
        <pt x="684" y="0" on="0"/>
        <pt x="651" y="-19" on="0"/>
        <pt x="624" y="-48" on="0"/>
        <pt x="607" y="-88" on="0"/>
      </contour>
      <contour>
        <pt x="608" y="1430" on="1"/>
        <pt x="648" y="1425" on="0"/>
        <pt x="730" y="1405" on="0"/>
        <pt x="796" y="1377" on="0"/>
        <pt x="838" y="1339" on="0"/>
        <pt x="838" y="1315" on="1"/>
        <pt x="838" y="1298" on="0"/>
        <pt x="811" y="1260" on="0"/>
        <pt x="771" y="1228" on="0"/>
        <pt x="724" y="1208" on="0"/>
        <pt x="703" y="1208" on="1"/>
        <pt x="692" y="1208" on="0"/>
        <pt x="667" y="1213" on="0"/>
        <pt x="658" y="1217" on="1"/>
        <pt x="607" y="1237" on="1"/>
        <pt x="565" y="1253" on="0"/>
        <pt x="476" y="1268" on="0"/>
        <pt x="431" y="1268" on="1"/>
        <pt x="413" y="1268" on="0"/>
        <pt x="396" y="1287" on="0"/>
        <pt x="396" y="1311" on="1"/>
        <pt x="396" y="1525" on="1"/>
        <pt x="396" y="1553" on="0"/>
        <pt x="425" y="1599" on="0"/>
        <pt x="468" y="1632" on="0"/>
        <pt x="519" y="1650" on="0"/>
        <pt x="541" y="1650" on="1"/>
        <pt x="576" y="1650" on="0"/>
        <pt x="576" y="1607" on="1"/>
        <pt x="576" y="1473" on="1"/>
        <pt x="576" y="1449" on="0"/>
        <pt x="590" y="1432" on="0"/>
      </contour>
      <contour>
        <pt x="351" y="-31" on="1"/>
        <pt x="225" y="-31" on="0"/>
        <pt x="126" y="68" on="1"/>
        <pt x="91" y="103" on="0"/>
        <pt x="91" y="133" on="1"/>
        <pt x="91" y="158" on="0"/>
        <pt x="124" y="198" on="0"/>
        <pt x="169" y="226" on="0"/>
        <pt x="216" y="242" on="0"/>
        <pt x="230" y="242" on="1"/>
        <pt x="247" y="242" on="0"/>
        <pt x="295" y="215" on="0"/>
        <pt x="343" y="182" on="0"/>
        <pt x="384" y="150" on="0"/>
        <pt x="395" y="146" on="1"/>
        <pt x="425" y="133" on="0"/>
        <pt x="464" y="133" on="1"/>
        <pt x="511" y="133" on="0"/>
        <pt x="579" y="166" on="0"/>
        <pt x="593" y="166" on="1"/>
        <pt x="618" y="166" on="0"/>
        <pt x="618" y="135" on="1"/>
        <pt x="618" y="121" on="0"/>
        <pt x="585" y="66" on="0"/>
        <pt x="519" y="10" on="0"/>
        <pt x="419" y="-31" on="0"/>
      </contour>
      <contour>
        <pt x="268" y="1346" on="1"/>
        <pt x="300" y="1368" on="0"/>
        <pt x="317" y="1368" on="1"/>
        <pt x="336" y="1368" on="0"/>
        <pt x="336" y="1315" on="1"/>
        <pt x="336" y="1294" on="0"/>
        <pt x="335" y="1267" on="0"/>
        <pt x="330" y="1249" on="0"/>
        <pt x="321" y="1239" on="0"/>
        <pt x="313" y="1235" on="1"/>
        <pt x="296" y="1227" on="0"/>
        <pt x="253" y="1201" on="0"/>
        <pt x="161" y="1137" on="0"/>
        <pt x="124" y="1111" on="0"/>
        <pt x="98" y="1094" on="0"/>
        <pt x="95" y="1094" on="1"/>
        <pt x="72" y="1094" on="0"/>
        <pt x="72" y="1118" on="1"/>
        <pt x="72" y="1137" on="0"/>
        <pt x="100" y="1187" on="0"/>
        <pt x="139" y="1236" on="0"/>
        <pt x="205" y="1301" on="0"/>
        <pt x="244" y="1330" on="0"/>
      </contour>
    </TTGlyph>
    <TTGlyph name="dotlessi" xMin="123" yMin="-10" xMax="303" yMax="1055">
      <contour>
        <pt x="303" y="1012" on="1"/>
        <pt x="303" y="119" on="1"/>
        <pt x="303" y="81" on="0"/>
        <pt x="285" y="57" on="1"/>
        <pt x="259" y="27" on="0"/>
        <pt x="188" y="-10" on="0"/>
        <pt x="158" y="-10" on="1"/>
        <pt x="123" y="-10" on="0"/>
        <pt x="123" y="33" on="1"/>
        <pt x="123" y="926" on="1"/>
        <pt x="123" y="964" on="0"/>
        <pt x="141" y="987" on="1"/>
        <pt x="167" y="1017" on="0"/>
        <pt x="238" y="1055" on="0"/>
        <pt x="268" y="1055" on="1"/>
        <pt x="303" y="1055" on="0"/>
      </contour>
    </TTGlyph>
    <TTGlyph name="e" xMin="92" yMin="-31" xMax="854" yMax="1055">
      <contour>
        <pt x="287" y="637" on="1"/>
        <pt x="287" y="609" on="0"/>
        <pt x="322" y="594" on="0"/>
        <pt x="356" y="594" on="1"/>
        <pt x="443" y="594" on="0"/>
        <pt x="567" y="624" on="0"/>
        <pt x="633" y="678" on="0"/>
        <pt x="662" y="738" on="0"/>
        <pt x="662" y="774" on="1"/>
        <pt x="662" y="836" on="0"/>
        <pt x="576" y="911" on="0"/>
        <pt x="481" y="911" on="1"/>
        <pt x="332" y="911" on="0"/>
        <pt x="201" y="817" on="1"/>
        <pt x="162" y="788" on="0"/>
        <pt x="152" y="788" on="1"/>
        <pt x="135" y="788" on="0"/>
        <pt x="135" y="807" on="1"/>
        <pt x="135" y="832" on="0"/>
        <pt x="164" y="868" on="1"/>
        <pt x="218" y="937" on="0"/>
        <pt x="356" y="1025" on="0"/>
        <pt x="470" y="1055" on="0"/>
        <pt x="526" y="1055" on="1"/>
        <pt x="598" y="1055" on="0"/>
        <pt x="714" y="1025" on="0"/>
        <pt x="804" y="962" on="0"/>
        <pt x="854" y="853" on="0"/>
        <pt x="854" y="780" on="1"/>
        <pt x="854" y="624" on="0"/>
        <pt x="557" y="455" on="0"/>
        <pt x="300" y="455" on="1"/>
        <pt x="228" y="455" on="0"/>
        <pt x="137" y="463" on="1"/>
        <pt x="92" y="466" on="0"/>
        <pt x="92" y="507" on="1"/>
        <pt x="92" y="618" on="0"/>
        <pt x="156" y="729" on="0"/>
        <pt x="207" y="759" on="1"/>
        <pt x="257" y="788" on="0"/>
        <pt x="283" y="788" on="1"/>
        <pt x="307" y="788" on="0"/>
        <pt x="307" y="758" on="1"/>
        <pt x="307" y="746" on="0"/>
        <pt x="287" y="653" on="0"/>
      </contour>
      <contour>
        <pt x="100" y="358" on="1"/>
        <pt x="100" y="410" on="0"/>
        <pt x="148" y="410" on="1"/>
        <pt x="234" y="410" on="1"/>
        <pt x="260" y="410" on="0"/>
        <pt x="281" y="390" on="0"/>
        <pt x="287" y="356" on="1"/>
        <pt x="326" y="113" on="0"/>
        <pt x="553" y="113" on="1"/>
        <pt x="610" y="113" on="0"/>
        <pt x="710" y="141" on="0"/>
        <pt x="765" y="175" on="0"/>
        <pt x="812" y="203" on="0"/>
        <pt x="823" y="203" on="1"/>
        <pt x="846" y="203" on="0"/>
        <pt x="846" y="178" on="1"/>
        <pt x="846" y="157" on="0"/>
        <pt x="800" y="91" on="0"/>
        <pt x="715" y="20" on="0"/>
        <pt x="566" y="-31" on="0"/>
        <pt x="479" y="-31" on="1"/>
        <pt x="299" y="-31" on="0"/>
        <pt x="100" y="186" on="0"/>
      </contour>
    </TTGlyph>
    <TTGlyph name="eacute" xMin="92" yMin="-31" xMax="854" yMax="1673">
      <component glyphName="e" x="0" y="0" flags="0x204"/>
      <component glyphName="acute" x="223" y="0" flags="0x4"/>
    </TTGlyph>
    <TTGlyph name="ecircumflex" xMin="92" yMin="-31" xMax="854" yMax="1644">
      <component glyphName="e" x="0" y="0" flags="0x204"/>
      <component glyphName="circumflex" x="94" y="0" flags="0x4"/>
    </TTGlyph>
    <TTGlyph name="edieresis" xMin="92" yMin="-31" xMax="854" yMax="1576">
      <component glyphName="e" x="0" y="0" flags="0x204"/>
      <component glyphName="dieresis" x="132" y="0" flags="0x4"/>
    </TTGlyph>
    <TTGlyph name="egrave" xMin="92" yMin="-31" xMax="854" yMax="1673">
      <component glyphName="e" x="0" y="0" flags="0x204"/>
      <component glyphName="grave" x="222" y="0" flags="0x4"/>
    </TTGlyph>
    <TTGlyph name="eight" xMin="102" yMin="-31" xMax="980" yMax="1434">
      <contour>
        <pt x="423" y="513" on="1"/>
        <pt x="373" y="451" on="1"/>
        <pt x="340" y="410" on="0"/>
        <pt x="303" y="323" on="0"/>
        <pt x="303" y="272" on="1"/>
        <pt x="303" y="243" on="0"/>
        <pt x="326" y="193" on="0"/>
        <pt x="374" y="155" on="0"/>
        <pt x="447" y="133" on="0"/>
        <pt x="498" y="133" on="1"/>
        <pt x="525" y="133" on="0"/>
        <pt x="590" y="146" on="0"/>
        <pt x="648" y="162" on="0"/>
        <pt x="686" y="175" on="0"/>
        <pt x="686" y="175" on="1"/>
        <pt x="709" y="175" on="0"/>
        <pt x="709" y="151" on="1"/>
        <pt x="709" y="123" on="0"/>
        <pt x="669" y="59" on="0"/>
        <pt x="597" y="5" on="0"/>
        <pt x="495" y="-31" on="0"/>
        <pt x="434" y="-31" on="1"/>
        <pt x="361" y="-31" on="0"/>
        <pt x="255" y="-4" on="0"/>
        <pt x="181" y="39" on="0"/>
        <pt x="135" y="94" on="0"/>
        <pt x="110" y="151" on="0"/>
        <pt x="102" y="204" on="0"/>
        <pt x="102" y="223" on="1"/>
        <pt x="102" y="271" on="0"/>
        <pt x="141" y="381" on="0"/>
        <pt x="204" y="489" on="0"/>
        <pt x="284" y="583" on="0"/>
        <pt x="326" y="615" on="1"/>
        <pt x="357" y="638" on="0"/>
        <pt x="378" y="638" on="1"/>
        <pt x="391" y="638" on="0"/>
        <pt x="416" y="624" on="0"/>
        <pt x="436" y="603" on="0"/>
        <pt x="449" y="577" on="0"/>
        <pt x="449" y="566" on="1"/>
        <pt x="449" y="548" on="0"/>
      </contour>
      <contour>
        <pt x="693" y="771" on="1"/>
        <pt x="661" y="745" on="0"/>
        <pt x="661" y="727" on="1"/>
        <pt x="662" y="710" on="0"/>
        <pt x="687" y="687" on="1"/>
        <pt x="701" y="674" on="0"/>
        <pt x="795" y="591" on="0"/>
        <pt x="838" y="549" on="0"/>
        <pt x="913" y="467" on="0"/>
        <pt x="950" y="406" on="0"/>
        <pt x="980" y="323" on="0"/>
        <pt x="980" y="283" on="1"/>
        <pt x="980" y="219" on="0"/>
        <pt x="929" y="108" on="0"/>
        <pt x="854" y="41" on="0"/>
        <pt x="775" y="3" on="0"/>
        <pt x="744" y="3" on="1"/>
        <pt x="723" y="3" on="0"/>
        <pt x="723" y="22" on="1"/>
        <pt x="723" y="27" on="0"/>
        <pt x="754" y="80" on="0"/>
        <pt x="785" y="158" on="0"/>
        <pt x="785" y="193" on="1"/>
        <pt x="785" y="229" on="0"/>
        <pt x="770" y="298" on="0"/>
        <pt x="749" y="354" on="0"/>
        <pt x="705" y="418" on="0"/>
        <pt x="672" y="461" on="0"/>
        <pt x="605" y="528" on="0"/>
        <pt x="566" y="564" on="0"/>
        <pt x="483" y="638" on="0"/>
        <pt x="463" y="657" on="1"/>
        <pt x="437" y="680" on="0"/>
        <pt x="437" y="706" on="1"/>
        <pt x="437" y="731" on="0"/>
        <pt x="469" y="756" on="1"/>
        <pt x="580" y="840" on="0"/>
        <pt x="690" y="949" on="0"/>
        <pt x="727" y="1035" on="0"/>
        <pt x="727" y="1094" on="1"/>
        <pt x="727" y="1182" on="0"/>
        <pt x="583" y="1270" on="0"/>
        <pt x="469" y="1270" on="1"/>
        <pt x="293" y="1270" on="0"/>
        <pt x="198" y="1159" on="1"/>
        <pt x="188" y="1147" on="0"/>
        <pt x="161" y="1106" on="0"/>
        <pt x="144" y="1090" on="0"/>
        <pt x="133" y="1090" on="1"/>
        <pt x="114" y="1090" on="0"/>
        <pt x="114" y="1116" on="1"/>
        <pt x="114" y="1145" on="0"/>
        <pt x="152" y="1229" on="0"/>
        <pt x="178" y="1264" on="1"/>
        <pt x="247" y="1357" on="0"/>
        <pt x="429" y="1434" on="0"/>
        <pt x="546" y="1434" on="1"/>
        <pt x="624" y="1434" on="0"/>
        <pt x="756" y="1401" on="0"/>
        <pt x="863" y="1332" on="0"/>
        <pt x="924" y="1211" on="0"/>
        <pt x="924" y="1130" on="1"/>
        <pt x="924" y="958" on="0"/>
      </contour>
      <contour>
        <pt x="308" y="809" on="1"/>
        <pt x="227" y="888" on="0"/>
        <pt x="177" y="968" on="0"/>
        <pt x="177" y="1000" on="1"/>
        <pt x="177" y="1031" on="0"/>
        <pt x="234" y="1103" on="0"/>
        <pt x="261" y="1103" on="1"/>
        <pt x="277" y="1103" on="0"/>
        <pt x="295" y="1086" on="0"/>
        <pt x="336" y="1034" on="0"/>
        <pt x="362" y="1010" on="1"/>
        <pt x="392" y="982" on="0"/>
        <pt x="467" y="927" on="0"/>
        <pt x="492" y="900" on="0"/>
        <pt x="492" y="881" on="1"/>
        <pt x="492" y="851" on="0"/>
        <pt x="401" y="778" on="0"/>
        <pt x="374" y="778" on="1"/>
        <pt x="341" y="778" on="0"/>
      </contour>
    </TTGlyph>
</ttFont>
